<?xml version="1.0" encoding="utf-8"?>
<!-- Generator: Adobe Illustrator 25.2.3, SVG Export Plug-In . SVG Version: 6.00 Build 0)  -->
<svg version="1.1" id="Capa_1" xmlns="http://www.w3.org/2000/svg" xmlns:xlink="http://www.w3.org/1999/xlink" x="0px" y="0px"
	 viewBox="0 0 22.5 22.5" style="enable-background:new 0 0 22.5 22.5;" xml:space="preserve">
<style type="text/css">
	.st0{fill:#BC945A;}
	.st1{fill:#1A453B;}
</style>
<circle class="st0" cx="11.2" cy="11.2" r="10"/>
<g>
	<g>
		<path class="st1" d="M9.7,14.6l3.9-2c0.4-0.2,0.4-0.5,0-0.7l-3.9-2C9.3,9.9,9,10.1,9,10.5v3.8C9,14.6,9.3,14.8,9.7,14.6z"/>
		<path class="st1" d="M16.1,5.2H6.4c-0.6,0-1.1,0.5-1.1,1.1v9.8c0,0.6,0.5,1.1,1.1,1.1h9.8c0.6,0,1.1-0.5,1.1-1.1V6.4
			C17.2,5.7,16.7,5.2,16.1,5.2z M12.7,6l0.8,1.5H12L11.2,6H12.7z M9.7,6l0.8,1.5H9L8.2,6H9.7z M6,6.4C6,6.1,6.1,6,6.4,6h0.4l0.8,1.5
			H6V6.4z M16.5,16.1c0,0.2-0.2,0.4-0.4,0.4H6.4c-0.2,0-0.4-0.2-0.4-0.4V8.2h10.5V16.1z M15,7.5L14.2,6h1.5l0.8,1.5H15z"/>
	</g>
</g>
</svg>
