<?xml version="1.0" encoding="utf-8"?>
<!-- Generator: Adobe Illustrator 25.2.3, SVG Export Plug-In . SVG Version: 6.00 Build 0)  -->
<svg version="1.1" id="Capa_1" xmlns="http://www.w3.org/2000/svg" xmlns:xlink="http://www.w3.org/1999/xlink" x="0px" y="0px"
	 viewBox="0 0 22.5 22.5" style="enable-background:new 0 0 22.5 22.5;" xml:space="preserve">
<style type="text/css">
	.st0{fill:#BC945A;}
	.st1{fill:#1A453B;}
</style>
<circle class="st0" cx="11.2" cy="11.2" r="10"/>
<g>
	<g>
		<path class="st1" d="M5.2,6v10.5h12V6H5.2z M16.5,15.7h-9v-9h9V15.7z"/>
		<path class="st1" d="M10,15c0.6,0,1.1-0.3,1.2-0.7v-0.6l0,0v-4l3-0.7v2.4c-0.1,0-0.2,0-0.4,0c-0.7,0-1.3,0.4-1.3,1s0.6,1,1.3,1
			c0.5,0,0.9-0.2,1.1-0.5V7.4l-0.7,0.1l-3,0.7l-0.8,0.1v4.7C10.4,13,10.2,13,10,13c-0.7,0-1.3,0.4-1.3,1C8.7,14.5,9.3,15,10,15z"/>
	</g>
</g>
</svg>
