<?xml version="1.0" encoding="utf-8"?>
<!-- Generator: Adobe Illustrator 25.2.3, SVG Export Plug-In . SVG Version: 6.00 Build 0)  -->
<svg version="1.1" id="Capa_1" xmlns="http://www.w3.org/2000/svg" xmlns:xlink="http://www.w3.org/1999/xlink" x="0px" y="0px"
	 viewBox="0 0 81.3 76" style="enable-background:new 0 0 81.3 76;" xml:space="preserve">
<style type="text/css">
	.st0{fill:#666666;}
	.st1{clip-path:url(#SVGID_2_);}
	.st2{clip-path:url(#SVGID_4_);}
	.st3{clip-path:url(#SVGID_6_);}
	.st4{fill:#0F9B58;}
	.st5{clip-path:url(#SVGID_8_);}
	.st6{clip-path:url(#SVGID_10_);}
	.st7{fill:#57B988;}
	.st8{clip-path:url(#SVGID_12_);}
	.st9{clip-path:url(#SVGID_14_);}
	.st10{fill:#F5F5F5;}
	.st11{clip-path:url(#SVGID_16_);}
	.st12{opacity:0.2;}
	.st13{clip-path:url(#SVGID_18_);}
	.st14{clip-path:url(#SVGID_20_);}
	.st15{clip-path:url(#SVGID_22_);}
	.st16{clip-path:url(#SVGID_24_);}
	.st17{fill:#EFEFEF;}
	.st18{clip-path:url(#SVGID_26_);}
	.st19{clip-path:url(#SVGID_28_);}
	.st20{fill:#F2B202;}
	.st21{clip-path:url(#SVGID_30_);}
	.st22{clip-path:url(#SVGID_32_);}
	.st23{opacity:0.2;fill:#FFFFFF;enable-background:new    ;}
	.st24{clip-path:url(#SVGID_34_);}
	.st25{clip-path:url(#SVGID_36_);}
	.st26{opacity:0.2;fill:#BD360C;enable-background:new    ;}
	.st27{clip-path:url(#SVGID_38_);}
	.st28{clip-path:url(#SVGID_40_);}
	.st29{clip-path:url(#SVGID_42_);}
	.st30{clip-path:url(#SVGID_44_);}
	.st31{clip-path:url(#SVGID_46_);}
	.st32{opacity:0.2;fill:#263238;enable-background:new    ;}
	.st33{clip-path:url(#SVGID_48_);}
	.st34{clip-path:url(#SVGID_50_);}
	.st35{clip-path:url(#SVGID_52_);}
	.st36{clip-path:url(#SVGID_54_);}
	.st37{clip-path:url(#SVGID_56_);}
</style>
<g id="Layer_2_1_">
	<g id="Layer_2-2_1_">
		<path class="st0" d="M13.8,67.7c0,1.1-0.5,2.1-1.3,2.8c-0.9,0.7-1.9,1-3,1C8.3,71.5,7.1,71,6.3,70C5.4,69,5,67.6,5.1,66.2v-0.7
			c0-0.9,0.2-1.9,0.5-2.8C6,62,6.5,61.4,7.2,61c0.7-0.4,1.5-0.6,2.3-0.6c1.1-0.1,2.1,0.3,3,1c0.8,0.7,1.2,1.7,1.3,2.8h-2.2
			c0-0.6-0.2-1.1-0.6-1.5c-0.4-0.3-1-0.5-1.5-0.5c-0.7,0-1.3,0.3-1.7,0.9c-0.4,0.7-0.6,1.6-0.6,2.4v0.8c-0.1,0.9,0.1,1.8,0.5,2.5
			c0.4,0.5,1,0.8,1.7,0.8c0.5,0,1.1-0.1,1.5-0.5c0.4-0.4,0.6-0.9,0.6-1.4H13.8z"/>
		<path class="st0" d="M17.4,71.3h-2.1V60h2.1V71.3z"/>
		<path class="st0" d="M23.7,71.3c-0.1-0.2-0.2-0.4-0.2-0.7c-0.5,0.6-1.2,0.9-2,0.9c-0.7,0-1.4-0.2-1.9-0.7
			c-0.5-0.4-0.8-1.1-0.8-1.7c0-0.8,0.3-1.5,0.9-1.9c0.8-0.5,1.8-0.7,2.7-0.7h1V66c0-0.3-0.1-0.6-0.3-0.9c-0.2-0.2-0.6-0.4-0.9-0.3
			c-0.3,0-0.6,0.1-0.8,0.3c-0.2,0.2-0.3,0.4-0.3,0.7H19c0-0.5,0.1-0.9,0.4-1.3c0.3-0.4,0.7-0.7,1.2-0.9c0.6-0.2,1.1-0.3,1.7-0.3
			c0.8,0,1.7,0.2,2.3,0.7c0.6,0.5,0.9,1.3,0.9,2.1v3.4c0,0.6,0.1,1.2,0.3,1.7v0.2H23.7z M21.9,69.8c0.3,0,0.6-0.1,0.9-0.2
			c0.2-0.1,0.5-0.3,0.6-0.6v-1.4h-0.8c-1.1,0-1.6,0.4-1.7,1.1v0.1c0,0.2,0.1,0.5,0.3,0.7C21.4,69.7,21.7,69.8,21.9,69.8L21.9,69.8z"
			/>
		<path class="st0" d="M31.5,69c0-0.3-0.1-0.5-0.4-0.6c-0.4-0.2-0.8-0.3-1.2-0.4C28,67.6,27,66.8,27,65.6c0-0.7,0.3-1.4,0.9-1.8
			c0.7-0.5,1.5-0.7,2.3-0.7c0.9-0.1,1.7,0.2,2.4,0.7c0.6,0.4,0.9,1.1,0.9,1.9h-2.1c0-0.3-0.1-0.5-0.3-0.7c-0.3-0.2-0.6-0.3-0.9-0.3
			c-0.3,0-0.6,0.1-0.8,0.2C29.2,65,29,65.3,29,65.5c0,0.2,0.1,0.4,0.3,0.6c0.4,0.2,0.8,0.3,1.2,0.4c0.5,0.1,0.9,0.2,1.3,0.4
			c1,0.2,1.7,1.1,1.7,2.1c0,0.7-0.4,1.4-1,1.8c-0.7,0.5-1.6,0.7-2.4,0.7c-0.6,0-1.2-0.1-1.8-0.4c-0.5-0.2-0.9-0.5-1.2-1
			c-0.3-0.4-0.4-0.9-0.4-1.4h2c0,0.3,0.1,0.7,0.4,0.9c0.3,0.2,0.7,0.3,1,0.3c0.3,0,0.6-0.1,0.9-0.2C31.3,69.5,31.5,69.3,31.5,69z"/>
		<path class="st0" d="M39.2,69c0-0.3-0.1-0.5-0.4-0.6c-0.4-0.2-0.8-0.3-1.2-0.4c-1.9-0.4-2.8-1.2-2.8-2.4c0-0.7,0.3-1.4,0.9-1.8
			c0.7-0.5,1.5-0.7,2.3-0.7c0.9-0.1,1.7,0.2,2.4,0.7c0.6,0.4,0.9,1.1,0.9,1.9h-2.1c0-0.3-0.1-0.5-0.3-0.7c-0.3-0.2-0.6-0.3-0.9-0.3
			c-0.3,0-0.6,0.1-0.8,0.2c-0.2,0.1-0.3,0.4-0.3,0.6c0,0.2,0.1,0.4,0.3,0.6c0.4,0.2,0.7,0.3,1.1,0.4c0.5,0.1,0.9,0.2,1.3,0.4
			c1,0.2,1.7,1.1,1.7,2.1c0,0.7-0.3,1.4-0.9,1.8c-0.7,0.5-1.6,0.7-2.4,0.7c-0.6,0-1.2-0.1-1.8-0.4c-0.5-0.2-0.9-0.5-1.2-1
			c-0.3-0.4-0.4-0.9-0.4-1.4h2c0,0.3,0.2,0.7,0.4,0.9c0.3,0.2,0.7,0.3,1,0.3c0.3,0,0.6-0.1,0.9-0.2C39.1,69.5,39.2,69.3,39.2,69z"/>
		<path class="st0" d="M47.1,65.3c-0.3,0-0.5-0.1-0.8-0.1c-0.6-0.1-1.3,0.2-1.6,0.8v5.2h-2.1v-8h2l0.1,0.9c0.3-0.7,1-1.1,1.8-1.1
			c0.2,0,0.5,0,0.7,0.1L47.1,65.3z"/>
		<path class="st0" d="M47.5,67.2c0-0.7,0.1-1.5,0.5-2.1c0.3-0.6,0.7-1.1,1.3-1.4c0.6-0.3,1.3-0.5,2-0.5c1-0.1,1.9,0.3,2.7,0.9
			c0.7,0.7,1.1,1.7,1.1,2.7v0.5c0.1,1.1-0.3,2.1-1,2.9c-1.5,1.5-4,1.5-5.5,0C47.8,69.5,47.4,68.4,47.5,67.2L47.5,67.2z M49.6,67.3
			c0,0.6,0.1,1.2,0.4,1.7c0.5,0.7,1.5,0.8,2.1,0.3c0.1-0.1,0.2-0.2,0.3-0.3c0.3-0.6,0.5-1.2,0.4-1.9c0-0.6-0.1-1.2-0.4-1.7
			c-0.3-0.4-0.7-0.6-1.2-0.6c-0.5,0-0.9,0.2-1.2,0.6C49.7,66,49.6,66.7,49.6,67.3z"/>
		<path class="st0" d="M56,67.2c0-0.7,0.2-1.5,0.5-2.1c0.3-0.6,0.7-1.1,1.3-1.4c0.6-0.3,1.3-0.5,2-0.5c1,0,1.9,0.3,2.6,1
			c0.7,0.7,1.1,1.6,1.2,2.6v0.5c0.1,1.1-0.3,2.1-1,2.9c-1.5,1.5-4,1.5-5.5,0C56.3,69.5,55.9,68.4,56,67.2L56,67.2z M58.1,67.3
			c0,0.6,0.1,1.2,0.4,1.7c0.5,0.7,1.5,0.8,2.1,0.3c0.1-0.1,0.2-0.2,0.3-0.3c0.3-0.6,0.5-1.2,0.4-1.9c0-0.6-0.1-1.2-0.4-1.7
			c-0.5-0.7-1.4-0.8-2.1-0.3c-0.1,0.1-0.2,0.2-0.3,0.3C58.2,66,58.1,66.7,58.1,67.3L58.1,67.3z"/>
		<path class="st0" d="M66.9,63.3l0.1,0.9c0.5-0.7,1.4-1.1,2.3-1c0.9-0.1,1.7,0.4,2.1,1.2c0.5-0.8,1.4-1.3,2.4-1.2
			c0.7-0.1,1.4,0.2,1.9,0.8c0.5,0.7,0.7,1.5,0.6,2.3v5.1h-2.1v-5.1c0-0.3-0.1-0.7-0.3-1c-0.2-0.2-0.6-0.4-0.9-0.3
			c-0.6,0-1.1,0.3-1.3,0.9v5.5h-2.1v-5.1c0-0.4-0.1-0.7-0.3-1c-0.3-0.2-0.6-0.3-0.9-0.3c-0.5,0-1,0.3-1.3,0.7v5.6h-2.1v-8H66.9z"/>
		<g>
			<defs>
				<path id="SVGID_1_" d="M18.3,4.5H63c1.9,0,3.5,1.6,3.5,3.5v37.7c0,1.9-1.6,3.5-3.5,3.5H18.3c-1.9,0-3.5-1.6-3.5-3.5V8.1
					C14.8,6.1,16.4,4.5,18.3,4.5z"/>
			</defs>
			<clipPath id="SVGID_2_">
				<use xlink:href="#SVGID_1_"  style="overflow:visible;"/>
			</clipPath>
			<g class="st1">
				<g>
					<g>
						<defs>
							<rect id="SVGID_3_" x="14.7" y="4.5" width="51.8" height="44.8"/>
						</defs>
						<clipPath id="SVGID_4_">
							<use xlink:href="#SVGID_3_"  style="overflow:visible;"/>
						</clipPath>
						<g class="st2">
							<g>
								<defs>
									<rect id="SVGID_5_" x="19.5" y="9.2" width="42.4" height="35.3"/>
								</defs>
								<clipPath id="SVGID_6_">
									<use xlink:href="#SVGID_5_"  style="overflow:visible;"/>
								</clipPath>
								<g class="st3">
									<rect x="18.9" y="8.7" class="st4" width="43.5" height="36.4"/>
								</g>
							</g>
							<g>
								<defs>
									<path id="SVGID_7_" d="M31.2,29.8c-2.8,0-5.9,1.5-5.9,3.4v1.9h11.8v-1.9C37.1,31.4,34.1,29.8,31.2,29.8z M31.2,28.1
										c1.5,0,2.6-1.2,2.6-2.6c0-1.5-1.2-2.6-2.6-2.6s-2.6,1.2-2.6,2.6v0C28.6,26.9,29.8,28.1,31.2,28.1z M50.1,29.8
										c-2.8,0-5.9,1.5-5.9,3.4v1.9H56v-1.9C56,31.4,52.9,29.8,50.1,29.8z M50.1,28.1c1.5,0,2.7-1.2,2.7-2.6
										c0-1.5-1.2-2.7-2.6-2.7c-1.5,0-2.7,1.2-2.7,2.6c0,0,0,0,0,0C47.4,26.9,48.6,28.1,50.1,28.1z"/>
								</defs>
								<clipPath id="SVGID_8_">
									<use xlink:href="#SVGID_7_"  style="overflow:visible;"/>
								</clipPath>
								<g class="st5">
									<g>
										<defs>
											<rect id="SVGID_9_" x="14.7" y="4.5" width="51.8" height="44.8"/>
										</defs>
										<clipPath id="SVGID_10_">
											<use xlink:href="#SVGID_9_"  style="overflow:visible;"/>
										</clipPath>
										<g class="st6">
											<rect x="24.8" y="22.2" class="st7" width="31.7" height="13.5"/>
										</g>
									</g>
								</g>
							</g>
							<g>
								<defs>
									<path id="SVGID_11_" d="M40.7,28.1c-4,0-8.3,2.1-8.3,4.7v2.4h16.5v-2.4C48.9,30.2,44.6,28.1,40.7,28.1z M40.7,25.7
										c1.9,0,3.5-1.6,3.5-3.5c0-1.9-1.6-3.5-3.5-3.5c-1.9,0-3.5,1.6-3.5,3.5S38.7,25.7,40.7,25.7C40.7,25.7,40.7,25.7,40.7,25.7z
										"/>
								</defs>
								<clipPath id="SVGID_12_">
									<use xlink:href="#SVGID_11_"  style="overflow:visible;"/>
								</clipPath>
								<g class="st8">
									<g>
										<defs>
											<rect id="SVGID_13_" x="14.7" y="4.5" width="51.8" height="44.8"/>
										</defs>
										<clipPath id="SVGID_14_">
											<use xlink:href="#SVGID_13_"  style="overflow:visible;"/>
										</clipPath>
										<g class="st9">
											<rect x="31.9" y="18.1" class="st10" width="17.6" height="17.6"/>
										</g>
									</g>
								</g>
							</g>
							<g>
								<defs>
									<rect id="SVGID_15_" x="14.7" y="4.5" width="51.8" height="44.8"/>
								</defs>
								<clipPath id="SVGID_16_">
									<use xlink:href="#SVGID_15_"  style="overflow:visible;"/>
								</clipPath>
								<g class="st11">
									<g class="st12">
										<g>
											<defs>
												<rect id="SVGID_17_" x="43.5" y="40.3" width="14.2" height="6.1"/>
											</defs>
											<clipPath id="SVGID_18_">
												<use xlink:href="#SVGID_17_"  style="overflow:visible;"/>
											</clipPath>
											<g class="st13">
												<g>
													<defs>
														<rect id="SVGID_19_" x="43.5" y="40.3" width="14.2" height="6.1"/>
													</defs>
													<clipPath id="SVGID_20_">
														<use xlink:href="#SVGID_19_"  style="overflow:visible;"/>
													</clipPath>
													<g class="st14">
														<g>
															<defs>
																<rect id="SVGID_21_" x="43.6" y="40.4" width="14.1" height="5.9"/>
															</defs>
															<clipPath id="SVGID_22_">
																<use xlink:href="#SVGID_21_"  style="overflow:visible;"/>
															</clipPath>
															<g class="st15">
																
																	<image style="overflow:visible;enable-background:new    ;" width="205" height="86" xlink:href="F4AB8320416204A0.png"  transform="matrix(6.845795e-02 0 0 6.845795e-02 43.6122 40.5008)">
																</image>
															</g>
														</g>
													</g>
												</g>
											</g>
										</g>
									</g>
								</g>
							</g>
							<g>
								<defs>
									<rect id="SVGID_23_" x="45.4" y="42.2" width="10.6" height="2.4"/>
								</defs>
								<clipPath id="SVGID_24_">
									<use xlink:href="#SVGID_23_"  style="overflow:visible;"/>
								</clipPath>
								<g class="st16">
									<rect x="44.8" y="41.6" class="st17" width="11.7" height="3.5"/>
								</g>
							</g>
							<g>
								<defs>
									<path id="SVGID_25_" d="M61.8,44.5H19.5V9.2h42.4V44.5z M63,4.5H18.3c-1.9,0-3.5,1.6-3.5,3.5l0,0v37.7
										c0,1.9,1.6,3.5,3.5,3.5H63c1.9,0,3.5-1.6,3.5-3.5V8.1C66.6,6.1,65,4.5,63,4.5z"/>
								</defs>
								<clipPath id="SVGID_26_">
									<use xlink:href="#SVGID_25_"  style="overflow:visible;"/>
								</clipPath>
								<g class="st18">
									<g>
										<defs>
											<rect id="SVGID_27_" x="14.7" y="4.5" width="51.8" height="44.8"/>
										</defs>
										<clipPath id="SVGID_28_">
											<use xlink:href="#SVGID_27_"  style="overflow:visible;"/>
										</clipPath>
										<g class="st19">
											<rect x="14.2" y="4" class="st20" width="52.9" height="45.8"/>
										</g>
									</g>
								</g>
							</g>
							<g>
								<defs>
									<path id="SVGID_29_" d="M63,4.5H18.3c-1.9,0-3.5,1.6-3.5,3.5l0,0v0.3c0-1.9,1.6-3.5,3.5-3.5H63c1.9,0,3.5,1.6,3.5,3.5
										c0,0,0,0,0,0V8.1C66.6,6.1,65,4.5,63,4.5z"/>
								</defs>
								<clipPath id="SVGID_30_">
									<use xlink:href="#SVGID_29_"  style="overflow:visible;"/>
								</clipPath>
								<g class="st21">
									<g>
										<defs>
											<rect id="SVGID_31_" x="14.7" y="4.5" width="51.8" height="44.8"/>
										</defs>
										<clipPath id="SVGID_32_">
											<use xlink:href="#SVGID_31_"  style="overflow:visible;"/>
										</clipPath>
										<g class="st22">
											<rect x="14.2" y="4" class="st23" width="52.9" height="4.9"/>
										</g>
									</g>
								</g>
							</g>
							<g>
								<defs>
									<path id="SVGID_33_" d="M63,48.9H18.3c-1.9,0-3.5-1.6-3.5-3.5l0,0v0.3c0,1.9,1.6,3.5,3.5,3.5H63c1.9,0,3.5-1.6,3.5-3.5
										v-0.3C66.6,47.4,65,48.9,63,48.9C63,48.9,63,48.9,63,48.9z"/>
								</defs>
								<clipPath id="SVGID_34_">
									<use xlink:href="#SVGID_33_"  style="overflow:visible;"/>
								</clipPath>
								<g class="st24">
									<g>
										<defs>
											<rect id="SVGID_35_" x="14.7" y="4.5" width="51.8" height="44.8"/>
										</defs>
										<clipPath id="SVGID_36_">
											<use xlink:href="#SVGID_35_"  style="overflow:visible;"/>
										</clipPath>
										<g class="st25">
											<rect x="14.2" y="44.9" class="st26" width="52.9" height="4.9"/>
										</g>
									</g>
								</g>
							</g>
							<g>
								<defs>
									<polygon id="SVGID_37_" points="55.9,44.5 45.4,44.5 50.1,49.2 60.6,49.2 									"/>
								</defs>
								<clipPath id="SVGID_38_">
									<use xlink:href="#SVGID_37_"  style="overflow:visible;"/>
								</clipPath>
								<g class="st27">
									<g>
										<defs>
											<rect id="SVGID_39_" x="14.7" y="4.5" width="51.8" height="44.8"/>
										</defs>
										<clipPath id="SVGID_40_">
											<use xlink:href="#SVGID_39_"  style="overflow:visible;"/>
										</clipPath>
										<g class="st28">
											<g>
												<g>
													<g>
														<defs>
															<rect id="SVGID_41_" x="14.7" y="4.5" width="51.8" height="44.8"/>
														</defs>
														<clipPath id="SVGID_42_">
															<use xlink:href="#SVGID_41_"  style="overflow:visible;"/>
														</clipPath>
														<g class="st29">
															<g>
																<defs>
																	<rect id="SVGID_43_" x="14.7" y="4.5" width="51.8" height="44.8"/>
																</defs>
																<clipPath id="SVGID_44_">
																	<use xlink:href="#SVGID_43_"  style="overflow:visible;"/>
																</clipPath>
																<g class="st30">
																	<g>
																		
																			<image style="overflow:visible;enable-background:new    ;" width="315" height="273" xlink:href="F4AB8320416204A1.png"  transform="matrix(0.1651 0 0 0.1651 14.7052 4.3354)">
																		</image>
																	</g>
																</g>
															</g>
														</g>
													</g>
												</g>
											</g>
										</g>
									</g>
								</g>
							</g>
							<g>
								<defs>
									<rect id="SVGID_45_" x="19.5" y="8.9" width="42.4" height="0.3"/>
								</defs>
								<clipPath id="SVGID_46_">
									<use xlink:href="#SVGID_45_"  style="overflow:visible;"/>
								</clipPath>
								<g class="st31">
									<rect x="18.9" y="8.4" class="st32" width="43.5" height="1.4"/>
								</g>
							</g>
						</g>
					</g>
				</g>
			</g>
		</g>
		<g>
			<defs>
				<path id="SVGID_47_" d="M18.3,4.5H63c1.9,0,3.5,1.6,3.5,3.5v37.7c0,1.9-1.6,3.5-3.5,3.5H18.3c-1.9,0-3.5-1.6-3.5-3.5V8.1
					C14.8,6.1,16.4,4.5,18.3,4.5z"/>
			</defs>
			<clipPath id="SVGID_48_">
				<use xlink:href="#SVGID_47_"  style="overflow:visible;"/>
			</clipPath>
			<g class="st33">
				<g>
					<g>
						<defs>
							<rect id="SVGID_49_" x="19.5" y="44.5" width="42.4" height="0.3"/>
						</defs>
						<clipPath id="SVGID_50_">
							<use xlink:href="#SVGID_49_"  style="overflow:visible;"/>
						</clipPath>
						<g class="st34">
							<g>
								<defs>
									<rect id="SVGID_51_" x="19.5" y="44.5" width="42.4" height="0.3"/>
								</defs>
								<clipPath id="SVGID_52_">
									<use xlink:href="#SVGID_51_"  style="overflow:visible;"/>
								</clipPath>
								<g class="st35">
									<rect x="18.9" y="44" class="st23" width="43.5" height="1.4"/>
								</g>
							</g>
						</g>
					</g>
				</g>
			</g>
		</g>
		<g>
			<defs>
				<path id="SVGID_53_" d="M18.3,4.5H63c1.9,0,3.5,1.6,3.5,3.5v37.7c0,1.9-1.6,3.5-3.5,3.5H18.3c-1.9,0-3.5-1.6-3.5-3.5V8.1
					C14.8,6.1,16.4,4.5,18.3,4.5z"/>
			</defs>
			<clipPath id="SVGID_54_">
				<use xlink:href="#SVGID_53_"  style="overflow:visible;"/>
			</clipPath>
			<g class="st36">
				<g>
					<g>
						<g>
							<defs>
								<rect id="SVGID_55_" x="14.8" y="4.5" width="51.8" height="44.7"/>
							</defs>
							<clipPath id="SVGID_56_">
								<use xlink:href="#SVGID_55_"  style="overflow:visible;"/>
							</clipPath>
							<g class="st37">
								<g>
									<defs>
										<rect id="SVGID_57_" x="14.8" y="4.5" width="51.8" height="44.7"/>
									</defs>
									<clipPath id="SVGID_58_">
										<use xlink:href="#SVGID_57_"  style="overflow:visible;"/>
									</clipPath>
								</g>
							</g>
						</g>
					</g>
				</g>
			</g>
		</g>
	</g>
</g>
</svg>
