<?xml version="1.0" encoding="utf-8"?>
<!-- Generator: Adobe Illustrator 25.2.3, SVG Export Plug-In . SVG Version: 6.00 Build 0)  -->
<svg version="1.1" id="Capa_1" xmlns="http://www.w3.org/2000/svg" xmlns:xlink="http://www.w3.org/1999/xlink" x="0px" y="0px"
	 viewBox="0 0 187.4 58.3" style="enable-background:new 0 0 187.4 58.3;" xml:space="preserve">
<style type="text/css">
	.st0{fill:#DAC69E;}
	.st1{fill:#FFFFFF;}
</style>
<g>
	<path class="st0" d="M48.2,27.2c-0.1-1.3-0.4-2.5-0.9-3.7c-0.1-0.1-0.2-0.1-0.3-0.1c-0.1,0-0.1,0-0.2,0v0.1
		c0.4,1.1,0.7,2.3,0.8,3.4c0.1,0.8-0.1,1.7-0.4,2.5c-0.1,0.6-0.1,1.2,0,1.8c0,0.3-0.1,0.4-0.2,0.4s-0.2-0.1-0.2-0.4
		c0-0.7,0-1.3-0.1-1.8l0,0c0-0.8-0.1-1.7-0.3-2.5c-0.2-0.7-0.6-1.4-1.2-1.9c-0.3-0.5-0.5-1-0.7-1.5c0-0.1,0-0.2-0.1-0.3
		c-0.1-0.1-0.1-0.3-0.1-0.4l-0.2-0.7c0-0.1-0.1-0.1-0.2-0.1c-0.1,0-0.3,0.1-0.3,0.2c0,0.1,0,0.2,0,0.2l0.6,2.3
		c0.2,0.4,0.5,0.8,0.8,1.2l0,0c0.2,0.2,0.3,0.4,0.5,0.6c0.2,0.3,0.4,0.7,0.4,1.1c0.1,0.8,0.2,1.9,0.3,3.4l0.4,2.3
		c0.1,0.8,0.1,1.7-0.1,2.5c0,0.3,0,0.4,0,0.5l0,0c0,0,0.2,0,0.4-0.3c0.6-0.8,0.6-3.4,0.6-5.5c0-0.6,0.1-1.1,0.3-1.7
		c0.1-0.5,0.2-1,0.2-1.5"/>
	<path class="st0" d="M46,23.7v-0.4c0-0.1,0-0.1-0.1-0.2c-0.1-0.2-0.3-0.3-0.4-0.4h-0.2c0,0,0,0,0,0.1c0.1,0.8,0.5,1.6,1.1,2.1h0.1
		c0,0,0-0.1,0-0.2l-0.3-0.7C46.1,24,46,23.9,46,23.7"/>
	<path class="st0" d="M43.2,29.8L43.2,29.8c-0.1,0-0.2-0.1-0.3-0.3c-0.3-0.6-0.5-1.3-0.5-2c0-0.3-0.1-0.6-0.2-0.8
		c-0.1-0.5-0.3-0.9-0.7-1.2C40.6,24.8,40,24,39.6,23c-0.1-0.2-0.2-0.4-0.3-0.4s-0.1,0-0.1,0.1c-0.1,0.2-0.1,0.3,0,0.5
		c0.2,0.5,0.5,1,0.8,1.5c0.1,0.1,0.2,0.2,0.3,0.4h0.1c0.4,0.3,0.8,0.7,1.1,1.1c0.2,0.4,0.4,0.8,0.4,1.2c0,0.1,0,0.2,0,0.3l0,0
		c0.2,1.1,0.6,2.2,1.1,3.2c0.1,0.3,0.3,0.7,0.3,1l0.2,1.3c0,0.4,0.2,0.4,0.2,0.4h0.1c0.1-0.1,0.1-0.2,0.1-0.4c0-1.3,0-2.7-0.2-4
		c-0.1-1.1-0.4-2.1-0.9-3.1C42.7,26,42.6,26,42.5,26l0,0c0,0,0,0.1,0,0.3c0.4,1,0.7,2.1,0.8,3.2C43.3,29.5,43.2,29.7,43.2,29.8
		L43.2,29.8z"/>
	<path class="st0" d="M40.7,22.9c0-0.1-0.2-0.2-0.3-0.2c-0.1,0-0.1,0-0.2,0l0,0c0.2,0.6,0.5,1.2,1,1.7h0.1l0,0c0,0,0-0.1,0-0.2
		c-0.3-0.4-0.5-0.9-0.6-1.5"/>
	<path class="st0" d="M45.1,29.9L45.1,29.9c0,0-0.1,0-0.2-0.2c0-0.1-0.1-0.2-0.1-0.3l-0.4-2.3c-0.1-0.7-0.4-1.3-0.9-1.8
		c-0.7-0.8-1.3-1.8-1.7-2.9c-0.1-0.3-0.2-0.4-0.3-0.4c0,0-0.1,0.1-0.1,0.3c0,0.1,0,0.3,0,0.4c0.3,1,0.8,1.9,1.5,2.7
		c0.4,0.4,0.7,0.9,0.8,1.4l0,0c0,0.3,0.1,0.5,0.2,0.8l0,0c0.2,1.2,0.5,2.4,1,3.6c0.1,0.3,0.2,0.7,0.3,1.1c0,0.9,0.1,1.4,0.1,1.8
		c0.1,0.4,0.1,0.5,0.2,0.5s0.2-0.1,0.2-0.4c0.2-1.5,0.2-3,0-4.4c0-0.8-0.1-1.6-0.3-2.4c-0.1-0.3-0.2-0.7-0.4-0.9
		c-0.1-0.2-0.2-0.2-0.3-0.2c0,0.1,0,0.2,0,0.2c0.3,1,0.4,2,0.5,3c0,0.1,0,0.3-0.1,0.4L45.1,29.9z"/>
	<path class="st0" d="M43.6,24.3c-0.2-0.3-0.3-0.7-0.4-1L43,22.7c0-0.1-0.1-0.2-0.1-0.3c-0.1-0.1-0.2-0.2-0.4-0.2c0,0-0.1,0-0.1,0
		c0,0.1,0,0.1,0,0.2c0.1,0.8,0.5,1.6,1.1,2.2l0,0l0.1,0.1l0,0c0,0,0,0,0-0.1C43.6,24.4,43.6,24.3,43.6,24.3"/>
	<path class="st0" d="M41.1,29.8L41.1,29.8c0,0.1,0.1,0.3,0.1,0.4c0,0.1,0.1,0.2,0.2,0.3c0,0,0.1,0.1,0.2,0.1c0,0,0.1-0.1,0.1-0.1
		c0-0.1,0-0.2,0-0.3c0.1-1.5-0.3-3-1-4.3c-0.1-0.1-0.2-0.1-0.2-0.1s0,0,0,0.1c0,0.1,0,0.2,0,0.2c0.2,0.3,0.3,0.7,0.4,1.1
		c0,0.1,0,0.2,0,0.3l0,0l0,0c-0.1,0-0.2-0.1-0.3-0.3c-0.2-0.6-0.6-1.1-1.2-1.5c-0.6-0.4-1.2-0.8-1.8-1.4c-0.2-0.2-0.3-0.5-0.5-0.7
		c0,0,0-0.1-0.1-0.1c-0.1,0-0.2,0.1-0.3,0.3s0,0.1,0,0.2c0.3,0.7,0.8,1.2,1.5,1.6c0.9,0.4,1.6,1.1,2.1,2c0.4,0.9,0.6,1.6,0.8,2.1"/>
	<path class="st0" d="M37.9,23.3c-0.1,0-0.2,0-0.2,0.1l0,0c0.3,0.5,0.7,0.9,1.2,1.2H39l0,0c0,0,0,0-0.1-0.1
		c-0.3-0.3-0.6-0.7-0.8-1.1C38.1,23.3,38,23.2,37.9,23.3"/>
	<path class="st0" d="M35.8,25.7L35.8,25.7c0.2,0.1,0.5,0.2,0.7,0.3c0.2,0.1,0.4,0.2,0.6,0.4c0.5,0.5,0.9,1,1.3,1.5l0,0
		c0.3,0.4,0.6,0.8,1,1.2c0,0.1,0.1,0.1,0.2,0.1c0,0,0.1,0,0.1,0c0-0.1,0-0.2,0-0.2c-0.3-0.9-0.6-1.7-1-2.5c-0.1-0.2-0.3-0.2-0.5-0.2
		l0,0l0,0l0.2,0.4v0.1l0,0c0,0-0.1,0-0.1,0l0,0h-0.1l0,0l0,0c-0.2-0.3-0.4-0.5-0.7-0.8c-0.1-0.1-0.2-0.2-0.4-0.3l-0.9-0.3
		c-0.2-0.1-0.4-0.2-0.6-0.4c-0.2-0.2-0.4-0.4-0.7-0.6h-0.1c0,0-0.1,0-0.1,0c-0.1,0.1-0.1,0.2,0,0.3c0.2,0.3,0.4,0.5,0.7,0.7
		C35.5,25.5,35.6,25.5,35.8,25.7"/>
	<path class="st0" d="M44.4,35c-0.6-0.4-1.1-0.7-1.4-0.9c-2.4-1.8-4.9-3.6-7.4-5.4c0,0-0.1,0-0.1,0l0,0c0,0.2,0.1,0.4,0.2,0.5
		l7.8,5.7h0.1c0.1,0,0.2,0.1,0.3,0.2c0,0,0.1,0.2-0.1,0.4c-0.2,0.1-0.5,0.2-0.8,0.2c-0.5,0-1-0.2-1.3-0.5c-2.1-1.6-4.1-3.3-6.1-4.8
		c0,0-0.1,0-0.1,0l0,0c0,0.1,0,0.2,0,0.3c0,0.1,0.1,0.2,0.2,0.3c2,1.6,4,3.3,5.9,4.9c0.4,0.2,0.9,0.4,1.3,0.4c0.6,0,1.2-0.3,1.6-0.7
		C44.6,35.3,44.6,35.1,44.4,35C44.4,35,44.4,35,44.4,35"/>
	<path class="st0" d="M41.5,34.6c0.3,0.2,0.6,0.4,0.9,0.5h0.2h0.1c0,0,0-0.1-0.1-0.2l-7-5.4h-0.1l0,0c0,0.2,0.1,0.3,0.2,0.4
		L41.5,34.6z"/>
	<path class="st0" d="M39.8,34.9l-4.5-3.8c0,0-0.1,0-0.1,0l0,0c0,0,0,0.1,0.1,0.3c1.3,1.2,2.7,2.4,4.2,3.7c0.2,0.2,0.4,0.3,0.6,0.5
		c0.1,0.1,0.2,0.1,0.3,0.1c0.1,0,0.1,0,0.2-0.1c0-0.1,0,0,0-0.1L39.8,34.9z"/>
	<path class="st0" d="M36.3,25h0.1c0,0,0-0.1,0-0.1c0-0.1-0.1-0.2-0.2-0.3c-0.1-0.1-0.2-0.2-0.3-0.2h-0.3c0,0-0.1,0-0.1,0v0.1
		C35.8,24.7,36,24.9,36.3,25"/>
	<path class="st0" d="M40.6,36.5c0.2,0,0.5-0.1,0.7-0.2c0,0,0.1-0.1,0.1-0.1c0,0,0-0.1-0.1-0.1h-0.1H41h-0.1h-0.3
		c-0.4,0-0.8-0.1-1-0.4c-1.1-0.9-2-1.7-2.7-2.4l0,0c-0.6-0.5-1.1-1-1.7-1.5c0,0-0.1,0-0.1,0l0,0c0,0,0,0.1,0,0.1
		c0,0.1,0.1,0.1,0.1,0.2l0.3,0.3c1.4,1.3,2.6,2.4,3.9,3.6c0.3,0.3,0.6,0.5,0.9,0.7c0.2,0,0.4,0.1,0.6,0.1"/>
	<path class="st0" d="M34.5,32.1c1,1.1,2,2.2,3.2,3.3c0.2,0.2,0.5,0.4,0.8,0.5l0,0c0,0-0.1-0.1-0.1-0.1c-1-0.9-2.1-2-3.1-3
		c-0.1-0.1-0.1-0.1-0.2-0.2v-0.1c-0.2-0.2-0.4-0.4-0.6-0.6h-0.1C34.5,32,34.5,32.1,34.5,32.1"/>
	<path class="st0" d="M39,36.8c0.1,0,0.2,0,0.3,0c0,0,0-0.1,0-0.1c0-0.1-0.1-0.2-0.2-0.1c-0.5,0-0.9-0.2-1.3-0.5
		c-1.2-1.1-2.4-2.3-3.5-3.4c0,0-0.1-0.1-0.1-0.1l0,0c0,0.1,0,0.2,0,0.3c0,0.1,0.1,0.1,0.2,0.2l0,0c0.7,0.7,1.5,1.6,2.7,2.7
		c0.3,0.3,0.7,0.6,1.1,0.8c0.3,0.1,0.6,0.2,0.8,0.2"/>
	<path class="st0" d="M37.3,36.3L37.3,36.3c0-0.1-0.1-0.2-0.2-0.2c-0.5-0.1-1.3-0.9-2-1.8l-0.3-0.6h-0.1v0.1c0,0,0,0.1,0,0.1
		l1.6,1.9C36.5,36.2,36.9,36.3,37.3,36.3L37.3,36.3z"/>
	<path class="st0" d="M17.1,16.6L17.1,16.6c0.1,0,0.1,0,0.2,0c0.1,0,0.2,0,0.2,0c0,0,0.1,0,0.1,0c0.1,0,0.1,0,0.2,0
		c0.2-0.2,0.4-0.4,0.6-0.5c0.1,0,0.2,0,0.3,0c0.2,0,0.5,0.1,0.6,0.2c0.1,0.1,0.1,0.2,0.1,0.3c0,0.1-0.1,0.1-0.2,0.1h-0.2
		c-0.2,0-0.4,0-0.6,0.1c-0.5,0.1-0.9,0.6-0.8,1.2l0,0c0,0.1,0,0.4-0.2,0.4c-0.1,0-0.2-0.1-0.3-0.1c-0.2-0.2-0.4-0.5-0.4-0.8
		C16.7,17.1,16.9,16.8,17.1,16.6 M16.4,17.2c-0.2,0.2-0.2,0.5-0.1,0.8c0.3,0.7,1,1.2,1.7,1.1l0,0c0.2,0,0.4,0,0.4-0.1
		c0-0.1,0-0.2-0.1-0.2c-0.4-0.2-0.5-0.7-0.4-1.1c0.2-0.4,0.6-0.7,1.1-0.7c0.1,0,0.2,0,0.3,0c0.2,0,0.4-0.1,0.6-0.2
		c0.2-0.2,0.6-0.4,0.9-0.4c0.1,0,0.3,0,0.4,0.1l0,0c0.1,0.1,0.1,0.3,0,0.4c0,0,0,0,0,0c-0.1,0.1-0.2,0.2-0.4,0.2
		c-0.3,0.1-0.5,0.2-0.7,0.3c0,0,0,0.1,0,0.1c0,0,0,0,0.2,0h0.3h0.3c0.5-0.2,0.9-0.5,1.3-0.9c0.1-0.1,0.1-0.2,0-0.4
		c-0.3-0.3-0.7-0.5-1.2-0.5c-0.2,0-0.3,0-0.5,0c-0.2,0.1-0.4,0.1-0.7,0.1c-0.2,0-0.3,0-0.5,0l-0.9-0.3c-0.1-0.1-0.3-0.1-0.4-0.1
		c-0.1,0-0.3,0.1-0.4,0.1l0,0l0.1,0.1c0.1,0.1,0.1,0.2,0.1,0.2c0,0.1-0.2,0.1-0.3,0.1h-0.2c-0.1,0-0.2,0-0.3,0.1
		c-0.3,0.2-0.5,0.5-0.6,0.8"/>
	<path class="st0" d="M18.1,15c0.2,0.1,0.4,0.2,0.7,0.3h0.1c0.1,0,0.1,0,0.2-0.1c0.1-0.2,0.2-0.4,0.2-0.6c0.1-0.3,0.2-0.6,0.4-0.8
		l0.1-0.1c0.1-0.1,0.2-0.3,0.3-0.5c0.1-0.3,0-0.6-0.2-0.8v0.2c-0.1,0.6-0.4,1.1-0.9,1.4L18.7,14c-0.2,0.1-0.4,0.3-0.5,0.4
		c-0.1,0.1-0.2,0.2-0.2,0.4C18,14.9,18,15,18.1,15"/>
	<path class="st0" d="M19.8,14.1C19.7,14.1,19.6,14.1,19.8,14.1c0.2,0.7,0.1,0.9-0.4,1.1c-0.2,0-0.1,0.2,0.1,0.2c0,0,0.1,0,0.1,0
		c0.4-0.1,0.6-0.5,0.5-0.9c0-0.1,0-0.1-0.1-0.2C19.9,14.2,19.8,14.1,19.8,14.1"/>
	<path class="st0" d="M20.5,13c0.1,0,0.1-0.1,0.2-0.3c0-0.1,0-0.4,0.2-0.5c0.2,0,0.1,0.2,0.2,0.2c0.1,0,0.1,0,0.1-0.1
		c0-0.3-0.1-0.6-0.3-0.8l0,0c0,0,0,0,0,0.1C20.7,12.1,20.6,12.5,20.5,13C20.5,13,20.5,13.1,20.5,13"/>
	<path class="st0" d="M20.4,13.9L20.4,13.9c1.3-0.6,1.6-1.4,1.6-1.8c0.1-0.4,0-0.7-0.3-1l0,0c0.2,0.6,0,1.2-0.3,1.7
		c-0.3,0.2-0.6,0.5-0.9,0.7l-0.1,0.1c0,0-0.1,0.1,0,0.1C20.3,13.8,20.4,13.9,20.4,13.9"/>
	<path class="st0" d="M22,13.9c-0.3,0.2-0.6,0.4-1,0.6c-0.2,0.1-0.4,0.2-0.5,0.3c0,0,0,0.1,0,0.1h0c0.7-0.2,1.3-0.6,1.8-1
		c0.4-0.3,0.5-0.6,0.3-0.9c0,0-0.1,0-0.1,0c0,0-0.1,0-0.1,0c-0.3,0.3-1.6,1-1.8,1.1c-0.2,0.2-0.1,0.1-0.1,0.1c0,0,0.1,0,0.1,0
		c0,0,0,0,0,0c0.2,0,1-0.6,1.2-0.7c0.2-0.1,0.3-0.1,0.3,0S22.2,13.8,22,13.9"/>
	<path class="st0" d="M20.3,15.7c0.1,0,0.3,0,0.4-0.1c0.6-0.3,1.2-0.6,1.8-0.8c0.1,0,0.2,0,0.2,0c0.1,0.1,0.2,0.2,0.1,0.3
		c0,0,0,0.1-0.1,0.1l-0.8,0.3l0,0c0,0,0,0,0.3,0l0,0c0.8-0.2,1.1-0.5,1-0.9c-0.1-0.2-0.2-0.2-0.4-0.2c-0.2,0-0.4,0-0.7,0.1
		c-0.4,0.2-0.9,0.5-1.3,0.6c-0.2,0.1-0.3,0.1-0.4,0.2c0,0-0.3,0.3,0,0.2"/>
	<path class="st0" d="M22.7,12.2c0.2-0.2,0.4-0.7,0.6-0.4c0.1,0.3,0,0.6-0.1,0.8c-0.1,0.1,0,0.2,0.1,0.3l0,0c0,0,0,0,0.1,0
		c0.2-0.3,0.3-0.8,0.2-1.2c0-0.2-0.1-0.4-0.3-0.6h-0.1c-0.1,0-0.1,0-0.1,0.1l-0.1,0.4c0,0.2-0.1,0.3-0.2,0.4
		c-0.1,0.1-0.2,0.2-0.2,0.3c0,0.1,0,0,0.2,0"/>
	<path class="st0" d="M23.8,12.8c0.4,0.1,0.8,0.3,1.1,0.5c0.1,0,0.2,0.1,0.2,0.1c0.3,0.2,0.6,0.3,0.9,0.5h0.1c0,0,0.1,0,0.1-0.1l0,0
		c0.3-0.3,0.4-0.6,0.5-0.9l0,0l0,0c-0.1,0-0.2,0-0.4,0c-0.1,0-0.3,0-0.4,0c-0.6-0.4-1.3-0.6-2-0.6H24l0,0l0,0v0.1l0,0
		c0.7,0.1,1.4,0.4,2.1,0.8l0,0c0,0,0.2,0.1,0.2,0.2l0,0c-0.1,0-0.1,0-0.2,0H26h-0.1c-0.6-0.3-1.3-0.6-2-0.8l0,0c0,0-0.1,0-0.1,0
		c0,0.1,0,0.1,0.1,0.1"/>
	<path class="st0" d="M23,16.4c-0.1,0-0.2-0.2-0.3-0.4l0,0h-0.1c0,0,0,0.1,0,0.1c0,0.2,0.2,0.4,0.4,0.6c0.1,0,0.1,0,0.2,0
		c0.2,0,0.3-0.1,0.3-0.3c0-0.3-0.1-0.6-0.4-0.8l0,0c0.1,0.2,0.1,0.4,0.1,0.5c0,0.1-0.1,0.1-0.1,0.1"/>
	<path class="st0" d="M24.1,15.9c-0.2,0-0.4-0.4-0.5-0.6h-0.1l0,0c0,0.1,0,0.1,0,0.2c0.1,0.3,0.2,0.6,0.4,0.8
		c0.1,0.1,0.2,0.1,0.3,0.1c0.3,0,0.5-0.2,0.7-0.4c0.1-0.1,0.1-0.3,0-0.5c-0.4-0.4-0.8-0.7-1.4-0.9l0,0c0.1,0.1,0.3,0.2,0.5,0.3l0,0
		c0.2,0.1,0.4,0.3,0.6,0.5c0,0.1,0,0.2,0,0.3C24.4,15.8,24.3,15.8,24.1,15.9"/>
	<path class="st0" d="M23.2,14L23.2,14c0.6,0.4,1.3,0.8,2,1.1c0.1,0,0.2,0.1,0.3,0.1c0.1,0,0.2,0,0.2-0.1c0.2-0.2,0.3-0.5,0.1-0.7
		c-0.6-0.6-1.4-1.1-2.3-1.2l0,0l0,0c0,0,0.1,0.1,0.1,0.1c0.6,0.2,1.1,0.5,1.6,0.9l0,0c0.1,0.1,0.2,0.2,0.2,0.3
		c0,0.1-0.1,0.2-0.2,0.2h-0.1c-0.2,0-0.4-0.1-0.6-0.2h-0.1l0,0C24.1,14.2,23.7,14,23.2,14L23.2,14z"/>
	<path class="st0" d="M39.7,12.7c0,0,0,0.1,0.1,0.2c3,2.3,5.3,5.3,6.7,8.7c0.1,0.1,0.1,0.2,0,0.3c0,0-0.1,0.1-0.2,0.1
		c-0.2,0-0.4-0.1-0.5-0.2c-0.6-0.4-1.2-1-1.6-1.6c-1.7-2.6-3.8-4.8-6.2-6.6c0,0-0.1,0-0.1,0l0,0c0,0.2,0,0.3,0.2,0.4
		c2.5,2,4.7,4.4,6.3,7.2c0.7,1.1,2,1.7,3.3,1.6H48c0.2,0,0.3-0.1,0.3-0.1s0-0.1-0.1-0.1c-0.6-0.4-1-1.1-1.3-1.8
		c-1.5-3.2-3.8-6-6.8-8.1c-0.1,0-0.1,0-0.2,0C39.9,12.7,39.8,12.7,39.7,12.7"/>
	<path class="st0" d="M45.3,21.1c0.1,0.1,0.2,0.1,0.3,0.1c0,0,0.1,0,0.1,0c0-0.2,0-0.3-0.1-0.5c-1.6-3-3.9-5.5-6.6-7.5
		c-0.1,0-0.2,0-0.3,0c-0.1,0-0.1,0-0.2,0c0,0,0,0.1,0.2,0.2C41.4,15.6,43.6,18.2,45.3,21.1"/>
	<path class="st0" d="M42.6,21.1c-0.2,0-0.3-0.1-0.4-0.3c-1.3-1.8-2.8-3.4-4.4-4.8l0,0l0,0c-0.1,0.2-0.1,0.4,0,0.6
		c1.1,1,2.1,2,3,3.2l0,0c0.5,0.6,1.1,1.2,1.7,1.8c0.2,0.1,0.4,0.2,0.6,0.2c0.2,0,0.4-0.1,0.5-0.2c0.1-0.1,0.1-0.3,0-0.5
		c-1.4-2.5-3.3-4.7-5.6-6.3c0,0-0.1,0-0.1,0l0,0c0,0.2,0,0.4,0.2,0.6c1.8,1.6,3.4,3.3,4.8,5.3c0.1,0.1,0.1,0.3,0,0.4
		C42.7,21,42.6,21.1,42.6,21.1"/>
	<path class="st0" d="M37.2,17.1L37.2,17.1c-0.1,0.1-0.1,0.2,0,0.3c1.2,1,2.3,2.2,3.2,3.4c0.1,0.1,0.2,0.3,0.1,0.5
		c-0.1,0.3-0.4,0.4-0.7,0.2c0,0-0.1-0.1-0.1-0.1c-0.7-0.6-1.5-1.4-2.1-2.1c-0.3-0.3-0.6-0.6-0.9-0.9h-0.1l0,0
		c-0.1,0.1-0.1,0.2,0,0.4l2.2,2.3c0.3,0.3,0.7,0.6,1.1,0.8h0.5c0.3,0,0.5-0.1,0.7-0.3c0.1-0.2,0.1-0.5,0-0.8
		C40.1,19.4,38.8,18,37.2,17.1L37.2,17.1z"/>
	<path class="st0" d="M36.7,17.6c0,0.1,0,0.2,0,0.2c1,1.1,2,2,3.1,3h0.1l0,0c0,0,0-0.1,0-0.1C38.9,19.6,37.9,18.5,36.7,17.6
		L36.7,17.6z"/>
	<path class="st0" d="M36.4,19.4c0,0-0.1,0-0.1,0c-0.1,0-0.1,0-0.1,0.1c0,0.1,0,0.2,0.1,0.2c0.7,0.6,1.3,1.2,1.8,2
		c0.1,0.1,0.1,0.3,0,0.5c-0.1,0.1-0.3,0.2-0.4,0.2c-0.1,0-0.3,0-0.4-0.1c-0.6-0.4-1.2-0.9-1.8-1.5l-0.1-0.1c0,0,0,0-0.1,0.1
		c-0.1,0.1-0.1,0.2,0,0.3c0.5,0.7,1.2,1.3,2,1.8c0.2,0.1,0.5,0.1,0.7,0.1c0.2,0,0.4-0.1,0.6-0.2c0.1-0.3,0.1-0.6,0-0.9
		C37.9,20.9,37.1,20.1,36.4,19.4"/>
	<path class="st0" d="M35.6,20.2l1.8,1.7h0.1h0.1l0,0c-0.5-0.8-1.2-1.5-2.1-2c0,0.1,0,0.3,0.1,0.4"/>
	<path class="st0" d="M35.4,23.9c0.4,0,0.7-0.2,0.9-0.5c0.1-0.2,0.1-0.4,0-0.6c-0.4-0.6-0.9-1.1-1.5-1.6l0,0c0,0-0.1,0-0.1,0.1
		c0,0.1,0,0.1,0,0.2c0.4,0.4,0.8,0.8,1.1,1.3c0.1,0.2,0.1,0.3,0,0.5c-0.1,0.2-0.3,0.2-0.5,0.2c-0.1,0-0.2,0-0.4,0
		c-0.4-0.3-0.8-0.6-1.1-1l0,0c0,0-0.1,0-0.1,0.1c0,0.1,0,0.1,0,0.2c0.4,0.5,0.8,0.9,1.4,1.2C35.2,23.9,35.4,23.9,35.4,23.9"/>
	<path class="st0" d="M34.9,22.8c0.1,0,0.1,0.1,0.2,0.1c0.1,0,0.1,0,0.2-0.1c0-0.1,0-0.2-0.1-0.3c-0.3-0.3-0.6-0.6-0.9-0.8h-0.1
		c-0.1,0-0.2,0.1-0.2,0.2c0,0,0,0,0,0c0,0.1,0,0.1,0.1,0.2C34.4,22.4,34.7,22.6,34.9,22.8"/>
	<path class="st0" d="M34.2,23.8l-0.8-1h-0.1c0,0-0.1,0-0.1,0c0,0.1,0,0.1,0,0.2l0.5,0.6c0.1,0.1,0.1,0.2,0.1,0.3
		c0,0.2-0.2,0.4-0.4,0.5l0,0c-0.1,0.1-0.2,0.2-0.3,0.3c0,0.1,0,0.1,0,0.2c0,0,0.1,0.1,0.1,0.1h0.1l0.7-0.6
		C34.3,24.3,34.3,24,34.2,23.8"/>
	<path class="st0" d="M33.1,24.1L33.1,24.1L33.1,24.1c0.1,0,0.1-0.1,0.1-0.1l-0.4-0.7h-0.1c-0.1,0-0.1,0-0.1,0.1v0L33.1,24.1z"/>
	<path class="st0" d="M33.2,11.8c0.1,0.1,0.2,0.3,0.4,0.4c1.1,0.4,2.2,0.9,3.1,1.6c0.1,0.1,0.1,0.2,0.1,0.4c0,0.1-0.2,0.2-0.3,0.2
		c-0.1,0-0.2,0-0.3-0.1c-0.8-0.6-1.6-1-2.6-1.4l0,0c0,0.1,0.1,0.2,0.2,0.3c1,0.4,1.9,1,2.7,1.6c0.1,0.1,0.2,0.1,0.4,0.1
		c0.1,0,0.2-0.1,0.3-0.2c0.2-0.5,0-1-0.7-1.5C35.5,12.5,34.4,12,33.2,11.8L33.2,11.8z"/>
	<path class="st0" d="M33.9,13.7L33.9,13.7c0,0.1,0,0.2,0.1,0.3c0.2,0.1,0.5,0.3,0.9,0.5c0.6,0.3,1.1,0.6,1.6,1.1
		c0.1,0.2,0.1,0.4,0,0.6c-0.1,0.1-0.2,0.2-0.3,0.2c-0.1,0-0.2,0-0.3-0.1l-1.6-0.9l0,0c0,0.2,0.1,0.4,0.2,0.5
		c0.4,0.3,0.7,0.6,1.1,0.8h0.1c0.2,0.1,0.4,0.2,0.6,0.3c0.1,0,0.2,0,0.3-0.1c0.3-0.4,0.4-0.9,0.3-1.4C36,14.7,35,14.1,33.9,13.7"/>
	<path class="st0" d="M35.7,16h0.1c0.1,0,0.2,0,0.2-0.1c-0.6-0.5-1.2-0.9-1.9-1.2c0,0.1,0,0.1,0.1,0.2C34.6,15.3,35.1,15.7,35.7,16"
		/>
	<path class="st0" d="M34.2,18.4l1,0.7c0.1,0.1,0.2,0.1,0.3,0.1c0.1,0,0.2,0,0.2-0.1c0.2-0.2,0.4-0.4,0.4-0.6c0.1-0.3,0-0.7-0.3-0.9
		l-1.3-0.9l0,0l0,0c0,0.1,0,0.2,0,0.3c0.4,0.3,0.7,0.6,1,0.9c0.1,0.2,0.2,0.4,0.1,0.5c0,0.1-0.2,0.2-0.3,0.2c-0.1,0-0.2,0-0.3-0.1
		l-0.8-0.5c0,0-0.1,0.1-0.1,0.1C34.2,18.1,34.2,18.3,34.2,18.4"/>
	<path class="st0" d="M35,18c0.1,0,0.1,0,0.1-0.1c0-0.1,0-0.1,0-0.2l-0.6-0.4h-0.1v0.1L35,18L35,18z"/>
	<path class="st0" d="M33,20.1c0,0.1,0,0.2,0,0.2l0.9,0.7c0.1,0,0.1,0,0.2,0c0.2,0,0.3-0.1,0.4-0.2l0.1-0.2c0.3-0.4,0.4-0.7,0.1-1.1
		c-0.2-0.3-0.6-0.6-0.9-0.8c0,0,0,0-0.1,0.1c0,0.1,0,0.2,0,0.3l0.5,0.5c0.1,0.2,0.1,0.4,0,0.5c-0.1,0.2-0.2,0.3-0.4,0.3
		c-0.1,0-0.2,0-0.2,0L33.2,20L33,20.1C33.1,20,33,20,33,20.1"/>
	<path class="st0" d="M33.4,19.5c0,0.1,0,0.1,0,0.2l0.3,0.3h0.1c0,0,0.1,0,0.1-0.1c0-0.1,0-0.1,0-0.2l-0.3-0.3l0,0
		C33.5,19.4,33.5,19.5,33.4,19.5"/>
	<path class="st0" d="M31.6,21.4c0,0-0.1,0-0.1,0.1c0,0.1,0,0.2,0,0.3l0.7,0.8c0.1,0.1,0.2,0.1,0.3,0.1c0.4-0.1,0.7-0.3,0.8-0.7
		c0.1-0.2,0.2-0.5,0.1-0.7c-0.2-0.3-0.5-0.6-0.8-0.9l0,0c0,0,0,0-0.1,0.1c-0.1,0.1-0.1,0.2,0,0.3l0.3,0.4c0.1,0.2,0.1,0.4,0,0.6
		c-0.1,0.1-0.2,0.2-0.4,0.3c-0.1,0-0.2,0-0.3-0.1l-0.4-0.5L31.6,21.4z"/>
	<path class="st0" d="M32.4,21.7c0.1,0,0.1,0,0.1-0.1c0,0,0-0.1,0-0.1L32.2,21l0,0c0,0-0.1,0-0.1,0.1c0,0,0,0.1,0,0.1L32.4,21.7
		L32.4,21.7z"/>
	<path class="st0" d="M33.8,31.3c0,0.1,0,0.3,0.2,0.2c0.1,0,0.2-0.1,0.3-0.2c0.8-1,0.5-4.3-0.5-5.9h-0.1c-0.1,0-0.1,0-0.1,0.1
		c0,0.1,0,0.2,0,0.3c0.7,1.3,1,2.8,0.8,4.3c0,0.1-0.1,0.3-0.2,0.3c-0.1,0-0.2,0-0.3-0.4c-0.1-1.2-0.5-2.3-1.2-3.3
		c-0.1,0.2-0.1,0.4,0,0.6C33.4,28.6,33.7,30,33.8,31.3"/>
	<path class="st0" d="M33.1,25.8L33.1,25.8c-0.1,0.1-0.1,0.3,0,0.4c0.5,0.8,0.8,1.7,1,2.7l0,0l0,0C34,27.9,33.7,26.8,33.1,25.8
		L33.1,25.8z"/>
	<path class="st0" d="M28.2,10.9l0.4,0.2c0.2,0.1,0.5,0.3,0.7,0.4c1.1,0.6,1.8,1.7,1.9,2.9v0.2c0.4,1.7,0.6,2.8-1.1,4.1
		c-0.1,0.1-0.1,0.3,0,0.4c0,0.1,0.1,0.1,0.2,0.1l0,0c0.6-0.3,1-0.7,1.3-1.3c1-1.4-0.1-4.4-0.5-5.4c-0.3-0.7-0.8-1.2-1.5-1.5
		l-1.9-0.9c-0.2-0.1-0.3-0.4-0.3-0.6c0-0.2,0.2-0.3,0.4-0.4C28.2,9.1,28.5,9,28.7,9h0.7c3.1,0.2,6.1,1.2,8.6,2.9l0,0
		c0.1,0.1,0.1,0.2,0.1,0.4c-0.1,0.1-0.3,0.2-0.7,0.2c-0.2,0-0.4-0.1-0.5-0.2l-0.2-0.4c0,0,0-0.1-0.1-0.1s0,0-0.1,0.1l-0.1,0.5
		c0,0.1,0,0.1,0.1,0.1c0.4,0.1,0.8,0.2,1.2,0.2c0.7,0,1.4-0.3,1.9-0.7c0.1-0.1,0.1-0.2,0.1-0.3c0-0.1-0.1-0.1-0.3-0.1h-0.2
		c-0.6,0-1.2-0.2-1.8-0.5c-2.8-1.6-6-2.5-9.2-2.4c-0.3,0-0.6,0-0.8,0.2c-0.3,0.1-0.5,0.4-0.5,0.7c0,0.3,0,0.6,0.2,0.8
		C27.5,10.6,27.8,10.8,28.2,10.9"/>
	<path class="st0" d="M13.9,17.4c0.1,0.4,0.4,0.7,0.6,0.7h1.2c0.1,0,0.2-0.1,0.2-0.3c0-0.1-0.1-0.2-0.1-0.2h-1
		c-0.4,0-0.5-0.5-0.7-1.1c-0.2-0.9,0.1-1.9,0.8-2.6l0.1-0.1h-0.1c-0.1,0-0.1-0.1-0.1-0.1c0-0.1,0-0.2,0.1-0.2l0.2-0.1l0,0H15l0,0
		c-0.6,0.4-1.1,0.8-1.5,1.3c-0.2,0.2-0.2,0.5-0.1,0.8L13.9,17.4z"/>
	<path class="st0" d="M16.4,16.4L16.4,16.4c-0.2,0.1-0.4,0.1-0.6,0.1c-0.3,0-0.6-0.1-0.8-0.3h-0.1l0,0c0,0.1,0,0.1,0,0.2
		c0.2,0.2,0.5,0.4,0.8,0.4c0.3,0,0.5-0.1,0.8-0.3C16.5,16.5,16.5,16.4,16.4,16.4"/>
	<path class="st0" d="M14.6,15.2c0,0.1,0,0.3,0,0.4c0.1,0.1,0.1,0.1,0.2,0.2h0.2c0.7-0.1,1.3-0.4,1.8-0.9v-0.1l0,0
		c-0.5,0.3-1,0.5-1.6,0.5c-0.1,0-0.2-0.1-0.2-0.1c0-0.1,0-0.3,0.1-0.5c0.2-0.2,0.4-0.4,0.6-0.6c0,0,0-0.1,0-0.2c0-0.1,0-0.1,0-0.2
		c0-0.1,0-0.1,0-0.2c0-0.1,0-0.2,0.1-0.3c0.1-0.1,0.2-0.2,0.3-0.3c0.1,0,0.1-0.1,0.1-0.2c0-0.1-0.2-0.2-0.3-0.2
		c-0.4,0.1-0.5,0.3-0.4,0.6c0.1,0.3,0,0.6-0.2,0.8C15.1,14.3,14.8,14.7,14.6,15.2"/>
	<path class="st0" d="M16.1,13.5c0,0.1,0,0.1,0,0.2c0.2,0.2,0.2,0.5,0.1,0.8l0,0c0.1-0.1,0.2-0.3,0.3-0.4c0-0.2,0-0.4-0.1-0.5
		c0,0-0.1-0.1-0.2-0.1C16.1,13.4,16.1,13.4,16.1,13.5"/>
	<path class="st0" d="M25.7,44c0.5,0.5,0.9,1.1,1,1.8c0.3,0.9,0.7,1.9,1.4,2.1c0.1,0,0.2,0,0.3,0l0,0c0,0-0.1-0.1-0.1-0.1
		c-0.4-0.1-0.7-0.9-0.9-1.7c-0.3-0.8-0.7-2.1-1.5-2.3h-0.2c-0.1,0-0.1,0-0.2,0c0,0,0,0,0.1,0.2"/>
	<path class="st0" d="M27,43.8c-0.1,0-0.1,0-0.2,0l0.1,0.1c0.5,0.3,0.8,1.1,1.1,1.9s0.8,2.1,1.5,2.1l0,0h0.2l0,0
		c-0.4-0.2-0.7-0.9-1-1.7C28.3,45.1,27.8,44,27,43.8"/>
	<path class="st0" d="M29.4,46.1L29.4,46.1c0.3,0.8,0.7,1.8,1.5,1.8h0.1c-0.5-0.4-0.8-1-1-1.6c-0.2-0.6-0.4-1.2-1-1.3h-0.2V45
		C29,45.2,29.2,45.5,29.4,46.1"/>
	<path class="st0" d="M27,43.3h0.3c0.1,0,0.2-0.1,0.2-0.2c0-0.1-0.1-0.2-0.2-0.2h-0.5c-0.4,0-0.7,0-1.1-0.1h-0.1c-0.1,0-0.1,0-0.2,0
		c-0.1,0-0.2,0-0.2,0.1c-0.1,0.1-0.1,0.2,0,0.3c0.2,0.3,0.6,0.4,1.3,0.4H27"/>
	<path class="st0" d="M33.9,43.2c-0.1-0.4-0.5-0.6-0.9-0.5c-0.5,0-1,0.4-1,0.9c0,0,0,0,0,0c0,0.1,0,0.1,0,0.2c0.1,0,0.1,0.1,0.2,0.1
		c0.1,0,0.2-0.1,0.2-0.1c0-0.4,0.3-0.5,0.4-0.5c0.2,0,0.4,0.1,0.4,0.3c0,0.2,0,0.3-0.2,0.4c-0.3,0.1-0.4,0.4-0.2,0.7c0,0,0,0,0,0
		c0.3,0.5,0.3,1.2,0,1.7c-0.1,0.3,0,0.6,0.2,0.7c0,0,0.1,0,0.1,0l0,0c0.1,0.1,0.1,0.2,0,0.3c-0.1,0.1-0.2,0.2-0.4,0.2
		c-0.2,0-0.4-0.1-0.4-0.3c0-0.1-0.1-0.1-0.1-0.2c-0.1,0-0.1,0-0.2,0.1c0,0.1,0,0.1,0,0.2c0.3,0.5,0.6,0.8,1,0.8
		c0.2,0,0.4-0.1,0.6-0.1c0.2-0.1,0.3-0.3,0.3-0.5c0-0.2,0-0.4-0.2-0.6c-0.2-0.1-0.3-0.4-0.1-0.8c0.2-0.4,0.2-0.9,0-1.4
		c-0.1-0.3-0.1-0.6,0.1-0.8C34,43.8,34,43.5,33.9,43.2"/>
	<path class="st0" d="M25,47c0-0.1-0.1-0.2-0.3-0.2h-0.1l-0.2,0.4c-0.1,0.2-0.3,0.2-0.5,0.1c0,0-0.1-0.1-0.1-0.1
		c-0.1-0.1-0.1-0.2,0-0.3c0-0.2,0.1-0.3,0.3-0.4c0.1-0.2,0.1-0.4,0-0.6c-0.2-0.4-0.2-0.9-0.1-1.3l0.1-0.6c0.1-0.2,0-0.4-0.2-0.5
		c-0.2-0.1-0.2-0.3-0.2-0.5c0-0.2,0.2-0.3,0.3-0.3c0,0,0.1,0,0.1,0c0.1,0.1,0.2,0.2,0.3,0.3v0.1c0.1,0.1,0.2,0.2,0.3,0.2
		c0,0,0.1,0,0.1,0c0-0.1,0-0.2,0-0.3c-0.1-0.4-0.5-0.7-1-0.7c-0.2,0-0.4,0.1-0.6,0.2c-0.1,0.2-0.2,0.4-0.2,0.6
		c0,0.2,0.1,0.4,0.2,0.5l0,0c0.2,0.3,0.2,0.6,0,0.8c-0.2,0.4-0.2,0.8,0,1.2c0.1,0.3,0.1,0.7,0,1l-0.1,0.1c-0.1,0.2-0.2,0.4-0.1,0.6
		c0.1,0.4,0.4,0.6,0.8,0.6c0.2,0,0.4-0.1,0.6-0.2C24.8,47.5,25,47.2,25,47"/>
	<path class="st0" d="M31.9,48.2c-0.1,0-0.2,0-0.3,0.1c-0.2,0.1-0.3,0.2-0.5,0.1h-0.1c-1.8,0-3.5,0-5.3-0.1c-0.2,0-0.4-0.1-0.5-0.1
		c-0.1-0.1-0.2-0.1-0.4-0.1c-0.1,0-0.1,0-0.2,0c0,0.1,0,0.2,0,0.3c0.4,0.5,3.3,0.5,4.4,0.4h2.1c0.4,0,0.7-0.1,1-0.3
		c0.1,0,0.1-0.1,0.1-0.2C32.2,48.2,32.1,48.1,31.9,48.2"/>
	<path class="st0" d="M25.6,11.7c1.7,0.4,2.9,0.9,3.2,2.3c0,0.4,0.1,0.8,0.3,1.1l0,0v-0.1c0.2-1.1-0.4-2.2-1.3-2.8
		c-0.6-0.4-1.3-0.7-2-0.8c-0.4,0-0.6-0.4-0.6-0.8c0-0.5,0.4-0.9,0.8-0.9h0.1c0.1,0,0.2,0,0.2-0.1c0-0.1,0,0-0.1,0H26
		c-0.6,0-1.1,0.1-1.2,1C24.7,11.3,25,11.6,25.6,11.7"/>
	<path class="st0" d="M25.9,10.2L25.9,10.2c0.3,0,0.4,0.1,0.4,0.2s-0.1,0.2-0.4,0.3l0,0h0.1h0.3c0.2,0,0.4,0,0.5-0.2
		c0-0.1,0-0.2,0-0.2c-0.1-0.2-0.3-0.3-0.5-0.2c-0.1,0-0.2,0-0.3,0"/>
	<path class="st0" d="M28.2,11.8c0.1,0,0.2,0,0.3,0c0.1,0,0.2,0,0.2,0l0,0c-0.5-0.5-1.2-0.7-1.8-0.5C26.7,11.4,28,11.3,28.2,11.8"/>
	<path class="st0" d="M28.5,14.5c-0.3-0.5-0.7-0.9-1.2-1.2c-0.1,0-0.1,0-0.1,0.1c0.7,0.6,1.3,1.4,1.5,2.4c0,0.2,0,0.4-0.1,0.5l0,0
		l-0.2,0.2c0,0.1,0,0.2,0,0.2c0,0.1,0.1,0.1,0.2,0.1l0,0l0.8-0.6c0.1-0.1,0.1-0.1,0.1-0.2c0,0,0,0,0,0c-0.4-0.4-0.8-0.8-0.9-1.4"/>
	<path class="st0" d="M26.2,15.1L26.2,15.1c0,0,0,0.1,0,0.1c0.2,0.8,0.2,1.5,0.2,2.3c0,0,0,0.1,0,0.1c0.1,0.1,0.2,0.1,0.3,0.1
		c0.3-0.1,0.6-0.2,0.8-0.4c0.2-0.1,0.3-0.4,0.3-0.6c-0.1-0.9-0.4-1.8-1-2.6c0,0,0,0-0.1,0l0,0c0,0.1,0,0.1,0,0.2
		c0.7,1.3,0.9,2,0.6,2.6c-0.1,0.1-0.3,0.2-0.4,0.2c-0.1,0-0.2,0-0.3-0.3C26.5,16.3,26.4,15.7,26.2,15.1L26.2,15.1z"/>
	<path class="st0" d="M27.1,16.5c0-0.1,0-0.1,0-0.2c-0.1-0.6-0.4-1.2-0.7-1.8l0,0l0,0c0.2,0.6,0.4,1.3,0.5,2
		C26.9,16.5,27.1,16.7,27.1,16.5"/>
	<path class="st0" d="M28.1,16c0.1,0.2,0.2-0.1,0.2-0.1c-0.2-0.8-1-2-1.2-1.9C27.6,14.6,27.9,15.3,28.1,16"/>
	<path class="st0" d="M24.6,17.5l0.1-1c0,0,0-0.1,0-0.1c0,0,0,0-0.1,0.1s-0.5,1.3-0.3,1.7c0,0.1,0.1,0.1,0.2,0.1h0.3
		c0.3,0,0.6-0.1,0.8-0.3c0.4-0.4,0.3-1.3,0.3-2.2v-0.2c0-0.2-0.1-0.2-0.1-0.2h-0.1c0,0.1,0,0.2,0,0.2c0,0.6-0.1,1.2-0.3,1.8
		c-0.1,0.2-0.3,0.3-0.5,0.4C24.7,17.8,24.6,17.7,24.6,17.5"/>
	<path class="st0" d="M25.2,17.1c0-0.3,0-0.7,0-1l0,0c0,0-0.1,0-0.1,0.1c0,0.3,0,0.7-0.1,1c0,0,0,0.1,0,0.1l0,0
		C25.1,17.3,25.1,17.3,25.2,17.1"/>
	<path class="st0" d="M24.7,14.3c0,0,0.1,0,0.1,0l0,0c0-0.1,0-0.2-0.1-0.2c-0.3-0.1-0.9-0.4-1.2-0.5l0,0c0,0,0,0.1,0,0.1
		C23.9,13.9,24.3,14.1,24.7,14.3"/>
	<path class="st0" d="M22.5,18.3c0.1,0.1,0.3,0.2,0.5,0.2c0.4,0,0.7-0.2,0.8-0.6l0.3-1.1c0,0,0-0.1,0-0.1H24c-0.1,0-0.2,0.1-0.3,0.3
		c-0.1,0.4-0.2,0.7-0.4,1c0,0.1-0.1,0.1-0.2,0.1c-0.1,0-0.1,0-0.2-0.1c0-0.1,0-0.1,0-0.2c0.1-0.2,0.2-0.3,0.2-0.5c0,0,0-0.1,0-0.1
		l0,0l-0.1,0.1c-0.1,0.3-0.3,0.5-0.5,0.8C22.5,18.2,22.4,18.3,22.5,18.3"/>
	<path class="st0" d="M19.5,17.2c-0.1,0-0.2,0-0.3,0c-0.1,0-0.2,0-0.2,0.1c0,0.1,0,0.1,0,0.1c1,0.6,1.4,1.9,0.9,3c0,0,0,0.1,0,0.1
		l0,0c0.1,0,0.1,0,0.2-0.1C20.8,19.4,20.6,18,19.5,17.2C19.5,17.3,19.5,17.2,19.5,17.2"/>
	<path class="st0" d="M9.5,22.3c0,0.1,0,0.2,0.1,0.2h0.1c0.1,0,0.2,0,0.2-0.1c0-0.1,0-0.2,0-0.2c-0.2-0.4,0-0.6,0.1-0.8l0,0
		c0.1-0.1,0.1-0.1,0.2-0.2c0-0.1,0-0.1,0-0.2c0-0.1-0.1-0.2-0.2-0.2c-0.1,0-0.1,0-0.2,0.1c-0.1,0.1-0.3,0.2-0.4,0.3l0,0l0,0H9.3
		c0,0-0.1,0.1,0,0.3c0.1,0.2,0.2,0.4,0.3,0.7"/>
	<path class="st0" d="M10.3,22.7c0.1,0.1,0.1,0.2,0.3,0.2c0,0,0.1,0,0.1,0c0.1-0.1,0.1-0.3,0-0.4c-0.2-0.5,0-0.7,0.3-1l0,0
		c0.1-0.1,0.1-0.2,0-0.3c0,0-0.1,0-0.1,0h-0.1C10.1,21.6,10,22,10.3,22.7"/>
	<path class="st0" d="M11,22.2l0.1,0.7c0,0.1,0.1,0.2,0.2,0.2c0.1,0,0.1,0,0.1-0.1c0-0.1,0-0.2,0-0.2c-0.2-0.3-0.1-0.6,0.1-0.9
		l0.3-0.2c0-0.1,0-0.2,0-0.2c-0.1-0.1-0.2-0.1-0.3-0.1h-0.1l-0.3,0.3C11,21.8,10.9,22,11,22.2"/>
	<path class="st0" d="M18.6,17.7c0,0-0.1,0-0.1,0c-0.1,0-0.2,0.1-0.2,0.2c-0.1,0.1,0,0.3,0.1,0.4c0.4,0.3,0.7,0.6,0.9,1.1
		c0.1,0.4,0,0.9-0.3,1.2l-2.2,2C15.1,24,15,25.3,16,26.5h0.1c0-0.1,0-0.1,0-0.2c-0.8-1.6,0.3-2.6,1.6-3.7l0,0c0.7-0.6,1.4-1.2,2-1.9
		C20.2,19.6,19.8,18.6,18.6,17.7"/>
	<path class="st0" d="M19.4,26.1c-0.3,0-0.7,0-1,0.1h-0.1c-0.2,0-0.4,0-0.6,0c-0.6,0-1-0.2-1.3-1.3c0-0.1,0-0.2-0.1-0.2
		c-0.1,0-0.2,0.2-0.2,0.3c0,1.5,1,1.5,2.4,1.5c0.4,0,0.9,0,1.3,0.1c0.7,0.1,1.2,0.6,1.4,1.3c0.1,0.6-0.1,1.3-0.6,1.6
		c-0.1,0.1-0.2,0.2-0.1,0.3c0.1,0.1,0.2,0.2,0.3,0.2c0.1,0,0.1,0,0.2,0c0.7-0.5,1-1.3,0.8-2.1c-0.2-0.9-1-1.6-1.9-1.7L19.4,26.1"/>
	<path class="st0" d="M16.9,20.6c-1.8,0.8-2.8,2.7-2.6,4.7c0.2,1.4,1.4,2.5,2.8,2.6h2.5c0.2,0,0.3,0.1,0.4,0.2
		c0.1,0.2,0,0.4-0.1,0.5c-0.1,0.1-0.1,0.2,0,0.2l0,0c0.1,0,0.2,0,0.2-0.1c0.3-0.2,0.4-0.6,0.3-0.9c-0.1-0.3-0.4-0.5-0.8-0.5h-1.1
		c-0.7,0.1-1.4,0-2-0.3c-1-0.4-1.6-1.4-1.6-2.4c0.1-1.6,1-3,2.3-3.7c0.7-0.4,1.5-1,1.6-1.5c0-0.1,0-0.2,0-0.3l0,0c0,0-0.1,0-0.1,0
		c-0.5,0.6-1.1,1-1.8,1.3"/>
	<path class="st0" d="M12.7,25.6c-0.2,0.4-0.1,0.9,0.3,1.3c0.4,0.3,0.9,0.7,1.3,0.9c0.5,0.4,0.7,0.9,0.7,1.5l0,0
		c0,0.1,0,0.3,0.1,0.4c0.1,0.5,0.5,0.9,1,0.9l0,0c0.1,0,0.2,0,0.2-0.1c0-0.1,0-0.1-0.1-0.1c-0.5-0.2-0.8-0.4-0.8-0.8
		c-0.1-0.7-0.3-1.4-0.8-1.9c-0.5-0.3-0.9-0.6-1.3-1c-0.1-0.1-0.1-0.2-0.2-0.3c-0.1-0.7,0.1-1.5,0.5-2.1c0.2-1-0.4-2-1.3-2.4h-0.1
		c-0.1,0-0.1,0-0.1,0c0,0.1,0,0.2,0.1,0.2C13.1,22.8,13.7,23.5,12.7,25.6"/>
	<path class="st0" d="M13.1,28.3c0.6,0.3,0.9,0.9,0.9,1.6c0.1,1.6,0.9,2.4,2.4,2.4l0,0c0.2,0,0.5-0.1,0.7-0.2l0,0
		c0-0.1-0.1-0.2-0.1-0.3c-0.1-0.1-0.2-0.2-0.3-0.2c-0.1,0-0.1,0-0.2,0l0,0c-0.1,0.1-0.3,0.1-0.4,0.1c-0.1,0-0.2,0-0.3,0
		c-0.7-0.2-1.3-0.8-1.3-1.6c0.1-0.7-0.2-1.4-0.7-1.9c-0.6-0.3-1.1-0.8-1.5-1.3c-0.3-0.6-0.3-1.3,0.1-1.9l0.2-0.4
		c0.1-0.3,0.2-0.5,0.1-0.8c0-0.8-0.2-1.2-0.6-1.4h-0.1c0,0-0.1,0-0.1,0c0,0,0,0.1,0.1,0.3c0.5,0.4,0.5,1.2,0,2.4
		c-0.4,0.5-0.4,1.2-0.2,1.8C12,27.5,12.5,27.9,13.1,28.3"/>
	<path class="st0" d="M17.8,32.1h0.1c0,0,0,0,0-0.1c-0.1-0.1-0.3-0.1-0.4-0.1l0,0C17.6,32,17.7,32.1,17.8,32.1"/>
	<path class="st0" d="M18.7,31.9c0,0,0-0.1,0-0.1c-0.2-0.1-0.3-0.2-0.5-0.1l0,0l0,0c0,0,0,0,0,0.1C18.3,31.9,18.5,31.9,18.7,31.9
		L18.7,31.9L18.7,31.9z"/>
	<path class="st0" d="M18.8,31.3h-0.1l0,0c0.1,0.2,0.3,0.3,0.5,0.3h0.2l0,0c0,0,0,0,0-0.1C19.3,31.3,19,31.2,18.8,31.3"/>
	<path class="st0" d="M19.1,29.9c0.1,0,0.2-0.1,0.3-0.1l0.2-0.2c0,0,0.1-0.1,0-0.2c0,0,0,0,0,0c-0.2-0.2-0.3-0.5-0.1-0.7
		c0-0.1,0-0.1,0-0.2h-0.1c-0.1,0-0.2,0.1-0.2,0.1l0,0c-0.3,0.2-0.5,0.6-0.4,1C18.8,29.8,18.9,29.9,19.1,29.9L19.1,29.9z"/>
	<path class="st0" d="M17.3,31.5L17.3,31.5L17.3,31.5c-0.1-0.2-0.2-0.5-0.2-0.8c0-0.3-0.1-0.7-0.3-0.9c0,0-0.1,0.1-0.1,0.1
		c-0.1,0.1-0.1,0.2,0,0.3c0.1,0.2,0.2,0.4,0.1,0.6C16.9,31.3,17,31.5,17.3,31.5"/>
	<path class="st0" d="M17.9,31.3L17.9,31.3c0.2,0,0.2-0.1,0.2-0.1s0,0-0.1-0.1c-0.3-0.2-0.4-0.5-0.4-0.9c0.1-0.2,0-0.5-0.1-0.6
		c-0.1-0.2-0.2-0.4-0.1-0.6l0,0h-0.1c-0.1,0-0.2,0.1-0.2,0.2c0,0.2,0,0.5,0.2,0.7c0.1,0.1,0.2,0.3,0.1,0.5c0,0.3,0.1,0.5,0.2,0.7
		C17.7,31.3,17.8,31.3,17.9,31.3"/>
	<path class="st0" d="M18.8,28.6L18.8,28.6L18.8,28.6l-0.2-0.1c-0.3,0-0.5,0.1-0.7,0.3c-0.1,0.2-0.1,0.4,0,0.6
		c0.1,0.2,0.1,0.4,0,0.6c-0.2,0.4,0,0.8,0.4,0.9c0.1,0,0.1,0,0.2,0.1h0.2l0,0c-0.1-0.1-0.1-0.3,0-0.5c0,0,0,0,0,0
		c0,0,0.1-0.1,0.1-0.1c0,0,0-0.1-0.1-0.2c-0.4-0.4-0.3-1,0.1-1.4c0,0,0,0,0.1-0.1"/>
	<path class="st0" d="M21.3,31.3c0.2-0.2,0.4-0.4,0.6-0.4c0.3-0.1,0.5-0.3,0.7-0.5c0.3-0.5,0.1-1.1-0.3-1.5c0,0-0.1,0-0.1,0
		c-0.1,0-0.1,0-0.2,0.1c0,0.1,0,0.2,0,0.3l0.2,0.4c0.1,0.2,0,0.6-0.2,0.7c0,0,0,0-0.1,0c-0.4,0.2-0.8,0.5-1.1,0.8
		c-0.1,0.1-0.2,0.2-0.3,0.2c-0.1,0-0.2,0-0.3-0.1l-0.4-0.4c0-0.1,0-0.2,0-0.3c0-0.1,0.1-0.1,0.2-0.1h0.1l0.3,0.1h0.1
		c0,0,0,0,0.1-0.1c0-0.3-0.1-0.5-0.4-0.6H20c-0.4,0-0.7,0.2-0.8,0.5c-0.2,0.3,0.2,0.7,0.7,1c0.1,0.1,0.3,0.2,0.4,0.3
		c0.1,0.1,0.2,0.1,0.3,0.1c0.1,0,0.1,0,0.2,0C21,31.7,21.2,31.6,21.3,31.3"/>
	<path class="st0" d="M22.5,31.9h0.1c0.4,0.1,0.7,0.2,1.1,0.4c0.1,0.1,0.1,0.1,0.2,0c0,0,0,0,0,0c0-0.1,0-0.1-0.1-0.1
		c-0.5-0.3-1.1-0.5-1.6-0.5c-0.2,0-0.3,0-0.5,0c-0.2,0.1-0.3,0.2-0.3,0.3c0,0.1,0.1,0.2,0.1,0.2l1,0.3l0.7,0.3h0.1c0,0,0.1,0,0.1,0
		v-0.1c-0.3-0.2-0.6-0.3-0.9-0.4c-0.2-0.1-0.2-0.1-0.2-0.2S22.4,31.9,22.5,31.9"/>
	<path class="st0" d="M23.1,30.5c-0.1,0.1-0.3,0.2-0.4,0.4c-0.1,0.1-0.1,0.3,0,0.4c0.2,0.4,0.9,0.6,1.3,0.7l0,0c0.1,0,0.2,0,0.2-0.1
		v-0.1l0,0c-0.4-0.1-0.7-0.3-0.9-0.6c0-0.2-0.1-0.3,0-0.4c0.1-0.1,0.2-0.1,0.3-0.1c0.2,0,0.3,0,0.5,0.1l0,0h0.1c0,0,0-0.1,0-0.1
		c-0.1-0.1-0.2-0.2-0.4-0.2C23.5,30.3,23.3,30.4,23.1,30.5"/>
	<path class="st0" d="M23.8,30.8L23.8,30.8c-0.1,0-0.1,0-0.1,0.1c0,0.1,0,0.1,0,0.2c0.3,0.2,0.6,0.3,1,0.4l0,0c0,0,0.1,0,0.1-0.1
		c0,0,0-0.1,0-0.1C24.4,31.1,24.1,30.9,23.8,30.8"/>
	<path class="st0" d="M23.9,33.5L23.9,33.5c0.1,0,0.3,0,0.4,0c0.5-0.2,1-0.3,1.5-0.3c0.1,0,0.2,0,0.2-0.1c0-0.1,0-0.1-0.2-0.2h-0.2
		c-0.4,0-0.9,0.1-1.3,0.3h-0.1c0,0-0.1,0-0.1,0c0-0.1,0-0.2,0.1-0.3c0.4-0.4,0.9-0.7,1.5-0.9c0.1,0,0.1-0.1,0.1-0.2c0,0,0,0,0,0
		c0-0.1-0.1-0.1-0.2-0.1c-0.7,0.1-1.4,0.6-1.8,1.2c-0.1,0.1-0.2,0.4-0.1,0.5c0.1,0.1,0.2,0.2,0.4,0.2"/>
	<path class="st0" d="M24.9,32.5c0,0,0,0.1,0,0.1s0.1,0.1,0.3,0.1c0.2,0,0.5-0.1,0.7-0.2v-0.1l0,0c0,0-0.1,0-0.3,0
		C25.3,32.4,25.1,32.5,24.9,32.5"/>
	<path class="st0" d="M23.4,29.5c0-0.1,0-0.2,0-0.2c0-0.1,0.1-0.1,0.2-0.1l0,0l0,0c-0.2-0.2-0.4-0.4-0.7-0.4c0,0-0.1,0-0.1,0
		c0,0.6,0.3,0.9,1,1.2h0.1l0,0L23.4,29.5z"/>
	<path class="st0" d="M22.6,26.9L22.6,26.9c-0.1,0.5,0.1,1,0.4,1.4c0.1,0.2,0.3,0.3,0.5,0.3c0,0,0.1,0,0.1,0c0-0.1,0-0.2,0-0.3
		c-0.1-0.1-0.2-0.2-0.3-0.3c0,0-0.1,0.1-0.1,0.1c-0.2,0-0.3-0.3-0.3-0.5C23,27.2,22.8,27,22.6,26.9"/>
	<path class="st0" d="M24.3,28.8c-0.1-0.1-0.2-0.1-0.3-0.2l0,0v0.1c0,1,0.5,1.9,1.2,2.6c0.1,0,0.1,0,0.2,0c0.2,0,0.3-0.2,0.3-0.3
		c0-0.3,0-0.6-0.1-0.9c0-0.1-0.1-0.1-0.2-0.1h-0.1v0.5c0,0.1,0,0.1,0,0.2h-0.1l0,0c-0.1,0-0.1,0-0.2-0.1c-0.4-0.4-0.6-1-0.7-1.6
		c0-0.1,0-0.2-0.1-0.3"/>
	<path class="st0" d="M26.8,33.5c0.1,0,0.2,0.1,0.3,0.1c0.1,0,0.2,0,0.3-0.1c0.2-0.3,0.2-0.7,0.1-1.1l0,0c0-0.1-0.1-0.2-0.2-0.3l0,0
		c0,0,0,0.1,0,0.1v0.6c0,0.2,0,0.3-0.2,0.3c-0.1,0-0.1,0-0.2-0.1c-0.3-0.6-0.5-1.3-0.5-2c0-0.3-0.2-0.4-0.3-0.4
		c-0.1,0-0.1,0-0.1,0.2c-0.1,1,0.2,2,0.8,2.8H26.8z"/>
	<path class="st0" d="M26.8,32.4L26.8,32.4c0-0.1,0-0.2,0-0.3l-0.1-0.5c0-0.1-0.1-0.1-0.1-0.1c0,0-0.1,0-0.1,0.1
		c-0.1,0.3,0,0.5,0.1,0.7L26.8,32.4"/>
	<path class="st0" d="M25,30.1c0,0,0.1-0.1,0.1-0.1c0-0.1,0-0.3-0.1-0.4c0-0.1-0.1-0.1-0.1-0.1v0.1c-0.1,0.1-0.1,0.3,0,0.4
		C24.9,30.1,24.9,30.1,25,30.1"/>
	<path class="st0" d="M28.9,12.2L28.9,12.2h-0.2c0,0,0,0.1,0.2,0.1c0.4-0.1,0.8,0.1,0.9,0.5c0.1,0.1,0.1,0.2,0,0.3
		c0,0-0.1,0.1-0.3,0.1l0,0v0.1c0.1,0,0.2,0.1,0.3,0.1c0.1,0,0.2,0,0.3-0.1c0.1-0.1,0.1-0.3,0-0.4C30,12.4,29.4,12.1,28.9,12.2"/>
	<path class="st0" d="M29.5,13c0,0,0.1,0,0.1-0.1c0-0.1-0.1-0.3-0.3-0.3l0,0c0,0,0,0,0.1,0.2C29.4,12.9,29.4,13,29.5,13"/>
	<path class="st0" d="M29.8,14c-0.1,0-0.1,0-0.1,0.1c0,0,0,0,0,0c0,0,0,0.1,0.1,0.1c0.5,0,0.7,0.3,0.7,0.9c0,0.3-0.2,0.3-0.3,0.3
		c-0.1,0-0.2,0-0.3,0c0,0-0.1,0-0.1,0c0,0,0,0,0,0.1c0.2,0.2,0.4,0.3,0.7,0.3c0.1,0,0.1,0,0.2,0c0.2-0.1,0.2-0.4,0.1-0.9
		C30.7,14.4,30.3,14,29.8,14C29.8,14,29.8,14,29.8,14"/>
	<path class="st0" d="M30,15C30,15,30.1,15,30,15c0.1-0.1,0.1-0.2,0-0.3c-0.1,0-0.1,0-0.2,0c-0.1,0-0.1,0-0.1,0.1s0,0.1,0,0.2
		C29.7,15,29.8,15.1,30,15"/>
	<path class="st0" d="M30.1,18.1L30.1,18.1c0.5-0.3,0.8-0.7,0.9-1.2c0-0.2,0-0.4-0.1-0.6c-0.2-0.2-0.5-0.3-0.7-0.3h-0.1
		c-0.1,0-0.2,0-0.3,0.1c0,0.1,0,0.1,0,0.2l0.5,0.1c0.1,0,0.2,0.1,0.3,0.2c0,0.2,0,0.4-0.1,0.6C30,17.7,29.9,17.8,30,18
		C30,18.3,30,18.1,30.1,18.1"/>
	<path class="st0" d="M29.9,17.1h0.2c0.2,0,0.2-0.1,0.2-0.1c0,0-0.1-0.3-0.2-0.3h-0.2c-0.1,0-0.1,0.1-0.1,0.2
		C29.7,16.9,29.7,17,29.9,17.1"/>
	<path class="st0" d="M31.2,11.3L31.2,11.3c0.2,0.2,0.5,0.3,0.9,0.4c0.1,0,0.2,0,0.2,0c0,0,0-0.1,0-0.1c-0.7-1.2-1.9-1.8-3.3-1.7
		h-0.5h-0.1c0,0,0.2,0.2,0.4,0.2l0.6,0c0.8-0.1,1.5,0.2,2,0.8c0.1,0.1,0.1,0.3,0.1,0.3C31.6,11.3,31.4,11.3,31.2,11.3"/>
	<path class="st0" d="M30.4,10.6h-0.3l0,0c0,0,0,0,0.1,0.1c0.1,0,0.3,0,0.4,0c0.1,0,0.2,0,0.2,0h0.1c0,0,0,0-0.1-0.1
		C30.7,10.6,30.6,10.6,30.4,10.6"/>
	<path class="st0" d="M33.3,10.9c-0.1,0-0.2-0.1-0.3-0.1c-0.3-0.3-0.7-0.6-1.1-0.7h-0.1l0,0c0.5,0.7,1.3,1.2,2.1,1.5h0.2
		c0,0,0.1,0,0.1,0c0,0,0-0.1,0-0.1c0-0.4-0.3-0.8-0.8-0.9c0,0.2,0.1,0.3,0,0.4C33.4,11,33.4,11,33.3,10.9"/>
	<path class="st0" d="M34.8,42.4c0.1,0,0.1,0,0.2,0l0,0c-0.1,0-0.2-0.1-0.2-0.2c0-0.2,0-0.4,0.2-0.6c1.2-0.6,1.5-1.1,1.4-2.1
		c0,0,0-0.1,0-0.1c-0.1-0.1-0.1-0.1-0.2-0.1c-0.1,0-0.3,0.1-0.3,0.2c0,0.5-0.3,1-0.6,1.3c-1,0.6-2.1,0.9-3.3,1
		c-0.5,0-0.9,0.2-1.1,0.6l-0.4,1c0,0.2-0.2,0.4-0.5,0.4l-1-0.1c-0.1,0-0.2,0-0.3-0.1c0-0.1,0-0.2,0-0.2c0-0.8,0.1-1.7,0.3-2.5
		c0.1-0.3,0.1-0.5-0.1-0.8c0,0-0.1-0.1-0.1-0.1c0,0,0,0-0.1,0.2c-0.5,1.1-0.7,2.3-0.6,3.4c0,0.3,0.1,0.5,0.4,0.5l2.1,0.2
		c0.3,0,0.4-0.1,0.5-0.4c0.1-1.1,0.5-1.6,1-1.6l1.7-0.3h0.1c0.2,0,0.3,0,0.4,0.1C34.4,42.4,34.6,42.4,34.8,42.4"/>
	<path class="st0" d="M33.6,38.8L33.6,38.8c-0.4,0-0.5,0.3-0.4,0.4c0,0.1,0.1,0.3,0.3,0.3c0.1,0,0.1,0,0.2,0
		c0.2-0.2,0.4-0.4,0.7-0.5C34.1,38.9,33.8,38.8,33.6,38.8"/>
	<path class="st0" d="M33.2,40.8h0.1c0.2-0.1,0.4-0.2,0.6-0.4c-0.3,0-0.6-0.1-0.8-0.1H33c-0.1,0-0.2,0.1-0.2,0.2l0,0
		c0,0.1,0,0.2,0.1,0.2C33,40.8,33.1,40.8,33.2,40.8"/>
	<path class="st0" d="M32.3,39.2c0.1-0.3,0.3-0.5,0.5-0.7h-0.2c-0.2,0-0.4,0-0.6,0.1c-0.2,0.1-0.3,0.3-0.2,0.4
		c0,0.1,0.2,0.2,0.3,0.2C32.2,39.3,32.3,39.3,32.3,39.2"/>
	<path class="st0" d="M29.8,42.5c0.1,0,0.2-0.1,0.2-0.2c0-0.3,0.1-0.5,0.3-0.8c-0.2,0-0.5,0.1-0.7,0.3c-0.1,0.1-0.2,0.3-0.1,0.5
		C29.5,42.5,29.6,42.5,29.8,42.5"/>
	<path class="st0" d="M38.7,41.7c0.3-0.2,0.6-0.3,1-0.3c-0.3-0.2-0.6-0.4-0.9-0.4C37.9,41,38.1,42,38.7,41.7"/>
	<path class="st0" d="M39.8,40.4c0-0.3,0.1-0.5,0.2-0.8c-0.2,0-0.5,0.2-0.6,0.3c-0.1,0.1-0.2,0.3-0.1,0.5c0.1,0.1,0.2,0.2,0.3,0.2
		C39.7,40.6,39.8,40.5,39.8,40.4"/>
	<path class="st0" d="M41.3,40h-0.2c-0.2,0-0.4,0-0.6,0.1c-0.2,0.1-0.3,0.3-0.2,0.4c0,0.1,0.1,0.2,0.3,0.2c0.1,0,0.2,0,0.2-0.1
		C40.9,40.4,41.1,40.2,41.3,40"/>
	<path class="st0" d="M40.4,41.8h0.1c0.2-0.1,0.4-0.2,0.6-0.4c-0.3,0-0.6-0.1-0.9-0.2h-0.1c-0.1,0-0.2,0.1-0.2,0.2c0,0,0,0,0,0
		c0,0.1,0,0.2,0.1,0.2C40.2,41.8,40.3,41.8,40.4,41.8"/>
	<path class="st0" d="M31.2,40.6c0,0.1,0.2,0.2,0.3,0.2c0.1,0,0.3-0.1,0.3-0.2c0.1-0.2,0.2-0.4,0.2-0.7c-0.2,0.2-0.4,0.3-0.7,0.4
		C31.2,40.4,31.1,40.5,31.2,40.6"/>
	<path class="st0" d="M27.3,38.6c-0.3,0.1-0.6,0.2-0.9,0.5c0.3,0,0.7,0.1,1,0.3C28,39.6,28.1,38.6,27.3,38.6"/>
	<path class="st0" d="M25.3,38c0.1,0,0.2-0.1,0.2-0.2c0-0.2,0-0.3-0.3-0.4c-0.2-0.1-0.4-0.1-0.5-0.1h-0.2c0.2,0.2,0.4,0.4,0.5,0.6
		C25.1,37.9,25.2,37.9,25.3,38"/>
	<path class="st0" d="M24.1,37.9c0-0.2-0.1-0.4-0.4-0.4c-0.2,0-0.5,0.1-0.7,0.2c0.3,0.1,0.5,0.2,0.7,0.4c0.1,0,0.1,0,0.2,0
		C24,38.1,24.1,38,24.1,37.9C24.1,37.9,24.1,37.9,24.1,37.9"/>
	<path class="st0" d="M24.4,38.9c-0.3,0.2-0.6,0.3-0.9,0.3c0.2,0.2,0.5,0.4,0.9,0.4C25.2,39.6,25,38.7,24.4,38.9"/>
	<path class="st0" d="M25.5,38.9c0.1,0,0.2,0,0.2,0c0.2,0,0.3-0.1,0.3-0.3c0,0,0,0,0,0c0-0.1-0.1-0.2-0.2-0.3c0,0,0,0,0,0h-0.3
		c-0.2,0-0.3,0-0.5,0C25.1,38.6,25.3,38.8,25.5,38.9"/>
	<path class="st0" d="M20,37.7c0.1,0.1,0.2,0.1,0.3,0.1c0.2,0,0.3-0.1,0.3-0.3c0-0.1,0-0.3-0.3-0.3c-0.2,0-0.5,0-0.7-0.1
		C19.7,37.4,19.9,37.6,20,37.7"/>
	<path class="st0" d="M18,37.9c0.1,0,0.2,0,0.3,0c0.2,0,0.3-0.1,0.3-0.3c0-0.1-0.1-0.3-0.2-0.3c0,0,0,0,0,0h-0.2
		c-0.2,0-0.4,0-0.6-0.1C17.7,37.5,17.8,37.7,18,37.9"/>
	<path class="st0" d="M17.2,36.1h-0.1c-0.2,0-0.4,0.1-0.6,0.1c0.2,0.1,0.3,0.2,0.4,0.3l0,0c0,0,0.1,0.1,0.2,0.1h0.1
		c0.1,0,0.3-0.1,0.3-0.2C17.5,36.3,17.4,36.2,17.2,36.1"/>
	<path class="st0" d="M13.7,33.9L13.7,33.9c0,0.2,0.2,0.3,0.3,0.3c0.1,0,0.1,0,0.2-0.1c0.1-0.1,0.1-0.3,0-0.4
		c-0.1-0.2-0.3-0.4-0.5-0.5c0,0.2,0,0.4,0,0.5C13.7,33.8,13.7,33.8,13.7,33.9"/>
	<path class="st0" d="M13,33.2c-0.1-0.2-0.3-0.4-0.5-0.5c0,0.2,0,0.4,0,0.5c0,0.1,0,0.1,0,0.2l0,0c0,0.1,0.1,0.3,0.3,0.3
		c0.1,0,0.1,0,0.2-0.1C13,33.5,13.1,33.4,13,33.2"/>
	<path class="st0" d="M12.8,34.2h-0.1c-0.2,0-0.5-0.1-0.7-0.2c0.1,0.3,0.2,0.5,0.4,0.7c0.1,0,0.2,0.1,0.2,0.1c0.1,0,0.2-0.1,0.3-0.2
		C13.1,34.4,13,34.2,12.8,34.2"/>
	<path class="st0" d="M13.9,35.5c0.1,0.1,0.2,0.1,0.3,0.1c0.1,0,0.2-0.1,0.3-0.2c0-0.1,0-0.3-0.2-0.3h-0.1c-0.2,0-0.4-0.1-0.6-0.3
		C13.6,35.1,13.7,35.4,13.9,35.5"/>
	<path class="st0" d="M28.5,37.7c0-0.1,0-0.1,0-0.2c0-0.2,0-0.5,0-0.7c0,0,0-0.1-0.3-0.2h-0.1c-0.4,0-0.8,0.3-0.9,0.7
		c-0.1,0.4,0,0.9,0.4,1.2h0.1l0,0c0-0.1,0-0.2,0-0.2c-0.1-0.1-0.1-0.2,0-0.3c0.1-0.1,0.3-0.2,0.7-0.2L28.5,37.7z"/>
	<path class="st0" d="M29.8,40.3L29.8,40.3c0.1,0,0.1,0,0.2,0l0,0c-0.2-0.2-0.3-0.3-0.3-0.5s0.1-0.3,0.3-0.4c0.2-0.1,0.1-0.3,0-0.4
		c-0.2-0.1-0.3-0.3-0.4-0.5c0-0.1-0.1-0.1-0.2-0.1c-0.1,0-0.2,0-0.3,0.1c-0.5,0.4-0.5,1-0.2,1.5C29.1,40.3,29.4,40.4,29.8,40.3"/>
	<path class="st0" d="M36.9,40.2L36.9,40.2c0.1,0,0.2,0,0.3,0c0.4,0,0.7-0.3,0.8-0.7c0.1-0.5-0.1-1-0.5-1.3
		c-0.1-0.1-0.1-0.1-0.2-0.1c-0.1,0-0.1,0-0.2,0.1c-0.1,0.2-0.3,0.4-0.4,0.5c0,0.1,0,0.1,0,0.2c0,0.1,0.1,0.1,0.2,0.2
		c0.2,0.1,0.3,0.2,0.3,0.4C37.2,39.7,37.1,39.9,36.9,40.2"/>
	<path class="st0" d="M35.1,38.8c0.1,0.1,0.3,0.2,0.4,0.2c0.1,0,0.2,0,0.3-0.1c0.5-0.2,0.8-0.5,1.1-0.9c0-0.2,0-0.4-0.1-0.6
		c-0.2-0.2-0.4-0.3-0.7-0.3h-0.1c-0.4,0-0.8-0.2-1.1-0.6c-0.2-0.2-0.3-0.3-0.5-0.4h-0.2l0,0v0.1c0.1,0.3,0.2,0.5,0.5,0.7
		c0.3,0.2,0.6,0.4,0.9,0.5c0.2,0.1,0.3,0.2,0.3,0.3c0,0.1-0.1,0.3-0.3,0.4h-0.2c-0.2,0-0.3-0.1-0.4-0.3c-0.3-0.4-0.6-0.8-1-1.2h-0.1
		c0,0-0.1,0-0.1,0c-0.1,0.1-0.2,0.2-0.3,0.3c-0.1,0.1-0.1,0.1-0.2,0.1c-0.1,0-0.1,0-0.2-0.1h-0.1c-0.6,0.3-1.1,0.7-1.5,1.2
		c-0.1,0.1-0.2,0.1-0.3,0.1l0,0H31l0,0l0,0c0-0.1,0-0.3,0.1-0.3c0.4-0.3,0.8-0.6,1.2-1c0,0,0-0.1,0-0.1c0-0.1-0.1-0.1-0.1-0.2
		c-0.1-0.1-0.3-0.1-0.5-0.1c-0.2,0-0.4,0-0.5,0.1c-0.2,0-0.3,0-0.5,0c-0.3,0-0.6,0-0.8-0.1c-0.1,0-0.1,0-0.2,0
		c-0.2,0-0.3,0.1-0.4,0.2c0,0.1-0.1,0.2-0.1,0.3c0,0.3,0,0.5,0,0.8c0,0.1,0.1,0.2,0.1,0.2c0,0.1,0.1,0.1,0.2,0.1
		c0.1,0,0.2-0.1,0.3-0.1c0.3-0.1,0.4-0.4,0.4-0.7c0-0.1,0.1-0.2,0.3-0.2c0.3-0.1,0.6-0.2,0.9-0.2h0.3c0.1,0,0.2,0.1,0.2,0.1
		c0,0.1-0.1,0.2-0.1,0.2c-0.4,0.3-0.8,0.5-1.2,0.6c-0.3,0.1-0.4,0.5-0.3,0.8c0,0.2,0.2,0.4,0.6,0.7c0.1,0.1,0.2,0.1,0.3,0.1
		c0.3,0,0.5-0.2,0.6-0.4c0-0.1,0.1-0.2,0.4-0.4c0.3-0.2,0.6-0.5,0.8-0.7c0,0,0.1-0.1,0.2-0.1c0.1,0,0.2,0.1,0.2,0.3v0.1
		c0.1,0.1,0.2,0.2,0.3,0.2s0.2-0.1,0.4-0.3c0.1-0.1,0.1-0.1,0.2-0.1h0c0,0,0,0.1,0,0.3c0,0.1,0,0.1,0,0.1c0,0,0.1,0,0.1,0
		c0.1,0,0.2,0,0.3,0.1L35.1,38.8z"/>
	<path class="st0" d="M29.7,34.1c0,0-0.1,0-0.1,0c0,0,0,0.1,0,0.1l1,1.3c0.1,0.1,0.3,0.2,0.5,0.3c0.1,0,0.2,0,0.2-0.1
		c0.1-0.1,0.1-0.3,0-0.4c0-0.1-0.1-0.1-0.1-0.1v0.1c-0.1,0.1-0.1,0.1-0.2,0.1c-0.1,0-0.2-0.1-0.2-0.1l-0.8-1.1
		C29.8,34.1,29.7,34.1,29.7,34.1"/>
	<path class="st0" d="M32.7,36.3c0.1,0,0.1,0,0.2,0c0.1,0,0.2,0,0.3-0.3c0.1-0.4,0-0.8-0.1-1.2l-0.8-1.8c0-0.1-0.1-0.1-0.1-0.1
		c0,0,0,0-0.1,0.1c-0.1,0.3,0,0.6,0.2,0.9c0.1,0.2,0.2,0.4,0.4,0.7l0.1,0.3c0.1,0.2,0.1,0.4,0,0.6c-0.1,0.1-0.1,0.1-0.2,0.1
		c-0.1,0-0.2-0.1-0.3-0.1l-0.8-1.1c-0.1-0.3-0.4-0.5-0.7-0.7h-0.2l0,0v0.1c0.2,0.3,0.4,0.6,0.6,0.8l0,0C31.5,35.4,32,35.9,32.7,36.3
		"/>
	<path class="st0" d="M31.6,33.9V34l0.6,1l0,0c0.1,0,0.1,0,0.1-0.1c0-0.1,0-0.1,0-0.2l-0.6-0.9l0,0L31.6,33.9z"/>
	<path class="st0" d="M30.8,35.1L30.8,35.1c0,0,0.1,0,0.1-0.1c0-0.1,0-0.1,0-0.2l-0.5-0.8l0,0l0,0v0.1L30.8,35.1z"/>
	<path class="st0" d="M34,35.5c0.1,0,0.2,0,0.2,0c0,0,0.1,0,0.1,0c0-0.1,0-0.1,0-0.2c0-0.7-0.2-1.4-0.4-2c-0.1-0.2-0.1-0.4-0.2-0.6
		c0,0,0-0.1,0-0.1h-0.1c-0.1,0.2-0.1,0.5,0,0.7l0.4,1c0.1,0.2,0.1,0.3,0,0.4l0,0l0,0c-0.1,0-0.2-0.1-0.2-0.1
		c-0.2-0.3-0.3-0.6-0.3-0.9c-0.1-0.4-0.2-0.5-0.3-0.5h-0.1l0,0c0.1,0.9,0.5,1.7,1.2,2.3"/>
	<path class="st0" d="M32.4,27.8c-0.1,0-0.1,0.1-0.2,0.1c0,0.1,0,0.2,0,0.3c0.5,1,0.8,2.1,0.7,3.2c0,0.4-0.2,0.4-0.3,0.4
		c-0.1,0-0.2-0.1-0.3-0.2c-0.3-0.5-0.5-1-0.7-1.5l0,0c-0.2-0.4-0.4-0.8-0.6-1.2l0,0c0,0,0,0-0.1,0.2c0,0.2,0,0.5,0.1,0.7
		c0.2,0.3,0.4,0.7,0.5,1l0,0c0.2,0.6,0.6,1.2,1,1.8c0.1,0.1,0.2,0.1,0.3,0.1c0.1,0,0.2-0.1,0.3-0.3c0.3-1.6,0-3.2-0.7-4.6
		C32.5,27.9,32.5,27.9,32.4,27.8"/>
	<path class="st0" d="M32.4,30.9c0,0,0.1,0,0.1-0.2c0-0.9-0.3-1.7-1-2.3c0,0-0.1,0-0.1,0c0,0-0.1,0-0.1,0c0,0.1,0,0.1,0,0.2
		C31.8,29.3,32.2,30,32.4,30.9C32.4,30.8,32.4,30.9,32.4,30.9"/>
	<path class="st0" d="M31,33.3c0.1,0,0.2,0,0.2,0c0.1,0,0.3,0,0.4-0.4c0-1.2-0.4-2.5-1.1-3.5c0,0-0.1-0.1-0.1-0.1
		c-0.1,0-0.2,0-0.2,0.1c0,0.1,0,0.1,0,0.2c0.1,0.4,0.3,0.8,0.5,1.1v0.1c0.2,0.4,0.4,0.9,0.5,1.4c0.1,0.1,0.1,0.3,0,0.4
		c0,0.1-0.1,0.1-0.2,0.1c-0.1,0-0.2-0.1-0.3-0.1c-0.4-0.5-0.8-1-1.1-1.6v-0.1c-0.2-0.3-0.4-0.6-0.6-0.9c-0.1-0.1-0.2-0.1-0.2-0.1
		h-0.1c-0.1,0.1-0.1,0.2,0,0.3c0.6,1.2,1.4,2.2,2.3,3.1"/>
	<path class="st0" d="M29,29.3L29,29.3L29,29.3c0.5,0.8,1,1.6,1.4,2.5h0.1l0,0c0-0.1,0-0.1,0-0.2C30.3,30.7,29.8,29.9,29,29.3
		L29,29.3z"/>
	<path class="st0" d="M29.5,33.7c0.2,0,0.4-0.2,0.4-0.5c-0.2-1.1-0.8-2-1.6-2.8c-0.1,0-0.1-0.1-0.2-0.1l0,0l0,0
		c0.6,0.6,1.1,1.3,1.5,2.1c0.1,0.2,0.1,0.3,0,0.5c-0.1,0.1-0.1,0.1-0.2,0.1c-0.1,0-0.2-0.1-0.3-0.1c-0.7-1-1.5-1.9-2.3-2.8
		c0,0-0.1-0.1-0.1-0.1h-0.1c0,0.1,0,0.1,0,0.2c0.9,1,1.7,2,2.5,3.1c0.1,0.2,0.3,0.2,0.5,0.3"/>
	<path class="st0" d="M27,29.8L27,29.8c0,0.1,0,0.2,0,0.3l1.9,2.3H29l0,0c0-0.1,0-0.1,0-0.2l-1.9-2.4L27,29.8z"/>
	<path class="st0" d="M34.7,11.6c0.3,0.3,0.7,0.5,1.1,0.6c0,0,0.1,0,0.1,0c0.1-0.1,0.2-0.3,0.1-0.4c-0.1-0.2-0.2-0.4-0.4-0.4l0,0
		c0,0.1,0,0.2-0.1,0.3c-0.1,0.1-0.2,0.1-0.2,0.1c-0.2,0-0.3-0.1-0.4-0.3c-0.1-0.2-0.2-0.4-0.4-0.5l0,0c0.1,0.2,0.1,0.3,0.1,0.5
		C34.6,11.5,34.6,11.6,34.7,11.6"/>
	<path class="st0" d="M32.2,13H32l0,0v0.1c0.2,0.2,0.5,0.3,0.8,0.3c0.1,0,0.3-0.1,0.4-0.2c0.1-0.2,0-0.5-0.2-0.8l0,0l0,0l0,0
		c0,0,0-0.1-0.4-0.4l0,0c0,0.1-0.1,0.1-0.3,0.2H32h-0.4l0,0c0,0.1,0.1,0.2,0.2,0.2c0.7,0,1,0.2,1,0.4c0,0.2-0.2,0.3-0.4,0.3"/>
	<path class="st0" d="M32.5,14.3c0.5,0.2,0.7,0.5,0.6,0.8c0,0.2-0.2,0.4-0.4,0.4c-0.2,0-0.3-0.1-0.4-0.2c0,0.1,0,0.2,0,0.2
		c0.2,0.4,0.6,0.6,1,0.7c0.1,0,0.2,0,0.3-0.1c0.1-0.2,0.1-0.4,0-0.5c-0.2-0.5-0.3-1-0.3-1.5c0-0.1,0-0.1,0-0.2l-0.2,0.1
		C33.1,13.9,33,14,32.9,14c-0.2,0-0.4-0.1-0.6-0.2l-0.1,0.1c0,0,0,0,0,0.1L32.5,14.3z"/>
	<path class="st0" d="M30.6,22.6c0,0.1,0,0.2,0,0.3c0.4,0.5,0.7,1,1,1.6v0.1c0.3,0.4,0.5,0.8,0.6,1c0,0.1,0.1,0.1,0.2,0.1
		c0.1,0,0.1-0.1,0.1-0.3c-0.2-1.4-0.8-2.7-1.6-3.8l0,0c-0.1,0.1-0.1,0.2,0,0.3c0.5,0.7,0.8,1.4,1.1,2.1c0,0.1,0,0.2,0,0.3l0,0l0,0
		c0,0-0.1,0-0.2-0.2c-0.3-0.6-0.6-1.1-1-1.6l0,0L30.6,22.6z"/>
	<path class="st0" d="M29.6,24.6c0,0-0.1,0-0.1,0c-0.1,0.1-0.1,0.2,0,0.3c0.4,0.9,0.9,1.8,1.4,2.6c0.1,0.2,0.4,0.4,0.6,0.4
		c0.2,0,0.4-0.1,0.5-0.3c0.2-0.5,0.2-1,0-1.5c-0.4-1-1-1.9-1.6-2.7c0,0-0.1,0-0.1,0c0,0-0.1,0-0.1,0c-0.1,0.1-0.1,0.2,0,0.3
		c0.6,0.9,1.1,1.8,1.5,2.8c0.1,0.2,0.1,0.5,0,0.8c-0.1,0.1-0.2,0.2-0.3,0.2c-0.2,0-0.3-0.1-0.4-0.2c-0.5-0.8-0.9-1.6-1.3-2.4
		C29.7,24.7,29.7,24.7,29.6,24.6"/>
	<path class="st0" d="M31.2,26.4c0.1,0,0.1,0,0.2-0.1c0.1-0.1,0.1-0.2,0-0.3L30.2,24c0,0,0-0.1-0.1-0.1l0,0c-0.1,0.2-0.1,0.3,0,0.5
		L31.2,26.4L31.2,26.4"/>
	<path class="st0" d="M29.9,29.2c0.3,0,0.5-0.2,0.7-0.4c0.2-0.4,0.1-0.8-0.1-1.1c-0.5-0.8-0.9-1.6-1.2-2.5c0-0.1-0.1-0.2-0.2-0.2
		c-0.1,0-0.1,0.1-0.2,0.1c0,0.1,0,0.1,0,0.2c0.4,0.9,0.8,1.7,1.2,2.6c0.1,0.2,0.1,0.5,0,0.7c-0.1,0.1-0.2,0.2-0.3,0.2
		c-0.1,0-0.3-0.1-0.3-0.3c-0.4-0.5-0.7-1-1-1.5l-0.1-0.1c-0.2-0.3-0.4-0.7-0.6-0.9c0-0.1-0.1-0.1-0.2-0.1c-0.1,0-0.2,0.1-0.2,0.1
		c0,0.1,0,0.1,0,0.2l1.7,2.6C29.3,29,29.5,29.1,29.9,29.2"/>
	<path class="st0" d="M28.2,25.6l1.3,2.3c0,0.1,0.1,0.1,0.2,0.1l0,0c0,0,0-0.1,0-0.4l-1.3-2.4c0,0,0,0-0.1,0l0,0v0.1
		c0,0.1,0,0.1,0,0.2c0,0.1,0,0.2,0,0.3"/>
	<path class="st0" d="M28.4,29.8c0.1-0.2,0.1-0.5,0-0.8c-0.4-0.9-0.9-1.8-1.5-2.6l-0.1-0.1c-0.1-0.1-0.2-0.1-0.3-0.1
		c-0.1,0-0.1,0-0.1,0c0,0,0,0.1,0,0.1c0.6,0.8,1.1,1.7,1.5,2.6c0.1,0.1,0.1,0.3,0,0.4c0,0.1-0.2,0.2-0.3,0.2c-0.1,0-0.2-0.1-0.3-0.1
		c-0.8-0.9-1.5-1.8-2.2-2.7c0,0-0.1-0.1-0.2-0.1c-0.1,0-0.1,0-0.2,0.1c0,0.1,0,0.2,0,0.2c0.7,1.1,1.4,2.1,2.3,3
		c0.2,0.2,0.4,0.3,0.7,0.3c0.2,0,0.3-0.1,0.4-0.2"/>
	<path class="st0" d="M25.6,26.1c0.4,0.9,1,1.8,1.7,2.4c0,0,0.1,0,0.1,0l0,0c0,0,0-0.1,0-0.2c-0.6-0.9-1.2-1.7-1.7-2.4h-0.1
		C25.6,26,25.6,26,25.6,26.1"/>
	<path class="st0" d="M26.3,29.8c0.1,0,0.1,0,0.2,0c0,0,0-0.1,0-0.3c-0.6-1-1.2-1.9-2-2.7c0-0.1-0.1-0.1-0.2-0.1l0,0
		c0,0,0,0.1,0,0.1c0.4,0.6,1,1.2,1.3,1.8c0,0.1,0,0.2,0,0.3l0,0l0,0l0,0c-0.1,0-0.1,0-0.2-0.1c-0.7-0.9-1.4-1.8-2.1-2.7
		c0,0-0.1-0.1-0.1-0.1c-0.1,0-0.2,0-0.2,0.1c0,0.1,0,0.1,0,0.2l0.1,0.2C23.9,27.7,25,29.3,26.3,29.8L26.3,29.8z"/>
	<path class="st0" d="M29.1,19.8C29,19.9,29,20,28.9,20.1c0,0.3,0,0.4,0,0.4l0,0H29c0.4-0.3,0.6-0.7,0.6-1.2l-0.2-2
		c0-0.1-0.1-0.2-0.1-0.2h-0.1c0,0.1,0,0.2,0,0.3v0.4c0,0.2,0,0.5,0,0.7s0,0.4,0,0.7C29.3,19.3,29.2,19.5,29.1,19.8L29.1,19.8z"/>
	<path class="st0" d="M27.5,17.9c-0.1,0-0.1,0.1-0.1,0.1c-0.3,0.8-0.4,1.7-0.3,2.5c0,0.3,0.3,0.5,0.6,0.5c0.5-0.1,0.9-0.4,1-0.9
		c0.2-0.9,0.2-1.8,0.1-2.7c0-0.2-0.1-0.3-0.1-0.3h-0.1c-0.1,0.1-0.1,0.1-0.1,0.2c0.1,0.8,0,1.7-0.2,2.5c-0.2,0.3-0.4,0.5-0.6,0.5
		c-0.2,0-0.3,0-0.3-0.4C27.4,19.4,27.5,18.7,27.5,17.9C27.6,18,27.6,17.9,27.5,17.9"/>
	<path class="st0" d="M28,19.8c0.2-0.7,0.2-1.4,0.1-2.2c0-0.1,0-0.1,0-0.1c-0.1,0-0.1,0.1-0.1,0.2l-0.1,2.2c0,0.1,0,0.1,0.1,0.1
		C28,19.9,28,19.9,28,19.8"/>
	<path class="st0" d="M25.2,21c-0.1,0-0.2,0-0.3-0.1c-0.1-0.1,0-0.3,0-0.5l0.4-1.6c0,0,0-0.1,0-0.1h-0.1c0,0-0.1,0-0.2,0.2
		c-0.1,0.4-0.3,0.7-0.4,1.1c-0.1,0.4-0.2,0.5-0.3,0.9c-0.1,0.1-0.1,0.3,0,0.4c0.2,0.2,0.5,0.3,0.8,0.3l0,0c0.8-0.1,1.2-0.4,1.3-0.9
		l0.3-2.1c0-0.1,0-0.1,0-0.2h-0.1c0,0-0.1,0.1-0.2,0.2l-0.3,1.6C26.2,20.8,25.8,21.1,25.2,21"/>
	<path class="st0" d="M26,18.3c-0.1,0-0.1,0.1-0.2,0.2c-0.1,0.6-0.2,1.2-0.3,1.8c0,0,0,0.1,0,0.1h0.1c0.1,0,0.1,0,0.2-0.2
		C25.9,19.6,26,19,26,18.3C26.1,18.3,26.1,18.3,26,18.3"/>
	<path class="st0" d="M22.9,21.1c0.1,0.1,0.3,0.1,0.5,0.1c0.3,0,0.6-0.2,0.7-0.5l0.6-1.7c0-0.1,0-0.2,0-0.2c0,0,0,0-0.1,0
		c-0.2,0.6-0.5,1.2-0.8,1.7c-0.1,0.1-0.2,0.2-0.4,0.2c-0.1,0-0.2-0.1-0.3-0.2c-0.1-0.1-0.1-0.3,0-0.4c0.3-0.5,0.5-1,0.7-1.5
		c0-0.1,0-0.1,0-0.2c-0.1,0-0.1,0-0.1,0.1c-0.2,0.6-0.5,1.1-0.8,1.6c-0.1,0.1-0.2,0.3-0.1,0.5C22.8,20.9,22.9,21,22.9,21.1"/>
	<path class="st0" d="M24,18.9c-0.1,0.5-0.3,0.9-0.6,1.4c0,0.1,0,0.2,0.1,0.2c0,0,0,0,0,0l0,0c0.1,0,0.1,0,0.1-0.1
		c0.3-0.4,0.5-0.9,0.6-1.4c0-0.1,0-0.2-0.1-0.2C24.2,18.8,24.2,18.8,24,18.9"/>
	<path class="st0" d="M23.1,18.8C23.1,18.8,23.1,18.8,23.1,18.8c-0.2,0.5-0.4,0.8-0.7,1.2c0,0,0,0.1,0,0.1h0.1
		c0.3-0.3,0.5-0.7,0.7-1.2c0,0,0,0,0-0.1"/>
	<path class="st0" d="M21.6,20.4c0.1,0.2,0.3,0.3,0.5,0.4c0.1,0,0.2-0.1,0.2-0.1v-0.1L22,20.4c0,0-0.1-0.1-0.1-0.1
		c0-0.1,0-0.2,0.1-0.3c0.2-0.2,0.4-0.5,0.6-0.8c0-0.1,0-0.2,0-0.3l0,0c0,0-0.1,0-0.1,0.1c-0.3,0.4-0.5,0.7-0.9,1.1
		C21.6,20.3,21.5,20.4,21.6,20.4"/>
	<path class="st0" d="M21.4,21.1c-0.5,0.6-0.7,1.4-0.5,2.1c0.1,0.3,0.2,0.7,0.4,1c0.1,0.2,0.2,0.4,0.3,0.6c0.1,0.3,0.2,0.6,0.1,0.9
		c0,0,0,0.1,0.3,0.1c0.1,0,0.2,0,0.3,0c0.2-0.1,0.4-0.2,0.5-0.4c0.1-0.2,0.1-0.3,0-0.5c-0.7-1.6-0.7-2.6-0.1-3.4c0-0.1,0-0.1,0-0.2
		c0-0.1-0.1-0.1-0.1-0.1c-0.1,0-0.1,0-0.2,0.1c-0.4,0.4-0.5,0.9-0.5,1.4c0,0.4,0.1,0.7,0.2,1.1c0.1,0.3,0.2,0.5,0.2,0.8
		c0.1,0.1,0.1,0.2,0,0.3c0,0.1-0.1,0.1-0.1,0.1c0,0-0.2,0-0.3-0.3c-0.1-0.3-0.2-0.5-0.3-0.7l0,0c-0.1-0.3-0.2-0.7-0.3-1.1
		c0-0.6,0.1-1.1,0.5-1.6l0,0c0-0.1,0-0.2,0-0.2c0-0.1-0.1-0.1-0.2-0.1C21.5,21,21.4,21.1,21.4,21.1"/>
	<path class="st0" d="M22.8,24.1c0.2,0.7,0.5,1.4,0.9,1.9c0.2,0.2,0.4,0.2,0.7,0.2c0.4,0,0.7-0.2,0.8-0.6c0-0.2,0-0.4-0.1-0.6
		c0,0-0.1-0.1-0.1-0.2c-0.2-0.9-0.2-1.8,0-2.7c0-0.1,0-0.1,0-0.2c-0.1,0-0.1,0-0.2,0c-0.1,0-0.2,0-0.2,0.1c-0.3,1-0.3,2,0,3
		c0,0.2,0,0.3-0.1,0.5c-0.1,0.1-0.2,0.1-0.3,0.1c-0.2,0-0.3-0.1-0.4-0.2c-0.8-1-1-2.4-0.4-3.6c0.1-0.1,0.1-0.2,0-0.3
		c0,0-0.1-0.1-0.1-0.1c-0.1,0-0.2,0.1-0.2,0.1c-0.4,0.7-0.5,1.6-0.2,2.4"/>
	<path class="st0" d="M24.2,21.6c0,0-0.1,0-0.1,0c-0.1,0-0.2,0.1-0.2,0.1c-0.4,1-0.4,2.1,0.1,3.1c0,0,0.1,0.1,0.1,0.1l0,0
		c0-0.1,0-0.2,0-0.2c-0.4-0.9-0.4-1.9,0-2.8c0,0,0-0.1,0-0.2"/>
	<path class="st0" d="M25.8,21.9h-0.1c-0.1,0-0.2,0.1-0.2,0.2c-0.3,0.9-0.3,1.9,0,2.8c0.1,0.5,0.6,0.9,1.1,0.8
		c0.5,0,0.9-0.4,0.9-0.9c-0.2-1-0.2-2-0.1-3c0-0.1,0-0.1,0-0.2c0,0-0.1-0.1-0.2-0.1c-0.1,0-0.1,0.1-0.2,0.1
		c-0.2,0.8-0.2,1.6-0.1,2.4c0,0,0,0.1,0,0.2c0.1,0.2,0.1,0.4,0,0.6c-0.1,0.1-0.2,0.2-0.3,0.2c-0.2,0-0.4-0.1-0.5-0.3
		c-0.3-0.8-0.4-1.8-0.1-2.6c0-0.1,0-0.1,0-0.2"/>
	<path class="st0" d="M26.5,21.7L26.5,21.7c0,0-0.1,0-0.1,0.1c-0.2,0.8-0.2,1.6-0.1,2.4c0,0.1,0.1,0.2,0.2,0.1c0.1,0,0.2,0,0.2-0.2
		c-0.1-0.8-0.1-1.6,0-2.4L26.5,21.7z"/>
	<path class="st0" d="M28.8,20.9c0,0.2,0,0.3,0,0.5c0.3,0.7,0.4,1.4,0.3,2.2c0,0.2-0.2,0.4-0.4,0.4c-0.2,0-0.3-0.1-0.4-0.3
		c-0.2-0.7-0.2-1.3-0.2-2c0-0.1-0.1-0.2-0.2-0.2c0,0-0.1,0-0.1,0c0,0,0,0.1,0,0.1c-0.1,0.9,0.1,1.9,0.4,2.8c0.1,0.1,0.3,0.2,0.5,0.2
		c0.3,0,0.7-0.3,0.9-0.9c0.2-1-0.1-2-0.6-2.8h-0.1H28.8z"/>
	<path class="st0" d="M28.7,23.2c0,0,0.1-0.1,0.1-0.2c-0.1-0.6-0.2-1.1-0.2-1.7c0-0.1-0.1-0.2-0.1-0.2c0,0-0.1,0-0.1,0.1
		C28.3,22,28.4,22.6,28.7,23.2L28.7,23.2z"/>
	<path class="st0" d="M30,20c0,0,0,0,0,0.1c0,0.2,0.1,0.4,0.1,0.6l0,0c0.1,0.2,0.2,0.5,0.2,0.7c0,0.2-0.2,0.2-0.2,0.2H30
		c-0.2,0-0.3-0.4-0.4-0.6c0-0.2,0.1-0.2,0.1-0.1c0,0,0.1,0.1,0.1,0.1c0,0-0.1-0.5-0.1-0.5c-0.1,0-0.1,0-0.2,0c-0.1,0-0.2,0-0.2,0.1
		c-0.1,0-0.2,0.1-0.1,0.3c0.1,0.5,0.3,1.1,0.7,1.5c0,0,0.1,0,0.1,0c0.1,0,0.2,0,0.3-0.2c0.4-0.7,0.3-1.6-0.3-2.2H30"/>
	<path class="st0" d="M30.9,19.6L30.9,19.6c-0.1,0-0.2,0-0.2,0c0,0,0,0,0,0.1c0.1,0.1,0.1,0.2,0.2,0.3c0.2,0.2,0.4,0.5,0.1,0.8
		c-0.1,0-0.1,0,0,0.2c0.1,0.2,0.1,0.1,0.2,0.1c0.1,0,0.2,0,0.2-0.1l0.4-0.5v-0.1c0,0,0,0-0.1,0c-0.1,0-0.4-0.2-0.5-0.4
		C31.2,19.9,31.1,19.7,30.9,19.6"/>
	<path class="st0" d="M32,19.6c-0.1,0-0.1,0-0.2,0l-0.5-0.4h-0.1c0,0-0.1,0-0.1,0.1c0,0,0,0.1,0,0.1c0.2,0.3,0.4,0.5,0.7,0.7
		c0.1,0.1,0.1,0.1,0.2,0.1c0.1,0,0.1,0,0.2-0.1c0.1-0.1,0.2-0.3,0.4-0.4c0.2-0.2,0.4-0.4,0.5-0.7c0-0.1,0-0.1,0-0.2c0,0,0,0-0.1,0
		c-0.4,0-0.7-0.2-0.9-0.5H32c-0.1,0-0.1,0-0.2,0.1c0,0,0,0.1,0,0.1l0.5,0.5c0.1,0.1,0.1,0.2,0,0.4c-0.1,0.1-0.2,0.2-0.3,0.2"/>
	<path class="st0" d="M33,17.8c-0.1,0-0.2-0.1-0.3-0.2c0,0,0,0-0.1,0c-0.1,0,0,0-0.1,0s-0.2,0.3-0.1,0.4c0.2,0.2,0.4,0.4,0.7,0.4
		c0.2,0,0.3-0.1,0.4-0.3c0.2-0.4,0.3-0.7,0.3-1.1c0-0.1,0-0.1,0-0.2c0,0-0.1,0-0.1-0.1l0,0h-0.1c-0.3-0.2-0.6-0.3-0.9-0.5l0,0
		c-0.1,0.1,0,0.3,0.1,0.4l0.4,0.4c0.1,0.2,0.2,0.4,0.1,0.6C33.3,17.7,33.2,17.7,33,17.8"/>
	<path class="st0" d="M41.7,38.9c0.1-0.1,0.1-0.3,0-0.4c0-0.1-0.1-0.1-0.3-0.1s-0.6,0-0.6-0.6v-0.2h-0.1c-0.3,0.1-0.5,0.3-0.5,0.5
		c0,0.1-0.1,0.2-0.2,0.3c-0.1,0.1-0.3,0.2-0.4,0.2c-0.2,0-0.3-0.1-0.5-0.3s0-0.1,0-0.1l-0.1,0.1c-0.1,0.2-0.1,0.3-0.1,0.5
		c0,0.3,0,0.7-0.2,0.9c-0.4,0.7-0.8,1-1.4,1h-0.4h-0.1c-0.1,0-0.2,0.1-0.2,0.2c0,0.1,0,0.2,0,0.2c0.2,0.1,0.5,0.1,0.7,0.1
		c0.5,0,1-0.3,1.3-0.7c0.6-0.8,1.3-1.8,2.1-1.8c0.2,0,0.4,0,0.5,0.1l0,0c0.1,0.1,0.2,0.2,0.3,0.2C41.6,39,41.6,39,41.7,38.9"/>
	<path class="st0" d="M43.6,41.4c-0.2,0-0.4,0-0.5-0.2c-0.1-0.2-0.1-0.4,0-0.5v-0.1H43c-0.4,0.1-0.5,0.2-0.5,0.4
		c0,0.2-0.1,0.4-0.2,0.4c-0.9,0.5-1.9,0.7-2.9,0.8c-0.8,0-1.5-0.1-2.2-0.4c-0.4-0.1-0.8-0.2-1.2-0.3c-0.4-0.1-0.4,0.1-0.5,0.2
		c0,0.1,0,0.1,0.1,0.2l0.9,0.3c0.1,0,0.5,0.1,0.5,0.4c0,0.3,0.3,0.6,0.5,0.6h0.1c-0.1-0.1-0.1-0.3,0-0.4c0-0.1,0.1-0.2,0.2-0.1h0.2
		c0.5,0.1,1,0.1,1.5,0.1c0.3,0,0.6,0,1-0.1h0.1c0.1,0,0.2,0,0.2,0.1c0.2,0.2,0.5,0.3,0.8,0.3c0.1,0,0.3-0.1,0.4-0.1l0,0
		c-0.1,0-0.3-0.2-0.4-0.4c-0.1-0.2,0-0.3,0.2-0.3c0.3-0.1,0.6-0.2,0.9-0.4c0.1-0.1,0.2-0.1,0.3-0.1l0,0c0.6,0,0.7-0.2,0.7-0.3v-0.1
		L43.6,41.4"/>
	<path class="st0" d="M43.7,39.3c-0.2,0.3-0.6,0.5-1,0.5c-0.1,0-0.3,0-0.4,0c-0.1-0.1-0.2-0.2-0.2-0.3c0-0.2,0.2-0.4,0.5-0.7
		c0.2-0.1,0.4-0.2,0.6-0.2c0.2,0,0.4,0.1,0.5,0.2C43.8,38.9,43.8,39.2,43.7,39.3 M43,38.2c-0.2,0-0.4,0.1-0.6,0.2
		c-0.8,0.7-1,1.2-0.6,1.8c0.2,0.1,0.5,0.2,0.8,0.2c0.5,0,1-0.3,1.3-0.6c0.2-0.3,0.2-0.7,0-1C43.8,38.4,43.4,38.2,43,38.2"/>
	<path class="st0" d="M45.6,39c0-0.2-0.1-0.2-0.2-0.2h-0.1c-0.2,0-0.4,0.1-0.5,0.2c-0.1,0-0.1,0.1-0.1,0.1c0,0.1,0,0.2,0.1,0.2
		c0.2,0.1,0.4,0.1,0.7,0.2l0,0c0,0,0.1,0,0.1,0c0,0,0,0,0-0.1C45.5,39.2,45.5,39.1,45.6,39"/>
	<path class="st0" d="M45.3,38.1c-0.1-0.1-0.2-0.3-0.3-0.4c0,0-0.1-0.1-0.1-0.1c0,0-0.1,0-0.1,0.1c-0.2,0.1-0.3,0.3-0.4,0.5
		c0,0.1,0,0.2,0,0.3c0.1,0.1,0.2,0.1,0.3,0.1c0.2,0,0.5-0.1,0.7-0.3c0.1-0.1,0.1-0.1,0-0.2"/>
	<path class="st0" d="M44.2,37.1C44.1,37,44,37,44,37c0,0,0,0-0.1,0.1c-0.1,0.1-0.1,0.2-0.2,0.4c0,0.1,0,0.2,0,0.3c0,0,0.1,0,0.2,0
		H44c0.2-0.1,0.3-0.2,0.4-0.3v-0.1c0,0-0.1-0.1-0.1-0.1C44.3,37.2,44.2,37.1,44.2,37.1"/>
	<path class="st0" d="M46.1,36.8c-0.1,0-0.3,0.1-0.3,0.2c0,0.2-0.2,0.5-0.4,0.5c-0.1,0,0,0.2,0,0.2s0.1,0.3,0.3,0.2h0.1
		c0.1-0.2,0.3-0.3,0.5-0.3h0.3c0.1,0,0.2-0.1,0.2-0.2c0.1-0.2,0-0.4-0.1-0.5C46.5,36.8,46.3,36.8,46.1,36.8"/>
	<path class="st0" d="M24.4,41c0,0.1-0.1,0.3-0.3,0.3l0,0c0.1,0,0.2,0,0.2,0c0.2,0,0.4-0.1,0.6-0.2c0.2-0.2,0.4-0.2,0.7-0.3
		c0.2,0,0.4,0,0.5,0.1c0.2,0.1,0.3,0.2,0.3,0.3c0,0.1,0,0.2-0.1,0.3h0.2c0.3,0,0.6-0.2,0.7-0.6c0.2-0.2,0.4-0.4,0.7-0.4
		c0.1-0.2,0.2-0.3,0.2-0.5c0,0,0-0.1-0.1-0.2h-0.1c-0.6,0.3-1.3,0.5-1.9,0.5c-1.4,0-2.7-0.3-3.9-0.9c-0.4-0.1-0.5-0.5-0.4-0.9
		l0.5-1.5c0.2-0.5,0.6-0.7,1.1-0.7c1.3,0.2,2.5,0.7,3.5,1.5h0.1l0,0c0.1-0.1,0.1-0.3,0-0.4l-0.6-0.5c-0.2-0.1-0.2-0.3-0.2-0.5
		c0-0.5-0.3-0.6-0.5-0.7l0,0c0,0,0,0.1,0,0.1v0.4c0,0.1-0.1,0.2-0.2,0.1H25c-0.6,0-1.1-0.3-1.4-0.8c-0.2-0.3-0.3-0.4-0.7-0.4h-0.1
		l0.2,0.1c0.1,0.1,0.1,0.2,0.1,0.3c0,0.1-0.1,0.2-0.3,0.3c-0.1,0-0.2,0-0.3,0h-0.2c-0.1,0-0.3-0.1-0.4-0.1l0,0
		c-0.1-0.1-0.3-0.1-0.4-0.1c-0.1,0-0.2,0-0.2,0l0,0c0.3,0.2,0.5,0.6,0.3,0.9l-0.6,1.9c-0.1,0.5,0,1,0.4,1.3c0.4,0.2,0.6,0.3,0.7,0.5
		c0,0.2-0.1,0.2-0.3,0.4l0,0c0.1,0.1,0.2,0.1,0.4,0.1c0.2,0,0.4-0.1,0.5-0.2c0.1-0.1,0.3-0.2,0.5-0.2c0.1,0,0.2,0,0.3,0
		c0.7,0.2,1,0.4,1,0.6"/>
	<path class="st0" d="M21,37c0,0,0.1,0,0.1-0.1c0,0,0-0.1,0-0.2c-0.2-0.4-0.5-0.7-0.9-0.9h-0.1c0,0-0.1,0-0.1,0c0,0.1,0,0.1,0,0.2
		c0.3,0.2,0.6,0.5,0.9,0.9L21,37z"/>
	<path class="st0" d="M15,37c0,0.4,0,0.9-0.4,0.9l0,0c0.1,0.1,0.3,0.1,0.5,0.1c0.1,0,0.3,0,0.4-0.1c0-0.1,0.1-0.1,0.2-0.1
		c0,0,0.1,0,0.1,0l1.2,0.6c0.2,0.1,0.2,0.1,0.3,0.3s0,0.2-0.2,0.3c0.1,0,0.2,0.1,0.4,0.1c0.2,0,0.4-0.1,0.5-0.2
		c0.1-0.1,0.1-0.1,0.2-0.1h0.8c0.5,0,1-0.1,1.5-0.2c0.1-0.1,0.2-0.3,0.2-0.4c0,0,0,0,0,0h-0.1c-0.4,0.1-0.9,0.2-1.4,0.2
		c-1.1,0-2.2-0.4-3.1-1c-0.2-0.1-0.3-0.3-0.3-0.8c0.2-0.5,0.4-1,0.8-1.5c0.1-0.1,0.2-0.2,0.3-0.2h0.4c0.4,0,0.4-0.1,0.4-0.3l0,0
		h-0.2c-0.3,0-0.5-0.1-0.7-0.3c-0.1-0.1-0.3-0.2-0.4-0.3l0,0c0.2,0.2,0.2,0.4,0.1,0.6c0,0,0,0-0.1,0.1c-0.6,0.6-1,1.4-1,2.3"/>
	<path class="st0" d="M18.2,36L18.2,36c-0.2-0.4-0.2-0.8,0-1.2c0.1-0.1,0.3-0.2,0.4-0.2c0.2,0,0.3,0.1,0.4,0.2
		c0.1,0.2,0.2,0.5,0.1,0.7c-0.1,0.5-0.3,0.7-0.6,0.7C18.4,36.2,18.3,36.1,18.2,36 M19.6,35.7c0.1-0.4,0-0.7-0.2-1.1
		c-0.2-0.2-0.5-0.4-0.8-0.4c-0.2,0-0.4,0.1-0.6,0.2c-0.2,0.3-0.4,0.6-0.3,1c0,0.4,0.2,0.8,0.5,1.1c0.1,0,0.2,0,0.4,0
		C19.1,36.6,19.4,36.3,19.6,35.7"/>
	<path class="st0" d="M20,34.3c0.2,0,0.4-0.1,0.5-0.3c0.1-0.1,0-0.2-0.1-0.3c0,0,0,0,0,0l-0.3-0.2h-0.1c0,0-0.1,0-0.2,0.1
		c-0.1,0.1-0.2,0.3-0.1,0.4C19.8,34.3,19.9,34.4,20,34.3L20,34.3z"/>
	<path class="st0" d="M19.5,33.2l-0.4-0.1H19c0,0,0,0,0,0.2v0.5c0,0.1,0.1,0.1,0.2,0.1c0.1,0,0.2,0,0.2-0.1l0.2-0.3
		c0-0.1,0-0.2,0-0.2C19.6,33.3,19.6,33.3,19.5,33.2"/>
	<path class="st0" d="M18.5,33.1h-0.4c0,0-0.1,0-0.1,0c0,0.1,0,0.2,0,0.3c0.1,0.2,0.3,0.5,0.4,0.5c0.2,0,0.1,0,0.2-0.2
		c0-0.1,0-0.2,0-0.2v-0.2C18.6,33.3,18.6,33.2,18.5,33.1L18.5,33.1z"/>
	<path class="st0" d="M13.3,36.3h0.1c0.3,0.1,0.6,0.1,0.8,0.1c0.1,0,0.2,0,0.3,0c0.1,0,0.1-0.1,0.1-0.2c0-0.1-0.1-0.1-0.2-0.1
		c-1.4-0.2-2.7-1-3.4-2.3c-0.2-0.3-0.2-0.7,0-0.9c0.3-0.4,0.7-0.8,1.2-1c0.1-0.1,0.3-0.1,0.5-0.1c0.2,0,0.4,0.1,0.5,0.2
		c0.8,0.7,1.4,1.7,1.7,2.7c0,0.2,0.1,0.3,0.2,0.3c0.1,0,0.1,0,0.2-0.2l-0.1-0.5c-0.1-0.1-0.1-0.3,0-0.4c0.4-0.5,0.4-0.8,0-1.1l0,0
		c-0.1,0.3-0.3,0.5-0.4,0.5c-0.1,0-0.2-0.1-0.3-0.3c-0.3-0.5-0.7-0.9-1.2-1.2c-0.2-0.1-0.3-0.3-0.2-0.4c-0.1-0.5-0.3-0.6-0.5-0.6
		l0,0c0.1,0.4,0,0.7-0.5,0.9c-0.7,0.2-1.4,0.8-1.7,1.5c0,0.1-0.1,0.3-0.2,0.3c-0.1,0-0.3-0.1-0.4-0.2l0,0v0.1c0,0.3,0.1,0.6,0.4,0.7
		c0.2,0,0.3,0.1,0.4,0.3c0.1,0.2,0.2,0.4,0.4,0.6c0.1,0.1,0.2,0.2,0.1,0.3c0,0.1-0.2,0.2-0.4,0.2l0,0c0.2,0.2,0.4,0.3,0.7,0.3h0.1
		c0.1,0,0.2,0,0.3,0.1l0.5,0.3c0.1,0.1,0.2,0.1,0.2,0.2s-0.1,0.2-0.3,0.3l0,0c0.1,0.1,0.3,0.1,0.4,0.1c0.2,0,0.4,0,0.5-0.2
		C13.2,36.4,13.3,36.3,13.3,36.3"/>
	<path class="st0" d="M10.5,29.8c0.1,0,0.4,0,0.6,0.5c0.2,0.5,0.2,0.7,0.1,0.9c-0.1,0.1-0.2,0.2-0.3,0.1h-0.1
		c-0.4-0.2-0.7-0.6-0.7-1C10,30,10.3,29.8,10.5,29.8 M9.8,29.9c-0.1,0.3-0.1,0.6,0,0.9c0.2,0.4,0.6,0.8,1.1,0.9H11
		c0.3,0,0.5-0.1,0.6-0.4c0.2-0.5,0.1-1-0.2-1.4c-0.2-0.3-0.5-0.6-0.9-0.6C10.2,29.4,9.9,29.6,9.8,29.9"/>
	<path class="st0" d="M10.7,29.1c0.1,0,0.2-0.1,0.2-0.2c0.1-0.1,0.1-0.3,0.1-0.5c0-0.1,0-0.2-0.1-0.2c-0.1,0-0.2,0-0.3,0
		c-0.1,0-0.1,0-0.2,0c0,0-0.1,0.1-0.1,0.3C10.4,28.7,10.5,29.1,10.7,29.1"/>
	<path class="st0" d="M10.1,29.2c0.1-0.2,0.1-0.4,0-0.7c0,0,0-0.1,0-0.1c-0.1,0-0.1,0-0.2,0c-0.2,0-0.4,0.1-0.5,0.3c0,0,0,0.1,0,0.2
		c0.2,0.3,0.4,0.4,0.5,0.4c0,0,0.1,0,0.1,0"/>
	<path class="st0" d="M9.2,28.9c-0.1,0-0.4,0.2-0.4,0.4c0,0,0,0.1,0,0.1c0.1,0.1,0.3,0.2,0.5,0.3c0.1,0,0.2,0,0.2-0.1
		C9.5,29.5,9.5,29.2,9.2,28.9L9.2,28.9z"/>
	<path class="st0" d="M9,27.7c0.2,0,0.3,0.2,0.3,0.3c0,0.1,0.1,0.2,0.2,0.2c0.1,0,0.1,0,0.2-0.1c0.1-0.1,0.1-0.2,0-0.3
		c-0.1-0.1-0.1-0.2,0-0.3c0.1-0.1,0.1-0.3,0-0.4c-0.1-0.1-0.2-0.1-0.3-0.1c-0.2,0-0.4,0.1-0.5,0.3c0,0.2,0.1,0.4,0.3,0.5"/>
	<path class="st0" d="M20.1,40.7c-0.1,0.1-0.2,0.1-0.3,0.1c-0.2,0-0.3-0.1-0.4-0.2c-0.1-0.2,0-0.4,0.1-0.5c0.1-0.1,0.2-0.1,0.3-0.1
		c0.2,0,0.3,0.1,0.4,0.3C20.3,40.3,20.3,40.5,20.1,40.7 M20.6,40.7c0.1-0.3,0-0.6-0.2-0.9c-0.2-0.2-0.4-0.3-0.6-0.3
		c-0.3,0-0.6,0.2-0.7,0.4c-0.1,0.3-0.1,0.7,0.1,1c0.3,0.4,0.8,0.4,1.1,0.1C20.5,40.9,20.6,40.8,20.6,40.7"/>
	<path class="st0" d="M16.2,43.6c-0.1,0.1-0.2,0.1-0.3,0.1c-0.2,0-0.3-0.1-0.4-0.2c-0.1-0.2,0-0.4,0.1-0.5c0.1-0.1,0.2-0.1,0.3-0.1
		c0.2,0,0.3,0.1,0.4,0.3C16.4,43.3,16.4,43.5,16.2,43.6 M15.9,42.4c-0.3,0-0.6,0.1-0.7,0.4c-0.1,0.3-0.1,0.7,0.1,1
		c0.1,0.2,0.4,0.3,0.6,0.3l0,0c0.3,0,0.6-0.2,0.7-0.5c0.1-0.3,0.1-0.6-0.2-0.9C16.4,42.5,16.1,42.4,15.9,42.4"/>
	<path class="st0" d="M37.6,47c-0.1,0.1-0.2,0.1-0.3,0.1c-0.2,0-0.4-0.1-0.4-0.3c-0.1-0.2,0-0.4,0.1-0.6c0.2-0.2,0.5-0.1,0.7,0.1
		C37.8,46.5,37.8,46.8,37.6,47 M37.2,45.7c-0.3,0-0.6,0.2-0.8,0.4c-0.1,0.3-0.1,0.7,0.2,1c0.2,0.2,0.4,0.3,0.7,0.3
		c0.4,0,0.7-0.2,0.8-0.5c0.1-0.3,0-0.7-0.2-0.9C37.8,45.8,37.5,45.7,37.2,45.7"/>
	<path class="st0" d="M22.4,43c-0.7-0.4-1.3-0.9-1.7-1.6c0-0.1-0.1-0.1-0.2-0.1c0,0-0.1,0-0.1,0c0,0.1,0,0.2,0,0.3
		c0.4,0.8,1.2,1.4,2,1.6c0,0,0.1,0,0.1-0.1C22.6,43,22.6,43,22.4,43"/>
	<path class="st0" d="M22.3,46.2c-0.5-0.1-1.1-0.2-1.6-0.3c-0.1,0-0.1,0-0.1,0.1c0,0.1,0.1,0.2,0.1,0.2c0.6,0.1,1.1,0.3,1.7,0.6h0.1
		c0,0,0,0,0-0.1v-0.4C22.4,46.3,22.4,46.3,22.3,46.2"/>
	<path class="st0" d="M19.4,45.4c-0.4,0-0.8,0.2-1.1,0.5c0,0,0,0.1,0,0.2s0,0,0.1,0c0.1,0,0.2,0,0.3-0.1c0.2-0.2,0.5-0.3,0.8-0.3
		h0.1c0.2,0,0.3,0.2,0.3,0.3c0,0.1-0.1,0.2-0.2,0.2c0,0-0.1,0-0.1,0c-0.1,0-0.1,0-0.2,0h-0.1c-0.2,0.1-0.4,0.1-0.5,0.2l0,0h-0.1
		h-0.1c0,0,0,0,0.1,0c0.3,0.1,0.6,0.1,0.8,0.1c0.3,0,0.6-0.1,0.7-0.3c0.1-0.2,0.1-0.4,0-0.6c-0.2-0.2-0.4-0.4-0.7-0.4"/>
	<path class="st0" d="M13.1,38.9c0,0-0.2,0-0.2,0.1c0,0.1,0.2,0.2,0.5,0.3c0.4,0,0.8,0.1,1.1,0.4c0.2,0.2,0.2,0.3,0.1,0.4
		c0,0.1-0.1,0.2-0.3,0.2c-0.1,0-0.2-0.1-0.2-0.2c0-0.1,0-0.2-0.2-0.3c-0.2-0.1-0.4-0.1-0.7-0.2h-0.3H13c0,0,0,0.1,0,0.1
		c0.7,0.9,1.2,1,1.5,1c0.2,0,0.4-0.1,0.5-0.3c0.1-0.2,0.1-0.5,0-0.7C14.6,39.1,13.9,38.8,13.1,38.9"/>
	<path class="st0" d="M40.4,43.8c-0.4-0.2-0.8-0.3-1.3-0.3c-0.3,0-0.6,0.1-0.8,0.3c-0.2,0.1-0.3,0.4-0.3,0.6c0,0.4,0.3,0.7,0.9,0.7
		c0.5,0,0.9-0.2,1.3-0.5c0.1-0.1,0.1-0.1,0.1-0.1c0,0-0.1,0-0.1,0h-0.3c-0.3-0.1-0.5-0.1-0.8-0.1c-0.1,0-0.3,0-0.3,0.2
		c0,0.1-0.1,0.1-0.2,0.1c-0.1,0-0.3-0.1-0.3-0.2c0,0,0-0.2,0.3-0.3c0.1,0,0.3-0.1,0.4-0.1c0.3,0,0.5,0,0.8,0.2h0.3
		c0.3,0,0.4-0.1,0.4-0.1C40.5,44,40.5,43.9,40.4,43.8"/>
	<path class="st0" d="M35.9,44.6c0.6,0,1.1-0.1,1.6-0.4c0,0,0.1-0.1,0.1-0.2c-0.1-0.1-0.1-0.1-0.3-0.1c0,0-0.1,0-0.1,0
		c-0.5,0.1-1.1,0.2-1.6,0.2c-0.4,0-0.7,0-1.1,0c-0.1,0-0.2,0.1-0.2,0.2s0.1,0.2,0.3,0.2C35.1,44.5,35.5,44.5,35.9,44.6"/>
	<path class="st0" d="M35.9,45.8c-0.1,0-0.1-0.1-0.1-0.2c0-0.1,0.1-0.1,0.3-0.2l1.5-0.4c0.1,0,0.1-0.1,0.1-0.1c0,0,0-0.2-0.3-0.2
		l0,0c-1.4,0.2-2.1,0.5-2.2,0.9c-0.1,0.3,0.2,0.5,0.6,0.7c0.1,0,0.1,0,0.2,0c0.1,0,0.2,0,0.2-0.1c0-0.1,0-0.1,0-0.2L35.9,45.8z"/>
	<path class="st0" d="M35.8,46.6L34.4,47c-0.1,0.1-0.1,0.2,0,0.2c0,0.1,0.1,0.2,0.2,0.2h0.1l1.2-0.3c0.1,0,0.1-0.1,0.1-0.2
		C36.1,46.8,36,46.7,35.8,46.6"/>
	<path class="st0" d="M21,44.7c-0.2-0.7-1.7-1.3-3.7-1.5c-0.1,0-0.2,0-0.2,0.1c0,0.1,0,0.2,0.2,0.2c1,0.2,2.1,0.5,3,1.1
		c0.1,0.1,0.2,0.2,0.2,0.3c0,0.1-0.1,0.2-0.1,0.2c-0.1,0-0.1,0.1-0.1,0.2c0,0.2,0.1,0.2,0.2,0.2h0.2c0.2-0.2,0.4-0.5,0.3-0.8"/>
	<path class="st0" d="M17.5,42.5c0-0.3-0.3-1-2-1.8h-0.1c0,0,0,0-0.1,0c0,0.1,0,0.1,0.1,0.2l0.3,0.2l0.2,0.1c0.4,0.2,0.7,0.5,1,0.8
		c0.1,0.1,0.1,0.1,0.1,0.2c0,0.1,0,0.1-0.1,0.1c0,0.1,0,0.1,0,0.1c0.1,0.1,0.2,0.1,0.4,0.1C17.4,42.7,17.5,42.6,17.5,42.5"/>
	<path class="st0" d="M17.8,41.5l0.7,0.3c0.3,0.2,0.6,0.3,0.9,0.4h0.1c0.3,0,0.4-0.1,0.5-0.3c0-0.2-0.1-0.3-0.2-0.4h-0.1l0,0
		c-0.1,0.1-0.2,0.2-0.3,0.2h-0.2c-1.1-0.5-2.2-1-3.3-1.6h-0.2c0,0-0.1,0-0.1,0v0.1C16.3,40.7,17,41.2,17.8,41.5"/>
	<path class="st0" d="M5.5,24.4L5.5,24.4c0.2,0.1,0.4,0.2,0.5,0.4c0.1,0.2,0.1,0.4,0,0.7c0,0.2,0,0.3-0.1,0.5c0,0,0,0-0.2,0
		l-1.3-0.2v-0.4c0-0.2,0.1-0.3,0.1-0.3c0.1,0,0.3,0,0.4,0l0,0v-0.2l-1.4-0.2v0.2l0,0c0.1,0,0.3,0.1,0.4,0.2c0,0,0,0.1,0,0.3v0.4
		l-1.2-0.1c-0.1,0-0.1,0-0.1,0s0,0,0-0.1L2.8,25c0-0.3,0.1-0.4,0.2-0.5c0.1,0,0.2-0.1,0.5-0.1l0,0v-0.2l-0.7-0.1l-0.3,2.5h0.2l0,0
		c0.1-0.2,0.1-0.2,0.1-0.3c0-0.1,0,0,0.2,0h0.2l2.6,0.3c0.3,0,0.3,0.1,0.4,0.1c0,0.1,0,0.2,0,0.3l0,0h0.2l0.3-2.5l-1-0.4L5.5,24.4z"
		/>
	<path class="st0" d="M6.2,21.8c-0.2-0.1-0.4-0.1-0.6,0c-0.2,0.1-0.5,0.2-0.7,0.4l-0.4,0.3c-0.1,0.1-0.2,0.2-0.4,0.2
		c-0.1,0-0.2,0-0.4,0c-0.1,0-0.2-0.1-0.3-0.2c0-0.1,0-0.2,0-0.3c0.1-0.2,0.2-0.3,0.3-0.4c0.2-0.1,0.5-0.2,0.8-0.1l0,0v-0.2l-1.3-0.2
		v0.2l0,0c0,0,0.1,0,0.1,0s0,0,0,0.1c0,0.1-0.1,0.1-0.1,0.2C3.1,21.8,3.1,21.9,3,22c-0.1,0.2,0,0.5,0.1,0.7c0.2,0.2,0.4,0.4,0.7,0.4
		c0.2,0.1,0.4,0.1,0.7,0c0.1-0.1,0.2-0.1,0.3-0.2l0.4-0.3c0.2-0.1,0.3-0.2,0.5-0.3c0.1-0.1,0.3-0.1,0.5,0c0.2,0,0.3,0.1,0.4,0.3
		c0,0.1,0,0.2,0,0.4c-0.1,0.3-0.3,0.4-0.5,0.5c-0.2,0.1-0.4,0.1-0.7,0.1l0,0v0.2L6.7,24v-0.2l0,0H6.6l0,0c0,0,0,0,0.1-0.2
		c0.1-0.1,0.2-0.3,0.2-0.4c0.1-0.3,0-0.5-0.1-0.8c-0.2-0.2-0.4-0.4-0.7-0.5"/>
	<path class="st0" d="M7.8,19.8c0,0.1-0.1,0.2-0.2,0.3c-0.1,0-0.3,0-0.4-0.1L4.6,19v-0.2c0-0.2,0.2-0.3,0.3-0.4c0.2,0,0.4,0,0.6,0
		l0,0l0.1-0.2l-1-0.4l-0.9,2.6l1,0.4v-0.2l0,0c-0.2-0.1-0.3-0.3-0.4-0.5c-0.1-0.2-0.1-0.3,0-0.5v-0.2l2.6,1c0.1,0,0.3,0.1,0.4,0.2
		c0,0,0,0.1,0,0.3l0,0l0.2,0.1l0.5-1.3H7.8L7.8,19.8z"/>
	<path class="st0" d="M7.6,17.1l-0.4,0.8l-1-1L7.6,17.1z M9.4,16.6c0,0.1-0.1,0.1-0.2,0.1c-0.1,0-0.3,0-0.4,0l-3.4-0.5l-0.1,0.1
		l2,2.2c0.2,0.2,0.4,0.4,0.5,0.6c0,0.1,0,0.2,0,0.3l0,0l0.2,0.1l0.5-0.9l-0.2-0.1l0,0l-0.1,0.2c0,0-0.1,0-0.2,0l-0.1-0.1l-0.5-0.5
		l0.5-1l0.5,0.1h0.2h0.1c0,0,0.1,0,0.1,0.1c0,0.1,0,0.2,0,0.2l0,0l0.2,0.1l0.6-1.1l-0.2-0.1L9.4,16.6z"/>
	<path class="st0" d="M10.4,14.6c0,0.3-0.1,0.6-0.3,0.8c0,0.1-0.1,0.1-0.1,0.1c0,0-0.1,0-0.1,0l-2.3-1.8c-0.1-0.1-0.1-0.1-0.1-0.1
		c0,0,0,0,0-0.2c0.2-0.3,0.5-0.5,0.9-0.5h0.2c0.4,0,0.8,0.2,1.1,0.4C10,13.7,10.3,14.1,10.4,14.6 M10.5,13.6
		c-0.2-0.2-0.4-0.4-0.6-0.5c-0.5-0.4-1.2-0.6-1.8-0.3c-0.3,0.2-0.6,0.4-0.8,0.7l-0.7,1l0.2,0.1l0,0c0.1-0.1,0.2-0.2,0.3-0.2
		s0.1,0,0.3,0.2l2,1.5c0.2,0.1,0.3,0.2,0.3,0.3c0,0,0,0.1-0.1,0.3l0,0l0.1,0.1l0.8-1.1c0.2-0.2,0.3-0.5,0.4-0.8c0-0.2,0-0.3,0-0.5
		C10.7,14.1,10.6,13.8,10.5,13.6"/>
	<path class="st0" d="M12.5,12.7c-0.2,0.2-0.5,0.3-0.7,0.2c-0.4-0.1-0.8-0.4-1.1-0.7c-0.3-0.3-0.6-0.7-0.7-1.1
		c-0.1-0.3,0-0.5,0.2-0.7c0.1-0.2,0.3-0.2,0.5-0.2h0.2c0.4,0.1,0.8,0.4,1.1,0.7c0.4,0.3,0.6,0.7,0.7,1.1
		C12.8,12.1,12.7,12.4,12.5,12.7 M12.4,10.3C12,9.9,11.5,9.7,11,9.6c-0.4,0-0.8,0.1-1.1,0.4c-0.3,0.3-0.4,0.7-0.4,1.1
		c0.1,0.5,0.3,1,0.7,1.4c0.3,0.4,0.8,0.6,1.3,0.7h0.2c0.4,0,0.7-0.1,1-0.4c0.3-0.3,0.4-0.7,0.4-1.1C13,11.2,12.8,10.7,12.4,10.3"/>
	<path class="st0" d="M14.5,9.1C14.3,9,14.1,9,13.8,9h-0.6c-0.1,0-0.3,0-0.4,0c-0.1,0-0.2-0.1-0.3-0.2c-0.1-0.1-0.1-0.2-0.1-0.3
		c0-0.1,0.1-0.2,0.1-0.3C12.7,8.1,12.9,8,13,8c0.3,0.1,0.5,0.2,0.7,0.4l0,0l0.2-0.1L13,7.3l-0.1,0.1l0,0c0,0,0,0.1,0,0.1l0,0
		c0,0,0,0-0.2,0.1c-0.1,0-0.3,0.1-0.4,0.2C12.1,7.9,12,8.2,12,8.4c0,0.3,0.1,0.5,0.3,0.7c0.1,0.2,0.3,0.3,0.5,0.4c0.1,0,0.3,0,0.4,0
		h0.5c0.2,0,0.3,0,0.5,0c0.2,0,0.3,0.1,0.4,0.3c0.1,0.1,0.2,0.3,0.2,0.4c0,0.1-0.1,0.2-0.2,0.3c-0.2,0.2-0.5,0.2-0.7,0.1
		c-0.2-0.1-0.4-0.2-0.6-0.3l0,0l-0.2,0.1l0.9,0.9l0.1-0.1l0,0v-0.1l0,0c0.1,0,0.2,0,0.3,0c0.2,0,0.3-0.1,0.4-0.2
		c0.2-0.2,0.4-0.4,0.4-0.7c0-0.3-0.1-0.6-0.3-0.8C14.9,9.3,14.7,9.2,14.5,9.1"/>
	<path class="st0" d="M18.7,5.1c-0.1-0.2-0.2-0.3-0.2-0.5c0-0.1,0.1-0.2,0.2-0.3l0,0l0-0.2l-1,0.5l0.1,0.2l0,0c0.1,0,0.2,0,0.3,0
		c0.1,0.1,0.2,0.3,0.3,0.5l0.6,1.3c0.1,0.2,0.2,0.5,0.3,0.7c0,0.3-0.2,0.6-0.4,0.7c-0.2,0.1-0.6,0.1-0.8-0.1
		c-0.2-0.2-0.3-0.4-0.4-0.6L17,5.7c-0.1-0.2-0.1-0.3-0.1-0.4c0,0,0-0.1,0.2-0.2l0,0L17,5l-1.2,0.6v0.2l0,0c0.1,0,0.2,0,0.3,0
		c0,0,0.1,0.1,0.2,0.3l0.8,1.6c0.1,0.3,0.3,0.5,0.5,0.7c0.2,0.2,0.4,0.2,0.7,0.3c0.2,0,0.4,0,0.6-0.1c0.4-0.2,0.7-0.6,0.7-1
		c0-0.3-0.1-0.6-0.3-0.9L18.7,5.1z"/>
	<path class="st0" d="M22.1,3.4c0-0.1,0.1-0.1,0.3-0.2l0,0V3l-1.1,0.3v0.2l0,0c0.1,0,0.2,0,0.3,0c0.1,0.1,0.2,0.3,0.3,0.5l0.6,1.6
		l-2.4-1.9l-0.8,0.3v0.2l0,0h0.2c0.1,0,0.1,0.1,0.2,0.1l0,0l0.9,2.4c0.1,0.2,0.1,0.4,0.1,0.5c-0.1,0.1-0.2,0.2-0.3,0.2l0,0v0.2
		l1.1-0.3V7l0,0c-0.1,0-0.2,0-0.3,0c-0.1-0.1-0.2-0.3-0.3-0.5l-0.6-1.9l2.7,2.3h0.1L22.3,4C22.2,3.8,22.2,3.6,22.1,3.4"/>
	<path class="st0" d="M25,6.2h-0.1c-0.1,0-0.1,0-0.2,0c0,0,0-0.1-0.1-0.4L24,3.3c0-0.2,0-0.3,0-0.4c0,0,0.1-0.1,0.3-0.1l0,0V2.6
		l-1.4,0.3v0.2l0,0c0.2,0,0.3,0,0.3,0s0.1,0.1,0.1,0.3l0.5,2.5c0,0.3,0,0.3,0,0.4c-0.1,0.1-0.2,0.1-0.3,0.1l0,0v0.2L25,6.3L25,6.2
		L25,6.2z"/>
	<path class="st0" d="M26.2,5.9h-0.1c0,0,0,0,0-0.1l-0.3-2.9c0-0.1,0-0.1,0-0.1H26h0.1c0.3,0,0.6,0.1,0.8,0.3
		c0.3,0.3,0.5,0.8,0.5,1.2c0.1,0.5-0.1,1-0.4,1.4C26.9,5.8,26.6,5.9,26.2,5.9L26.2,5.9z M27.1,2.5c-0.3-0.2-0.7-0.2-1.1-0.2
		l-1.3,0.1v0.2l0,0c0.2,0,0.3,0,0.3,0.1c0.1,0.1,0.1,0.2,0.1,0.4l0.3,2.5c0,0.3,0,0.3,0,0.4c0,0-0.1,0.1-0.3,0.1l0,0v0.2l1.3-0.1
		c0.3,0,0.6-0.1,0.9-0.2c0.1-0.1,0.3-0.2,0.4-0.3C27.9,5.4,27.9,5.2,28,5c0-0.3,0-0.6,0-0.8C28,3.5,27.6,2.8,27.1,2.5"/>
	<path class="st0" d="M30.9,4.2c0,0.4-0.1,0.9-0.3,1.3c-0.1,0.2-0.4,0.4-0.7,0.4c-0.3,0-0.5-0.2-0.6-0.4c-0.2-0.4-0.2-0.9-0.2-1.3
		c0-0.4,0.1-0.9,0.3-1.3c0.1-0.2,0.4-0.4,0.6-0.4l0,0c0.3,0,0.5,0.2,0.6,0.4C30.9,3.3,31,3.8,30.9,4.2 M30.1,2.2
		c-0.4,0-0.8,0.2-1.1,0.5c-0.4,0.4-0.6,0.9-0.5,1.5c-0.1,0.5,0.1,1,0.4,1.5c0.2,0.4,0.6,0.6,1.1,0.6H30c0.4,0,0.7-0.2,1-0.4
		c0.4-0.4,0.6-0.9,0.5-1.5c0.1-0.5-0.1-1.1-0.4-1.5C30.9,2.5,30.5,2.2,30.1,2.2"/>
	<path class="st0" d="M34.2,2.7c0,0,0,0.1,0,0.1l0,0l0,0l-0.3-0.1c-0.1-0.1-0.2-0.1-0.4-0.2c-0.2,0-0.5,0-0.7,0.2
		c-0.2,0.2-0.3,0.4-0.4,0.7c-0.1,0.2-0.1,0.5-0.1,0.7c0.1,0.1,0.1,0.2,0.2,0.3L33,4.8c0.1,0.1,0.2,0.3,0.3,0.4
		c0.2,0.3,0.1,0.7-0.1,0.9c-0.1,0.1-0.2,0.1-0.4,0.1c-0.3-0.1-0.5-0.2-0.6-0.5c-0.1-0.2-0.1-0.4-0.1-0.6l0,0h-0.2l-0.1,1.3H32l0,0
		V6.3l0,0l0.2,0.1c0.1,0.1,0.3,0.2,0.4,0.2h0.2c0.2,0,0.4-0.1,0.6-0.2c0.4-0.3,0.5-0.9,0.4-1.3c-0.1-0.2-0.3-0.4-0.4-0.6L33,4.1
		c-0.1-0.1-0.2-0.2-0.3-0.4c0-0.1,0-0.2,0-0.4c0-0.1,0.1-0.2,0.2-0.3c0.1,0,0.2,0,0.3,0c0.2,0,0.3,0.1,0.4,0.3
		c0.1,0.2,0.2,0.5,0.2,0.8l0,0h0.2l0.1-1.3H34L34.2,2.7z"/>
	<path class="st0" d="M39.7,8.6c-0.1,0-0.2-0.1-0.2-0.2c0,0,0-0.1,0.1-0.4l1-2.3c0-0.1,0.1-0.2,0.2-0.3c0.1,0,0.2,0,0.3,0l0,0V5.2
		l-0.9-0.4l-1.8,2.1l0.2-3l-0.9-0.4l-0.1,0.2l0,0c0.2,0.1,0.2,0.2,0.3,0.2c0,0.1,0,0.2-0.1,0.4l-0.9,2.1c-0.1,0.2-0.2,0.3-0.3,0.5
		c-0.1,0-0.2,0-0.4,0l0,0l-0.1,0.2l1.1,0.5l0.1-0.2l0,0C37.1,7.3,37,7.2,37,7.2c0-0.2,0-0.4,0.1-0.6l0.8-1.8l-0.2,3h0.1l2.1-2.2
		L39,7.7c0,0.1-0.1,0.3-0.2,0.4c-0.1,0-0.2,0-0.3,0l0,0v0.2l1.2,0.5l0.1-0.2L39.7,8.6z"/>
	<path class="st0" d="M42.4,9.3L42.4,9.3c-0.2,0.2-0.4,0.3-0.6,0.3l0,0c-0.2,0-0.4-0.1-0.6-0.3C41,9.3,40.9,9.2,40.8,9
		c0,0,0-0.1,0-0.1l0.7-1.1L41.9,8c0.2,0.1,0.2,0.2,0.2,0.3c0,0.1-0.1,0.3-0.1,0.4l0,0l0.2,0.1l0.8-1.2l-0.2-0.1l0,0
		c-0.1,0.1-0.2,0.2-0.3,0.3c-0.1,0-0.2,0-0.3-0.1l-0.4-0.2l0.7-1c0,0,0-0.1,0.1-0.1h0.1L43,6.6c0.3,0.2,0.3,0.3,0.4,0.3
		c0,0.2,0,0.3-0.1,0.5l0,0l0.2,0.1L44,6.8l-2.2-1.2l-0.1,0.2l0,0c0.1,0.1,0.2,0.1,0.2,0.2c0,0.1-0.1,0.2-0.1,0.3l-1.3,2.1
		c-0.1,0.2-0.2,0.3-0.2,0.3c-0.1,0-0.2,0-0.3,0l0,0l-0.1,0.2l2.1,1.4l0.8-0.8L42.4,9.3z"/>
	<path class="st0" d="M44.6,12.2c-0.1-0.1-0.1-0.2-0.1-0.2c0-0.1,0-0.2,0-0.4l0.3-1.7l1.1-0.4c0.2-0.1,0.4-0.1,0.6-0.1
		c0.1,0,0.2,0.1,0.2,0.1l0,0l0.1-0.1L46,8.6l-0.1,0.1l0,0L46,8.9C46,9,46,9,46,9h-0.1c-0.1,0-0.2,0.1-0.3,0.1l-0.8,0.2L45,8.5V8.4
		c0,0,0-0.1,0-0.1c0,0,0.1,0,0.1,0c0,0,0.1,0,0.2,0.1l0,0l0.1-0.1l-1.1-0.9l-0.1,0.1l0,0c0.1,0.1,0.1,0.2,0.1,0.3
		c0,0.3,0,0.6-0.1,0.8l-0.2,1L42.8,10l-0.6,0.2c-0.1,0-0.2,0-0.3-0.1l0,0l-0.1,0.1l0.9,0.7l0.1-0.2l0,0l0-0.1c0,0,0-0.1,0-0.1
		c0,0,0.1-0.1,0.2-0.1l0.3-0.1l0.9-0.3c-0.1,0.6-0.2,0.9-0.2,1.1c0,0.1-0.1,0.2-0.1,0.3h-0.1c-0.1,0-0.2-0.1-0.2-0.1l0,0l-0.1,0.1
		l1.1,0.9L44.6,12.2L44.6,12.2z"/>
	<path class="st0" d="M45.8,12.7l1.8-1.7c0.2-0.2,0.3-0.2,0.3-0.2s0.1,0,0.3,0.2l0,0l0.1-0.1l-1.1-1L47.1,10l0,0
		c0.1,0.2,0.2,0.3,0.1,0.3s0,0.1-0.2,0.3l-1.8,1.7c-0.2,0.2-0.3,0.2-0.3,0.2c0,0-0.1,0-0.3-0.2l0,0l-0.1,0.1l1,1l0.1-0.1l0,0
		c-0.1-0.2-0.2-0.3-0.2-0.3C45.5,13,45.5,13,45.8,12.7"/>
	<path class="st0" d="M47.9,15.4L47.9,15.4v-0.2l0,0c-0.2,0-0.3,0-0.5,0c-0.2-0.1-0.4-0.2-0.5-0.4c-0.2-0.2-0.2-0.6-0.1-0.9
		c0.1-0.4,0.4-0.7,0.8-1c0.3-0.3,0.7-0.5,1.2-0.5c0.3,0,0.6,0.1,0.8,0.3c0.2,0.2,0.2,0.5,0.1,0.8c-0.1,0.2-0.2,0.4-0.3,0.5l0,0
		l0.1,0.1l1.1-0.9l-0.1-0.1l0,0c0,0-0.1,0-0.1,0h-0.1L50,13c-0.1-0.2-0.1-0.3-0.3-0.5c-0.3-0.4-0.7-0.6-1.2-0.6l0,0
		c-0.5,0-1,0.2-1.4,0.5c-0.4,0.3-0.7,0.7-0.8,1.2c-0.1,0.5,0,0.9,0.3,1.3c0.2,0.2,0.5,0.4,0.8,0.5H47.9H48"/>
	<path class="st0" d="M50.7,15.6l-0.9,1.1l-0.4-0.8L50.7,15.6z M49.2,18.5c0-0.1,0-0.1,0-0.2c0.1-0.1,0.1-0.2,0.2-0.3l2.3-2.6
		l-0.1-0.1l-3,0.6c-0.3,0.1-0.5,0.1-0.8,0.1c-0.1,0-0.2,0-0.2-0.1l0,0l-0.2,0.1l0.5,0.9l0.2-0.1l0,0c0-0.1,0-0.1,0-0.2
		c0-0.1,0.1-0.1,0.1-0.1h0.2l0.7-0.1l0.6,1l-0.4,0.4c0,0.1-0.1,0.1-0.2,0.2c0,0-0.1,0.1-0.1,0.1c0,0-0.1,0-0.1,0
		c-0.1-0.1-0.1-0.1-0.2-0.2l0,0l-0.2,0.1l0.6,1.1l0.2-0.1L49.2,18.5z"/>
	<path class="st0" d="M53.4,20c0.1,0,0.2,0.1,0.3,0.2l0,0l0.2-0.1l-0.4-1.1l-0.2,0.1l0,0c0,0.2,0,0.3,0,0.3s-0.1,0.2-0.5,0.3
		l-1.6,0.6l1.8-2.5l-0.3-0.8l-0.2,0.1l0,0c0,0.1,0,0.1,0,0.2c0,0.1,0,0.1-0.1,0.2l0,0L50,18.5c-0.2,0.1-0.3,0.1-0.5,0.1
		c-0.1,0-0.2-0.1-0.3-0.3l0,0l-0.2,0.1l0.4,1.1l0.2-0.1l0,0c0-0.1,0-0.2,0-0.3c0.2-0.1,0.3-0.2,0.5-0.2l1.9-0.8l-2,2.9l0,0v0.1
		l2.8-1.1C53,20,53.2,20,53.4,20"/>
	<path class="st0" d="M51.4,23.7c-0.3-0.1-0.5-0.3-0.5-0.5c-0.1-0.3,0-0.5,0.3-0.7c0.3-0.3,0.7-0.5,1.2-0.6c0.3-0.1,0.5-0.1,0.8-0.1
		c0.2,0,0.3,0,0.5,0.1c0.4,0.1,0.6,0.5,0.6,0.9c0,0.2-0.1,0.3-0.2,0.4c-0.3,0.3-0.8,0.5-1.2,0.6C52.3,23.8,51.8,23.8,51.4,23.7
		 M52.2,24.4c0.2,0,0.5,0,0.7-0.1c0.5-0.1,1-0.4,1.3-0.8c0.3-0.3,0.3-0.8,0.3-1.2c-0.1-0.4-0.4-0.7-0.8-0.9c-0.5-0.2-1-0.3-1.6-0.1
		c-0.5,0.1-1,0.4-1.3,0.8c-0.3,0.3-0.4,0.8-0.3,1.2c0.1,0.4,0.4,0.7,0.7,0.9C51.6,24.3,51.9,24.4,52.2,24.4"/>
	<path class="st0" d="M55.1,26.3L55.1,26.3H55c0,0,0,0,0-0.1c0-0.1,0-0.2,0-0.2c0-0.1,0-0.3,0-0.4c0-0.3-0.1-0.5-0.3-0.7
		c-0.2-0.1-0.5-0.2-0.8-0.1c-0.2,0-0.4,0.1-0.6,0.3c-0.1,0.1-0.2,0.2-0.3,0.3l-0.3,0.4c-0.1,0.2-0.2,0.3-0.3,0.5
		c-0.1,0.1-0.3,0.2-0.4,0.2c-0.2,0-0.3,0-0.5-0.1c-0.1-0.1-0.2-0.2-0.2-0.3c0-0.3,0.1-0.5,0.3-0.7c0.2-0.1,0.4-0.2,0.6-0.3l0,0v-0.2
		L51,25.1v0.2l0,0h0.1l0,0c0,0.1,0,0.2,0,0.3c0,0.2,0,0.3,0,0.5c0,0.3,0.2,0.5,0.4,0.7c0.2,0.1,0.4,0.2,0.7,0.2h0.2
		c0.2,0,0.4-0.1,0.6-0.2c0.2-0.2,0.3-0.4,0.5-0.6l0.3-0.4c0.1-0.1,0.2-0.2,0.3-0.3c0.1-0.1,0.2-0.1,0.3-0.1c0.1,0,0.3,0,0.4,0.1
		c0.1,0.1,0.1,0.2,0.2,0.3c0,0.2-0.1,0.3-0.2,0.5c-0.2,0.2-0.4,0.4-0.7,0.4l0,0v0.2L55.1,26.3L55.1,26.3z"/>
	<path class="st0" d="M28,52.9c-0.2,0-0.3-0.1-0.3-0.2c-0.1-0.5-0.1-1.1,0-1.6c0-0.2,0.2-0.3,0.3-0.3c0.2,0,0.3,0.1,0.4,0.3
		c0.1,0.5,0.1,1,0,1.6C28.3,52.8,28.1,52.9,28,52.9"/>
	<path class="st0" d="M29.5,52.9c-0.2,0.1-0.3,0-0.4-0.2c0,0,0,0,0-0.1v-1.3c0-0.2,0-0.3,0.1-0.5c0.1-0.1,0.2-0.1,0.3-0.1
		c0.2,0,0.4,0.2,0.4,0.4c0,0,0,0,0,0v1.2c0,0.1,0,0.2-0.1,0.3C29.7,52.8,29.6,52.9,29.5,52.9"/>
	<path class="st0" d="M24.7,53.9h-0.2c-0.1,0-0.2-0.2-0.2-0.3c0-0.1,0.1-0.2,0.2-0.3h0.2c0.2,0,0.3,0.1,0.4,0.2c0,0.1,0,0.2,0,0.3
		C24.9,53.9,24.8,53.9,24.7,53.9"/>
	<path class="st0" d="M32.4,54c-0.1,0-0.2,0-0.3-0.1c0-0.1,0-0.2,0-0.3c0.1-0.2,0.2-0.3,0.4-0.3h0.1c0.1,0,0.2,0.1,0.2,0.3
		c0,0.2-0.1,0.3-0.2,0.4C32.6,54,32.5,54,32.4,54"/>
	<path class="st0" d="M25.5,53.3h-0.1L25,53.1c0,0,0-0.1,0-0.1c0.5-0.5,1.1-0.8,1.8-0.8l0,0c0.1,0,0.2,0.1,0.2,0.2
		c0,0.2-0.1,0.3-0.2,0.4c-0.4,0-0.8,0.2-1.1,0.4C25.7,53.3,25.6,53.3,25.5,53.3"/>
	<path class="st0" d="M31.7,53.4c0,0,0,0-0.1,0c-0.3-0.3-0.8-0.5-1.2-0.6c0,0-0.1,0-0.1-0.2c0-0.2,0-0.4,0-0.4
		c0.7,0,1.4,0.3,1.9,0.8v0.1v0.1L31.7,53.4L31.7,53.4z"/>
	<path class="st0" d="M30.5,56.1c-0.1,0-0.2,0-0.2-0.1c-0.5-0.3-1-0.5-1.5-0.7c-0.1-0.1-0.2-0.2-0.1-0.3c0.1-0.2,0.2-0.3,0.4-0.4
		h0.1c0.2,0.2,0.5,0.3,0.8,0.4c0.3,0.1,0.6,0.2,0.8,0.4c0.1,0,0.1,0.1,0.1,0.2c0,0,0,0.1,0,0.1L30.8,56C30.7,56,30.6,56.1,30.5,56.1
		"/>
	<path class="st0" d="M24.9,55.7L24.9,55.7c-0.1,0-0.1-0.1-0.1-0.2c0-0.8,0.8-1.3,1.5-1.8l0.7-0.5c0.1-0.1,0.1-0.1,0.2-0.1
		c0,0,0.1,0,0.1,0l0.4,0.2c0,0,0.1,0,0.1,0.1c0,0.1,0,0.1-0.1,0.1c-0.2,0.2-0.5,0.4-0.8,0.5c-0.5,0.2-0.9,0.6-1.2,1.1
		C25.6,55.4,25.2,55.6,24.9,55.7L24.9,55.7z"/>
	<path class="st0" d="M27,56h-0.2l-0.4-0.3c-0.1-0.2-0.1-0.3,0.1-0.5c0.3-0.3,0.6-0.6,1-0.8c0.4-0.2,0.7-0.5,1-0.8
		c0.1-0.1,0.2-0.2,0.4-0.3h0.1h0.3c0.1,0,0.3,0,0.3,0c0,0-0.1,0.3-0.2,0.4c-0.4,0.4-0.8,0.8-1.3,1.1c-0.4,0.2-0.8,0.6-1.1,1
		C27.1,56,27,56,27,56"/>
	<path class="st0" d="M32.4,55.4h-0.3c-0.2,0-0.3-0.1-0.5-0.3c-0.2-0.2-0.4-0.3-0.6-0.4l-0.5-0.1c-0.2-0.1-0.4-0.2-0.6-0.3
		c-0.1,0-0.2-0.1-0.2-0.2c0-0.1,0.1-0.3,0.2-0.5s0.1-0.1,0.2-0.1c0.1,0,0.1,0,0.2,0c0.2,0.2,0.5,0.3,0.7,0.4
		c0.7,0.2,1.3,0.7,1.7,1.3c0,0,0,0.1,0,0.1c0,0-0.1,0.1-0.1,0.1L32.4,55.4"/>
	<path class="st0" d="M22,52.4c0.4,0,0.6,0,0.7,0.2c0,0.1,0,0.3-0.1,0.4c-0.1,0.1,0,0.2,0,0.3c0,0,0.1,0,0.1,0
		c0.2,0,0.4-0.2,0.5-0.6c0-0.2,0.2-0.3,0.5-0.3c0.2-0.1,0.3-0.3,0.2-0.4c0-0.1-0.1-0.2-0.2-0.2c0,0-0.1,0-0.1,0.1
		c-0.1,0.1-0.3,0.2-0.5,0.3h-0.2c-0.3,0-0.6-0.1-0.8-0.4l-0.5-0.8c-0.1-0.1-0.1-0.1-0.2-0.1l0,0l0,0c0,0.1,0,0.2,0,0.3l0.3,0.5
		c0,0.1,0,0.1,0,0.2c0,0-0.1,0.1-0.2,0.1l0,0c-0.8,0-1.5-0.4-1.8-1.1c0-0.1-0.2-0.2-0.2-0.1l0,0l0,0c0,0.1,0,0.2,0,0.2l0.3,0.4
		c0.1,0.1,0.1,0.1,0.1,0.2c0,0-0.1,0-0.1,0c-0.7,0-1.3-0.3-1.8-0.7c-0.1,0-0.1,0-0.2,0c-0.1,0.1-0.1,0.1,0,0.2l0.1,0.2
		c0,0,0,0.1,0,0.1c0,0-0.1,0-0.1,0l-1,0.1c-0.1,0-0.2,0-0.2,0.1s0.1,0.1,0.4,0.1c0.8-0.1,1.5-0.1,2.3,0.1c0,0,0.1,0,0.1,0
		c0,0,0,0.1,0,0.1l-0.4,0.4c-0.1,0.1-0.1,0.2-0.1,0.3c0,0,0.1,0,0.1,0H19c0.4-0.3,0.9-0.5,1.4-0.6c0.1,0,0.2,0,0.4,0
		c0.1,0,0.2,0.1,0.2,0.1c0,0.1,0,0.2,0,0.3l-0.4,0.7c0,0.1,0,0.2,0,0.3l0,0c0.1,0,0.2,0,0.2-0.1c0.3-0.4,0.7-0.8,1.2-0.8L22,52.4z
		 M21.8,54.4c-0.1,0-0.2,0-0.3-0.1c0-0.1,0-0.1,0-0.2l0.4-0.6c0-0.1,0-0.1,0-0.2c0,0-0.1,0-0.1,0c-0.1,0-0.3,0.1-0.4,0.2
		c-0.4,0.4-0.9,0.7-1.5,0.8c-0.1,0-0.3,0-0.4,0c-0.1,0-0.2-0.1-0.3-0.2c0-0.1,0-0.2,0.1-0.3l0.4-0.6c0-0.1,0-0.2,0-0.3l0,0h-0.1
		h-0.1l-1.1,0.5c-0.1,0.1-0.2,0.1-0.3,0.1c-0.2,0-0.4-0.1-0.6-0.2c0,0-0.1-0.1-0.1-0.2h0.1c0.2-0.1,0.4-0.3,0.5-0.5
		c0-0.1,0-0.2,0-0.2c0,0-0.1-0.1-0.3-0.1l-1.1,0.1c-0.4,0.1-0.9,0-1.3-0.1c-0.1-0.1-0.2-0.2-0.1-0.3c0-0.1,0.1-0.2,0.4-0.4l1.1-0.4
		c0.1,0,0.2-0.1,0.2-0.2c0-0.1,0-0.2-0.1-0.2c0,0,0-0.1,0-0.2c0-0.1,0.1-0.1,0.1-0.2c0.1-0.1,0.3-0.1,0.4-0.1c0.5,0,0.9,0.2,1.2,0.5
		c0.1,0,0.1,0.1,0.2,0.1c0.1-0.1,0.1-0.2,0-0.3l-0.1-0.4c0-0.1,0-0.2,0-0.2c0.1-0.1,0.1-0.1,0.2-0.1c0.6,0,1.1,0.3,1.7,1
		c0.1,0.1,0.2,0.2,0.3,0.2l0,0h0.1c0-0.1,0-0.2-0.1-0.3l-0.2-0.4c0-0.1,0-0.2,0-0.3c0.1-0.1,0.2-0.1,0.3-0.1h0.2
		c0.4,0,0.6,0.1,0.7,0.3l0.6,0.9c0.1,0.1,0.2,0.2,0.3,0.2c0.1,0,0.2-0.1,0.3-0.3c0.1-0.2,0.1-0.2,0.2-0.2c0,0,0.5,0.2,0.9,0.5
		c0.1,0.1,0.3,0.2,0.5,0.2c0.1,0,0.2,0,0.3-0.1c0.4-0.2,0.9-0.3,1.4-0.4c0.2,0,0.4,0,0.6,0c0.1,0,0.2,0.2,0.2,0.3c0,0,0,0,0,0
		c0,0.2-0.2,0.3-0.6,0.4h-0.4c-0.6,0.1-1.1,0.4-1.6,0.8c-0.1,0.1-0.3,0.2-0.5,0.2c-0.1,0-0.2,0-0.3,0.1c-0.2,0-0.4,0.2-0.6,0.5
		c-0.3,0.5-0.9,0.9-1.5,1.1"/>
	<path class="st0" d="M12.9,48.6c0.3,0,0.4,0,0.5,0.2c0,0,0,0.1,0,0.1c0,0.1,0,0.3,0.2,0.3h0.9c0.1,0,0.1,0,0.2-0.1
		c0-0.1,0-0.1,0-0.2c-0.2-0.3-0.3-0.4-0.4-0.4h-0.1c-0.1,0-0.2,0-0.3,0c-0.4-0.2-0.5-0.8-0.5-1.8c0-0.1,0-0.2,0-0.3l0,0
		c-0.1,0-0.1,0-0.1,0.2L13,47.1c0,0.2-0.1,0.2-0.1,0.2h-0.2c-0.5-0.3-0.8-0.7-0.9-1.3c0-0.2,0-1.3-0.3-0.6c-0.1,0.1-0.4-0.3-0.5-0.6
		c-0.1-0.3-0.1-0.2-0.2-0.2c-0.1,0.1-0.1,0.1-0.1,0.2c0,0.1,0,0.2-0.1,0.3c-0.1,0-0.2,0.1-0.2,0.2c0,0.1,0,0.1,0.2,0.1
		c0.2,0,0.7,0.5,0.9,1.2c0,0,0,0.1,0,0.1h-1h-0.1c-0.1,0-0.2,0-0.2,0.1c0,0.1,0.1,0.2,0.3,0.2l1,0.1c0.4,0,0.7,0.2,0.8,0.5
		c0.1,0.1,0.1,0.2,0.1,0.3c0,0-0.1,0.1-0.1,0.1c-0.4,0.1-0.8,0.2-1.2,0.3c-0.2,0-0.2,0-0.3,0.1c0,0.1,0,0.1,0.3,0.2
		c0.1,0,0.3,0,0.4,0c0.2,0,0.4-0.1,0.6-0.1C12.5,48.6,12.7,48.6,12.9,48.6 M16.3,50.4c-0.1,0-0.1,0-0.2,0c-0.6-0.5-1.4-0.8-2.3-0.7
		c-0.3,0-0.7,0.1-1,0.2c-0.1,0-0.1,0-0.1-0.1c0-0.1,0-0.2,0-0.3c0-0.2-0.1-0.3-0.2-0.3h-0.2h-0.4c-0.8,0.2-1.5-0.2-2-0.8
		c0-0.1,0-0.1,0-0.2c0,0,0,0,0.2,0l1.3-0.2c0.1,0,0.2-0.1,0.2-0.2c0,0,0,0,0,0c0,0,0-0.2-0.2-0.2c-1.3-0.2-2.1-0.6-2.4-1.2
		c0-0.1,0-0.1,0-0.2c0,0,0.1,0,0.2,0l1,0.1c0.2,0,0.2,0,0.3-0.1c0-0.1,0-0.1-0.2-0.2l-1-0.6c-0.1-0.1-0.1-0.2-0.1-0.3
		c0-0.1,0.2-0.2,0.3-0.2H10c0.1,0,0.2,0,0.3-0.1c0.1-0.1,0.1-0.3,0.1-0.7v-0.3c0-0.2,0-0.4,0.1-0.4c0.1,0,0.2,0,0.5,0.5
		c0.2,0.2,0.3,0.3,0.4,0.3c0.1,0,0.2-0.2,0.3-0.5c0.1-0.3,0.1-0.2,0.1-0.2c0.1,0,0.2,0,0.2,0.1c0.4,0.2,0.4,1.3,0.4,2.3
		c0,0.1,0,0.1,0,0.2c0,0,0.1,0,0.1,0c0,0,0.2,0,0.2-0.3l0.1-0.7c0-0.2,0.1-0.3,0.2-0.3c0.1,0,0.3,0.1,0.4,0.2
		c0.4,0.3,0.5,0.9,0.4,2.3c0,0.1,0,0.2,0.1,0.2c0,0,0.1,0,0.1,0c0.1,0,0.2-0.1,0.3-0.3c0.1-0.2,0.1-0.1,0.1-0.1s0.1,0,0.2,0.2
		c0.1,1,0.6,2,1.5,2.6c0.1,0.1,0.1,0.2,0.1,0.3c0,0.1-0.1,0.1-0.1,0.1"/>
	<path class="st0" d="M16,48c-0.1,0-0.2-0.1-0.3-0.2c0-0.1,0-0.2,0.1-0.3c0.1-0.1,0.3-0.2,0.4-0.2c0.1,0,0.2,0,0.3,0.1
		c0.1,0.1,0.1,0.2,0.1,0.3C16.5,47.9,16.3,48,16,48L16,48z"/>
	<path class="st0" d="M13.5,51.2h-0.2c-0.2-0.1-0.3-0.2-0.3-0.4c0-0.1,0.1-0.3,0.2-0.4h0.3c0.2,0,0.3,0.2,0.4,0.5
		c0,0.1,0,0.2-0.1,0.2C13.7,51.3,13.6,51.3,13.5,51.2"/>
	<path class="st0" d="M16.9,49.9c-0.1,0-0.3-0.1-0.5-0.4c-0.1-0.2-0.3-0.4-0.6-0.5c-0.2-0.1-0.3-0.2-0.2-0.4c0-0.1,0.1-0.2,0.3-0.2
		H16c0.2,0,0.4-0.1,0.6-0.1h0.2c0.1,0,0.3,0.1,0.3,0.2c0,0.1,0,0.3-0.1,0.3c-0.2,0.1-0.3,0.4-0.2,0.6C16.9,49.5,17,49.7,16.9,49.9
		L16.9,49.9z"/>
	<path class="st0" d="M14.5,51.4c-0.1,0-0.3-0.1-0.3-0.2c0-0.2,0-0.4-0.1-0.6c-0.1-0.1-0.1-0.3,0-0.5c0-0.1,0.1-0.1,0.2-0.1
		c0.1,0,0.2,0,0.3,0.1c0.2,0.2,0.4,0.3,0.7,0.3c0.2,0,0.4,0,0.6,0.1c0.1,0,0.1,0.1,0.1,0.2h-0.2l0,0c-0.3,0-0.7,0.2-0.8,0.5
		C14.8,51.2,14.7,51.3,14.5,51.4"/>
	<path class="st0" d="M6.7,41.9c-0.1,0-0.1,0-0.1,0.1s0,0.1,0.2,0.1c0.4,0,0.8,0,0.9,0.2c0,0,0.1,0.1,0.2,0.1l0,0v-0.1
		c0-0.1,0-0.1,0-0.2c-0.2-0.2-0.1-0.5,0.2-0.9c0.1-0.1,0.1-0.1,0.1-0.2l0,0H8H7.9c-0.1,0-0.1,0-0.2,0c-0.1,0-0.3,0-0.4-0.1
		c-0.1-0.3-0.1-0.6,0-0.9c0.1-0.5,0.3-0.9,0.5-1.5c0-0.1,0-0.2,0-0.3l0,0c-0.1,0-0.2,0.1-0.2,0.2c-0.1,0.3-0.2,0.5-0.3,0.7
		c-0.1,0.2-0.2,0.6-0.4,0.7c-0.1,0-0.4-0.4-0.6-0.7c-0.2-0.4-0.2-0.8,0-1.2c0-0.1,0-0.2,0-0.2H6.2c0,0-0.1,0-0.1,0.1
		c0,0.1-0.2,0.3-0.3,0.3c-0.1,0-0.3-0.1-0.4-0.4c0,0-0.1-0.1-0.1-0.1c-0.1,0-0.1,0.1-0.2,0.1c-0.1,0.1-0.1,0.2,0,0.3l0.1,0.1
		c0.2,0.2,0.5,0.4,0.4,0.5l0,0c-0.1,0-0.3,0-0.4,0H5c-0.1,0-0.1,0.1-0.1,0.1c0,0,0,0.1,0.2,0.2c0.9,0.1,1.6,0.8,1.5,1.2
		c0,0.1-0.1,0.2-0.3,0.2c-0.2,0-0.4,0-0.6-0.1H5.5c-0.1,0-0.1,0.1-0.1,0.1c0,0,0,0.2,0.2,0.2c0.9,0,1.6,0.6,1.6,0.9
		C7.2,41.9,7,41.9,6.7,41.9L6.7,41.9z M9.8,44.5H9.6c-0.6-0.3-1.1-0.7-1.5-1.1c-0.2-0.4-0.6-0.7-1.1-0.7c-0.6,0-1.2-0.3-1.6-0.8
		c-0.1-0.1,0-0.1,0-0.2s0,0,0.2,0h0.4c0.2,0,0.2-0.1,0.2-0.1S6.2,41.4,6,41.4c-1.2-0.2-1.8-0.5-1.9-1.1c0-0.1,0-0.2,0-0.3
		c0,0,0.1,0,0.2-0.1h0.4c0.1,0,0.2-0.1,0.1-0.2c0,0,0,0,0,0c0,0,0-0.1-0.3-0.2c-0.4-0.1-0.8-0.4-1-0.7c-0.1-0.1-0.1-0.3,0-0.4
		c0-0.1,0.1-0.1,0.2-0.1c0.1,0,0.1,0,0.2,0c0.1,0,0.2,0,0.3,0c0.1,0,0.1,0,0.1-0.1c0-0.1,0-0.3-0.2-0.4c0-0.1,0-0.2,0-0.3
		c0.1-0.1,0.2-0.1,0.3-0.1c0.1,0,0.2,0,0.2,0c0.2,0,0.3-0.1,0.5-0.2c0,0,0.1-0.1,0.2-0.1c0.1,0,0.2,0,0.3,0.2
		c0.1,0.2,0.2,0.4,0.4,0.4c0.2,0,0.2,0,0.2-0.3c0.1-0.3,0.2-0.4,0.3-0.5c0.1,0,0.1,0,0.2,0.1c0.3,0.1,0.3,0.6,0,1.3
		c0,0.1,0,0.2,0,0.3l0,0h0.1c0.1,0,0.3-0.2,0.4-0.4c0-0.6,0.2-0.9,0.5-0.9h0.2c0.2,0,0.3,0.1,0.4,0.3c0.2,0.7,0.2,1.4-0.2,2.1
		C8,39.8,8,40,8.1,40.1c0.1,0,0.1,0,0.2,0c0.1,0,0.2-0.1,0.2-0.1c0.1-0.1,0.2-0.2,0.3-0.2c0,0,0.1,0,0.1,0c0.1,0.3,0.1,0.5,0,0.8
		c-0.8,1-0.7,2.5,0.4,3.3c0.2,0.1,0.3,0.2,0.5,0.3c0.1,0.1,0.1,0.2,0.1,0.3C9.9,44.5,9.9,44.6,9.8,44.5"/>
	<path class="st0" d="M9.5,43.7c0,0-0.1,0-0.1-0.2c0-0.7-0.2-1.1-0.4-1.2c-0.1-0.1-0.1-0.3,0-0.4c0-0.1,0.1-0.1,0.2-0.1h0.1
		c0.3,0.1,0.5,0.2,0.8,0.2c0.1,0,0.3,0.1,0.3,0.3c0,0.1,0,0.2-0.1,0.3c-0.4,0.1-0.6,0.4-0.6,0.8c0,0,0,0,0,0
		C9.8,43.5,9.6,43.7,9.5,43.7"/>
	<path class="st0" d="M10,41.5H9.8c-0.2,0-0.3-0.1-0.4-0.3c0-0.2,0.1-0.3,0.3-0.4h0.2c0.1,0,0.2,0,0.3,0.1c0.1,0.1,0.1,0.2,0.1,0.4
		C10.3,41.5,10.2,41.6,10,41.5"/>
	<path class="st0" d="M6.7,44.4c-0.2,0-0.3-0.1-0.3-0.3c-0.1-0.2-0.1-0.4,0-0.5c0.1-0.1,0.2-0.2,0.3-0.2c0.2,0,0.3,0.1,0.4,0.3
		c0.1,0.1,0.1,0.3,0,0.4C6.9,44.3,6.8,44.3,6.7,44.4"/>
	<path class="st0" d="M7.5,44.9c-0.1,0-0.2,0-0.2-0.1c0-0.1,0-0.1,0-0.2c0-0.3,0-0.5,0-0.8c0-0.2,0.1-0.4,0.3-0.4
		c0.1,0,0.2,0.1,0.3,0.2C8,43.8,8.2,44,8.4,44.1c0.4,0.2,0.5,0.4,0.5,0.5c-0.1,0-0.1,0-0.2,0c0,0-0.1,0-0.1,0
		c-0.2-0.1-0.3-0.1-0.5-0.1c-0.1,0-0.2,0.1-0.3,0.2C7.7,44.7,7.6,44.8,7.5,44.9"/>
	<path class="st0" d="M3.2,31.4c0,0,0,0.1,0,0.3c0.3,0.5,0.6,1.1,0.5,1.3c0,0.1-0.1,0.2-0.2,0.2c0,0-0.2,0-0.2,0.1
		c0,0.1,0,0.1,0.1,0.2c0.1,0.1,0.2,0.1,0.3,0.2c0.2,0.1,0.4,0.2,0.3,0.5v0.3c0.1,0.1,0.3,0.2,0.4,0.2c0.1,0,0.2-0.1,0.2-0.1
		c0-0.2-0.1-0.4-0.2-0.5c-0.1,0-0.2-0.1-0.2-0.1c0-0.1,0-0.1,0.2-0.3C4.8,33.1,4.8,33,4.7,33l0,0l0,0L4.6,33H4.4
		c-0.2,0-0.3-0.1-0.3-0.5c0-0.4,0-0.5,0.3-0.7c0.5-0.3,0.5-0.4,0.5-0.5s-0.1-0.1-0.3-0.1H4.4l0,0c0,0,0-0.1,0-0.2
		c0-0.4,0.2-0.7,0.5-1C5,30,5.1,29.9,5.1,29.9s-0.1-0.1-0.2,0c-0.2,0-0.4,0.1-0.6,0.3c-0.1,0.2-0.1,0.3-0.1,0.5L4,31.5
		c0,0.1,0,0.3-0.1,0.3c-0.1,0-0.1,0-0.2,0c-0.3-0.3-0.4-0.3-0.4-0.3l0,0L3.2,31.4z M5.3,36.9H5.1c-0.2-0.1-0.4-0.4-0.4-0.7
		c-0.2-1.1-0.4-1.3-0.8-1.5c-0.3-0.1-0.5-0.4-0.5-0.6c0-0.4-0.2-0.6-0.4-0.6c-0.4-0.1-0.8-0.4-0.9-0.8c-0.1-0.2-0.1-0.4,0-0.5
		c0,0,0.1-0.1,0.1-0.1c0.2,0,0.4,0.1,0.5,0.2h0.1c0,0,0.1,0,0.1-0.1c0-0.1,0-0.2,0-0.4l-0.3-0.6c-0.2-0.3-0.1-0.7,0.1-0.9
		c0.2-0.2,0.3-0.3,0.4-0.3c0,0,0.1,0,0.1,0c0.3,0.4,0.4,0.4,0.4,0.4s0.2-0.3,0.2-0.4c0-0.6,0.2-1.4,0.6-1.4c0.1,0,0.1,0,0.2,0
		c0.1,0.1,0.2,0.1,0.4,0.1c0.2,0,0.5-0.2,0.6-0.4l0.2,0c0,0,0.2,0,0.2,0.2c0.1,0.5,0,1-0.4,1.3c-0.1,0.2-0.2,0.3-0.1,0.4
		c0,0.1,0,0,0.1,0c0.2-0.1,0.4-0.1,0.5-0.2c0,0,0.1-0.1,0.2-0.1c0,0,0.1,0.1,0.1,0.3c0.1,0.5-0.3,1-1.3,1.5C5,31.9,5,32,5,32.1
		c0,0.1,0.1,0.2,0.2,0.2c0,0,0,0,0,0c0.1,0,0.1,0,0.2,0c0.1-0.1,0.3-0.2,0.5-0.2c0.1,0,0.2,0,0.3,0.1c0,0.1,0,0.4-0.4,0.8
		c-0.4,0.3-0.3,0.5-0.5,0.5s-0.2,0.1-0.2,0.2c0,0.1,0,0.1,0,0.2s0.1,0.3,0,0.5c-0.4,0.3-0.3,1,0.1,2.1C5.3,36.6,5.3,36.8,5.3,36.9
		C5.3,37,5.2,37,5.3,36.9"/>
	<path class="st0" d="M6.7,34.5c-0.1,0-0.2,0-0.4,0c-0.1-0.1-0.2-0.2-0.1-0.3c0-0.2,0.1-0.4,0.3-0.4c0.3,0,0.4,0,0.5,0.2
		c0.1,0.1,0.1,0.3,0,0.4C7,34.4,6.9,34.4,6.7,34.5"/>
	<path class="st0" d="M2.5,35.8c-0.1,0-0.2,0-0.3,0c-0.2-0.1-0.2-0.3-0.1-0.5c0-0.2,0.1-0.3,0.3-0.3h0.1c0.1,0,0.2,0,0.3,0.1
		c0.1,0.2,0.1,0.3,0,0.5C2.8,35.6,2.6,35.7,2.5,35.8"/>
	<path class="st0" d="M4.4,36.8H4.3c-0.3-0.2-0.5-0.4-0.7-0.4c-0.1,0-0.2,0-0.2,0.1H3.1c-0.1,0-0.3,0-0.3-0.1
		c-0.1-0.1-0.1-0.2,0-0.3c0.2-0.3,0.3-0.5,0.4-0.8c0.1-0.1,0.2-0.2,0.3-0.2c0.2,0,0.4,0.1,0.4,0.3c0,0,0,0,0,0L4,35.8l0.4,0.6
		c0,0.1,0,0.2,0,0.3L4.4,36.8z"/>
	<path class="st0" d="M5.8,36.4c0,0,0,0-0.1-0.2c0-0.2,0-0.4,0-0.6c0.1-0.2,0.1-0.4,0-0.6c-0.1-0.1-0.1-0.2,0-0.4
		c0-0.1,0.1-0.2,0.2-0.2H6c0.2,0.1,0.5,0.3,0.7,0.4C6.9,34.9,7,35,7,35.2c0,0.2-0.2,0.3-0.4,0.3c-0.3,0-0.5,0.3-0.6,0.7
		C5.9,36.4,5.8,36.4,5.8,36.4"/>
	<path class="st0" d="M41.2,48.7c-0.1,0-0.2,0-0.3-0.1c0-0.1,0-0.2,0-0.3c0-0.2,0-0.4-0.2-0.5c-0.2-0.2-0.2-0.4-0.1-0.6
		c0.1-0.2,0.3-0.4,0.6-0.4c0.2,0,0.4,0,0.5,0.2c0.1,0.2,0.1,0.5,0,0.7c-0.2,0.1-0.2,0.3-0.1,0.5c0.1,0.2,0,0.4-0.2,0.4
		C41.3,48.7,41.3,48.7,41.2,48.7"/>
	<path class="st0" d="M47.9,42.8c-0.1,0-0.3-0.1-0.3-0.2c0-0.2-0.2-0.3-0.5-0.3c-0.3,0-0.5-0.3-0.4-0.6c0.1-0.3,0.4-0.6,0.7-0.6
		c0.3,0,0.5,0.2,0.6,0.6c-0.1,0.2,0,0.4,0.1,0.5c0.1,0.1,0.1,0.2,0.1,0.3C48.2,42.6,48.1,42.7,47.9,42.8"/>
	<path class="st0" d="M51.5,35c-0.1,0-0.2-0.1-0.3-0.2c-0.1-0.2-0.2-0.2-0.4-0.2h-0.1c-0.5-0.1-0.5-0.4-0.5-0.5
		c0-0.3,0.3-0.6,0.6-0.7c0.2,0,0.4,0.1,0.6,0.5v0.1c0,0.1,0,0.3,0.3,0.3c0.2,0.1,0.2,0.2,0.2,0.4C51.8,34.8,51.7,34.9,51.5,35"/>
	<path class="st0" d="M42.8,51.3c-0.3,0-0.5-0.2-0.6-0.4c0-0.2-0.1-0.4-0.3-0.4c-0.2,0-0.3-0.2-0.2-0.3c0-0.2,0.2-0.3,0.4-0.4
		c0.1,0,0.2,0,0.3,0.1c0.1,0.1,0.2,0.2,0.3,0.1l0.2,0c0.4,0,0.6,0.1,0.6,0.4C43.4,50.9,43.2,51.3,42.8,51.3"/>
	<path class="st0" d="M50.4,44.2c-0.2,0-0.3,0-0.5-0.1c-0.1-0.1-0.2-0.2-0.4-0.2h-0.1h-0.1c-0.1,0-0.2,0-0.2-0.1
		c-0.1,0-0.1-0.1-0.1-0.2c0-0.2,0.1-0.4,0.3-0.4c0,0,0,0,0,0h0.1c0.1,0,0.1,0,0.2,0c0.1,0,0.3-0.1,0.4-0.2c0.1-0.1,0.2-0.1,0.3-0.1
		c0.2,0,0.3,0.1,0.4,0.2c0.1,0.2,0.1,0.5,0,0.8C50.7,44,50.6,44.1,50.4,44.2"/>
	<path class="st0" d="M54.2,35.5c-0.1,0-0.2,0-0.3,0c-0.2-0.1-0.4-0.1-0.6,0h-0.1c-0.2,0-0.3-0.1-0.4-0.3c0,0,0,0,0,0
		c0-0.1,0-0.2,0-0.3c0.1-0.1,0.1-0.1,0.2-0.1h0.2c0.2,0,0.3-0.1,0.4-0.3c0.1-0.1,0.3-0.2,0.4-0.2c0.2,0,0.3,0.1,0.4,0.2
		c0.2,0.2,0.2,0.5,0.2,0.7C54.6,35.4,54.5,35.5,54.2,35.5"/>
	<path class="st0" d="M35.1,53.3c-0.2,0-0.4,0-0.6,0c-0.6-0.2-1.2-0.5-1.7-0.9c-0.7-0.4-1.5-0.6-2.4-0.7c-0.1,0-0.2-0.2-0.2-0.3
		c0,0,0,0,0,0c0-0.2,0.1-0.3,0.3-0.3c0.9,0.2,1.9,0.4,2.8,0.8c0.2,0.1,0.3,0.1,0.5,0.1c0.2,0,0.4-0.1,0.6-0.2l0.4-0.1
		c1.5-0.8,3.2-1.4,4.9-1.6h0.6c0.2,0,0.2,0,0.2,0s0,0.1-0.4,0.2h-0.1c-0.3,0-0.7,0.1-1,0.3l-1.3,0.7c-0.6,0.4-1.3,0.6-2,0.8
		c-0.1,0-0.1,0-0.2,0c-0.6,0.1-0.9,0.2-0.9,0.4c0,0.2,0.1,0.2,0.3,0.2h0.5c0.7-0.1,1.4-0.3,2-0.6c1-0.7,2.1-1.2,3.3-1.5h0.1
		c0,0,0.1,0,0.1,0c0,0.1-0.1,0.2-0.1,0.3c-1,0.9-2.2,1.5-3.4,1.9c-0.3,0.1-0.6,0.2-0.9,0.3C36,53.1,35.5,53.3,35.1,53.3"/>
	<path class="st0" d="M36.6,54.3c-1.1,0.1-1.8-0.1-2.2-0.7c0.3,0.1,0.6,0.1,0.8,0c1-0.2,2-0.5,3-1c0.6-0.3,1.2-0.5,1.8-0.7
		c0.3,0,0.4,0,0.4,0.1c0,0.1,0,0.1-0.1,0.1l-3.1,1.3c-0.2,0-0.3,0.2-0.3,0.3c0,0.1,0.1,0.1,0.2,0.1c0.7-0.2,1.4-0.5,2.1-0.9
		c0.5-0.3,1-0.5,1.6-0.6H41c0.1,0,0.2,0,0.2,0s0,0.1-0.2,0.2c-1.3,0.8-2.7,1.4-4.1,1.8L36.6,54.3"/>
	<path class="st0" d="M33.9,51.7c-0.3,0-0.7-0.1-0.8-0.3l0,0c0.7-0.1,1.2-0.5,1.7-1c0.3-0.3,0.7-0.6,1-0.8c0.1-0.1,0.3-0.2,0.5-0.2
		c0.2,0,0.5-0.1,0.7-0.2c0.4-0.2,0.8-0.4,1.2-0.4c0.2,0,0.5,0,0.7,0.1C39,49,39,49,39,49h-0.4c-0.5,0-1,0.2-1.3,0.5l-1.2,0.3
		c-0.3,0.1-0.6,0.3-0.6,0.4s0,0.1,0.2,0h0.1l0.6-0.1c0.2-0.1,0.4-0.1,0.6-0.3c0.2-0.2,0.5-0.3,0.8-0.3c0.3-0.1,0.6-0.1,0.8-0.2
		l0.5-0.2l0,0c0.1,0,0.2,0,0.2,0.1c0,0,0,0,0,0c0,0.1,0,0.2-0.2,0.2c0,0,0,0,0,0c-0.2,0.1-0.5,0.1-0.7,0.2c-0.4,0.1-0.8,0.2-1.1,0.3
		c-1,0.4-2,0.8-3,1.3C34.1,51.6,34,51.6,33.9,51.7"/>
	<path class="st0" d="M41.3,49.7c-0.1,0-0.3-0.1-0.3-0.2c0-0.1,0-0.2,0.1-0.3c0-0.2,0.3-0.4,0.7-0.7c0.8-0.5,1.5-1.1,2.1-1.9
		c0.7-0.8,1.4-1.6,2.3-2.2c0.4-0.3,0.8-0.7,1.3-1.1c0.2-0.2,0.2-0.2,0.2-0.2c0,0,0,0,0,0.2c-0.3,0.8-0.9,1.4-1.6,1.8
		c-1,0.6-1.8,1.4-2.5,2.3c-0.1,0.1-0.1,0.2,0,0.3l0,0c0,0,0.2,0,0.5-0.3c0.6-0.8,1.3-1.4,2.1-1.9c0.7-0.5,1.3-1.1,1.7-1.9
		c0.1-0.1,0.1-0.1,0.1-0.1c0,0.1,0,0.3,0,0.4c-0.1,0.8-0.5,1.6-1.2,2c-0.9,0.9-1.9,1.7-3,2.2c-0.8,0.1-1.6,0.5-2.1,1.1
		C41.6,49.6,41.5,49.7,41.3,49.7"/>
	<path class="st0" d="M45,49h-0.7h-0.7c-0.2,0-0.2,0-0.2,0s0-0.1,0.2-0.2c1.8-0.6,3.4-1.8,4.4-3.4c0.1-0.1,0.2-0.1,0.3-0.1h0.1
		c0,0,0,0.1,0,0.1c-0.6,1-1.4,1.8-2.3,2.4L45.8,48c-0.2,0.1-0.3,0.3-0.2,0.4c0,0,0.1,0,0.1,0h0.1c1.2-0.8,2.2-1.8,3-3
		c0-0.1,0.1-0.1,0.1-0.1s0,0,0,0.1c0.1,0.3-0.2,0.8-0.8,1.4c-0.6,0.7-1.3,1.3-2,1.8c-0.4,0.1-0.8,0.2-1.1,0.2"/>
	<path class="st0" d="M42.5,47.8h-0.1c0-0.1,0-0.2,0-0.2c0.1-0.4,0.2-0.8,0.2-1.3c0.1-0.5,0.4-1,0.9-1.3c0.7-0.6,1.4-1.3,2.1-2h0.1
		c0,0,0,0,0,0.2c0,0.2-0.3,0.6-0.7,1c-0.5,0.4-0.6,0.5-0.9,0.9l-0.8,0.9c-0.1,0.1-0.1,0.3,0,0.3l0,0h0.1c0.2,0,0.3-0.1,0.4-0.3
		c0.4-0.7,1-1.3,1.6-1.8c0.1-0.1,0.2-0.1,0.2-0.1s0,0.1,0,0.3c-0.1,0.4-0.4,0.8-0.8,1c-0.6,0.4-1,1-1.4,1.6
		C43.1,47.3,42.8,47.6,42.5,47.8"/>
	<path class="st0" d="M48.5,43.5c-0.1,0-0.1,0-0.2-0.1c-0.1-0.1-0.1-0.2,0-0.3c0.6-0.7,1-1.7,1.1-2.6l0.2-0.5
		c0.4-1.3,1.1-2.5,1.8-3.7c0.1-0.1,0.2-0.2,0.2-0.2s0,0,0,0.3c-0.3,0.8-0.6,1.7-1,2.5c-0.3,0.6-0.6,1.2-0.8,1.8c0,0.2,0,0.3,0,0.3
		l0,0H50c0.1,0,0.2-0.1,0.2-0.1c0.6-0.9,1-1.8,1.3-2.8c0.2-0.7,0.5-1.4,0.8-2.1c0.1-0.2,0.2-0.3,0.2-0.3s0,0,0,0.3
		c-0.1,1.6-0.6,3.2-1.5,4.6c-0.2,0.2-0.4,0.4-0.6,0.6c-0.3,0.2-0.5,0.4-0.6,0.7c-0.3,0.5-0.6,1-1,1.5C48.6,43.4,48.5,43.5,48.5,43.5
		"/>
	<path class="st0" d="M48.8,41.4c0,0-0.1,0-0.2-0.1c-1.1-1.7,0-3.6,1.1-5c0.1-0.1,0.2-0.1,0.2-0.1c0,0,0.1,0.1,0,0.2c0,0,0,0,0,0
		c-0.3,0.3-0.5,0.7-0.5,1.2c-0.1,0.4-0.2,0.8-0.5,1.1c-0.1,0.1-0.2,0.3-0.2,0.4c-0.1,0.3-0.2,0.6-0.1,0.7h0.1c0.1,0,0.1-0.1,0.2-0.1
		c0.3-0.6,0.6-1.2,0.8-1.8c0.1-0.5,0.4-1,0.7-1.5c0-0.1,0.1-0.1,0.2-0.1h0.1c0,0.1,0,0.2,0,0.3c-0.3,0.9-0.7,1.9-1.2,2.7
		c-0.3,0.4-0.4,0.9-0.5,1.4c0,0.4-0.1,0.8-0.2,0.8"/>
	<path class="st0" d="M50.3,42h-0.1c0,0,0-0.1,0.1-0.3c0.7-0.6,1.3-1.5,1.7-2.4c0-0.8,0.5-1.6,1.2-2.1l0.3-0.1c0,0,0,0.1-0.2,0.3
		c-0.4,0.5-0.6,1-0.8,1.6c-0.2,0.5-0.4,1-0.8,1.5c-0.1,0.2-0.1,0.3-0.1,0.3h0.1c0.1,0,0.1,0,0.2,0c0.4-0.4,0.6-0.9,0.8-1.5
		c0.2-0.7,0.6-1.4,1-2.1c0.1-0.1,0.2-0.1,0.2-0.1s0,0-0.1,0.3c-0.2,0.4-0.3,0.8-0.5,1.2c-0.2,0.8-0.6,1.7-1,2.4
		c-0.2,0.2-0.4,0.3-0.7,0.4l-0.4,0.1L50.7,42C50.6,42,50.5,42.1,50.3,42"/>
	<path class="st0" d="M51.9,33.3c-0.1,0-0.2,0-0.2-0.1c-1-0.8-1.3-2.1-0.8-4.1c0-0.1,0-0.1,0-0.2H51c0.3,0.3,0.3,0.6,0.2,1
		C51,30.6,51,31.3,51.3,32c0,0.1,0.1,0.2,0.2,0.2l0,0l0,0c0-0.1,0-0.1,0-0.2c-0.2-0.5-0.3-1.1-0.1-1.7c0-0.2,0-0.3,0-0.5
		c0-0.1,0-0.1,0-0.2l0,0h0.2c0.1,0.1,0.3,0.4,0.2,1.3c-0.1,0.4-0.1,0.9,0,1.3c0.1,0.3,0.2,0.6,0.1,0.9c0,0.1-0.1,0.1-0.1,0.1"/>
	<path class="st0" d="M52.2,35.4c-0.1,0-0.1,0-0.2-0.1c0-0.1,0-0.2,0-0.2c0-0.4,0.1-0.9,0.2-1.3c0.1-0.5,0.2-1,0.1-1.5
		c-0.2-1.2,0-2.5,0.6-3.6c0-0.1,0.1-0.1,0.2-0.1c0,0,0.1,0,0.1,0.2c0.1,0.5,0,1-0.3,1.5c-0.2,0.7-0.3,1.4-0.2,2c0,0.1,0,0.1,0,0.2
		c0,0,0.1,0,0.1,0c0.1,0,0.2-0.1,0.2-0.3c-0.1-0.7,0-1.4,0.2-2c0.2-0.4,0.3-0.9,0.1-1.4c0-0.1,0-0.2,0-0.2s0,0,0.1,0.1
		c0.1,0.1,0.3,0.3,0.3,1c0,0.8-0.1,1.6-0.3,2.4c-0.2,0.3-0.4,0.7-0.6,1c-0.2,0.3-0.4,0.7-0.6,1.1c-0.1,0.3-0.2,0.6-0.1,0.9
		C52.4,35.3,52.2,35.4,52.2,35.4C52.1,35.4,52.1,35.4,52.2,35.4"/>
	<path class="st0" d="M53,34.2L53,34.2c0,0,0-0.1,0-0.3l1-1.6c0.3-0.9,0.4-1.8,0.3-2.7c0-0.1,0-0.2,0-0.2l0,0h0.1
		c0.2,0.1,0.3,0.3,0.2,0.7l-0.2,1.3l-0.2,0.9c0,0.1,0,0.2,0,0.2l0,0h0.1c0.1,0,0.1-0.1,0.1-0.3c0-0.4,0.1-0.8,0.3-1.2
		c0.2-0.6,0.2-1.2,0-1.8c0,0,0-0.1,0-0.1c0,0,0,0,0.2,0.1c0.3,0.3,0.4,0.8,0.3,1.2c-0.1,0.3-0.1,0.6-0.1,0.9c0,0.4-0.1,0.8-0.3,1.2
		l-1.5,1.4c-0.1,0.1-0.3,0.2-0.5,0.3"/>
	<path class="st1" d="M73.2,12.9c-1.1-0.7-2.4-0.7-3.5-0.1c-0.8,1-1.2,2.3-1.2,3.6c0,2.5,1.3,4,3.3,4c0.5,0,1-0.1,1.4-0.2
		c0-0.7-0.1-1.4-0.2-2.1c-0.4-0.3-0.8-0.5-1.3-0.6l0.2-0.9h5l0.2,0.9l-1.2,0.5c-0.1,0.8-0.2,1.7-0.2,2.6v0.3
		c-1.3,0.8-2.8,1.3-4.3,1.2c-3.6,0-5.8-2-5.8-5.4c0.1-3.3,2.9-5.8,6.2-5.7c0,0,0,0,0,0c1.4,0,2.7,0.3,3.9,0.9l0.3,0.5
		c-0.1,0.8-0.5,2.2-0.6,2.7c-0.6,0-1.1,0-1.6-0.1C73.7,14.2,73.5,13.5,73.2,12.9z"/>
	<path class="st1" d="M78.5,16.8c0-3.2,2.5-5.8,5.6-5.8c0.1,0,0.1,0,0.2,0c2.7-0.2,5.1,1.8,5.3,4.5c0,0.2,0,0.5,0,0.7
		c0.1,3.1-2.4,5.7-5.5,5.8c-0.1,0-0.1,0-0.2,0c-2.7,0.2-5.2-1.8-5.4-4.5C78.5,17.2,78.5,17,78.5,16.8z M86.1,19.8
		c0.4-1,0.7-2,0.6-3.1c0-2.6-0.8-4.2-2.8-4.2c-0.6,0-1.2,0.2-1.7,0.5c-0.6,1-1,2.2-0.9,3.4c0,2.5,1.1,4,3,4
		C85,20.4,85.6,20.2,86.1,19.8z"/>
	<path class="st1" d="M92,20.3c0.1-0.8,0.1-1.7,0.1-2.6v-2.6c0-0.8,0-1.6-0.2-2.4c-0.4-0.3-0.8-0.5-1.2-0.7l0.2-0.9h2.4
		c0.5,0,2.2-0.1,3-0.1c2.6,0,4.2,0.9,4.2,2.7c-0.1,1.1-0.8,2-1.8,2.4c1.3,0.2,2.2,1.2,2.3,2.5c0,2.1-2,3.1-4.2,3.1
		c-1,0-2.4-0.1-3.4-0.1h-2.5l-0.2-0.9L92,20.3z M94.7,15.7l2.1,0.1c0.9-0.8,1.1-2.1,0.5-3.1c-0.4-0.2-0.8-0.4-1.3-0.3
		c-0.3,0-0.7,0-1,0.1h-0.1c-0.1,0.9-0.1,1.7-0.1,2.6V15.7z M95,20.2c0.5,0.2,1,0.4,1.5,0.3c0.4,0,0.7-0.1,1.1-0.2
		c0.4-0.4,0.7-1,0.6-1.6c0-0.9-0.6-1.5-1.7-1.5h-1.8v0.5C94.7,18.6,94.8,19.4,95,20.2L95,20.2z"/>
	<path class="st1" d="M103.6,20.3c0.1-0.8,0.1-1.7,0.1-2.6v-2.6c0.1-0.8,0-1.6-0.2-2.4c-0.3-0.3-0.8-0.5-1.2-0.7l0.2-0.9h5.1
		l0.2,0.9l-1.3,0.5c-0.1,0.9-0.1,1.7-0.1,2.6v2.6c0,0.8,0,1.6,0.2,2.4c0.4,0.3,0.8,0.5,1.2,0.6l-0.2,0.9h-5.2l-0.2-0.9L103.6,20.3z"
		/>
	<path class="st1" d="M111,20.3c0.1-0.8,0.1-1.7,0.1-2.6v-2.6c0-0.8,0-1.6-0.2-2.4c-0.4-0.3-0.8-0.5-1.2-0.7l0.2-0.9h4.2
		c1.9,0,3.4,0,4.7-0.1c0.2,0.2,0.3,0.5,0.5,0.7c-0.1,0.7-0.4,2.1-0.5,2.6c-0.5,0-1.1,0-1.6-0.1l-0.4-1.8c-0.5-0.1-1.1-0.1-1.6-0.1
		h-1.3c0,0.5-0.1,1.5-0.1,2.7V16l3.2-0.3l0.3,0.4c0,0.4-0.1,0.8-0.2,1.2l-3.3-0.1v0.5c-0.1,0.8,0,1.6,0.2,2.4l0.1,0.1
		c0.4,0.2,0.9,0.2,1.4,0.2c0.5,0,1,0,1.5-0.1l0.5-1.8c0.6,0,1.1,0,1.7,0.1c0,1,0,2,0,3.1h-9.3l-0.2-0.9L111,20.3z"/>
	<path class="st1" d="M122.5,20.3c0.1-0.8,0.1-1.7,0.1-2.6v-2.6c0-0.8,0-1.6-0.2-2.4c-0.3-0.3-0.8-0.5-1.2-0.7l0.2-0.9h2.5
		c0.5,0,2.2-0.1,3-0.1c2.5,0,4.1,0.9,4.1,2.8c-0.1,1.2-0.9,2.3-2,2.8c0.6,1.2,1.3,2.4,2.1,3.6l1,0.5l-0.2,0.9c-1,0-1.9,0-3.1,0
		c-0.5-1.2-1.2-2.6-2-4.3h-1.5v0.3c-0.1,0.8,0,1.6,0.2,2.4c0.3,0.3,0.8,0.5,1.2,0.6l-0.2,0.9h-5l-0.2-0.9L122.5,20.3z M125.3,16
		l2.1,0.1c0.6-0.5,0.9-1.2,0.8-2c0-0.5-0.1-1-0.3-1.4c-0.4-0.2-0.8-0.4-1.3-0.3c-0.4,0-0.8,0-1.2,0.1c-0.1,0.9-0.1,1.7-0.1,2.6V16z"
		/>
	<path class="st1" d="M134.4,12.8c-0.4-0.3-0.8-0.5-1.2-0.7l0.2-0.9c1.1,0,2.4,0,3.4,0c1.5,2.3,3.1,4.5,4.9,6.6
		c0.1-1.7-0.1-3.3-0.3-5c-0.5-0.3-1-0.5-1.5-0.7l0.2-0.9h4.6l0.2,0.9l-1.3,0.5c-0.3,3-0.3,6-0.3,9l-2,0.2l-1.3-2
		c-1.1-1.5-2.4-3.2-3.5-4.6c0,1.7,0.1,3.3,0.3,4.9c0.5,0.3,1.1,0.5,1.8,0.6l-0.2,0.9h-4.9l-0.1-1l1.3-0.5c0.1-1.3,0.2-2.6,0.1-3.9
		C134.8,15.2,134.7,14,134.4,12.8z"/>
	<path class="st1" d="M145.8,16.8c0-3.2,2.5-5.8,5.7-5.8c0.1,0,0.1,0,0.2,0c2.7-0.2,5.1,1.8,5.3,4.5c0,0.2,0,0.5,0,0.7
		c0.1,3.1-2.4,5.7-5.5,5.8c-0.1,0-0.2,0-0.3,0c-2.8,0.2-5.2-1.8-5.4-4.5C145.8,17.2,145.8,17,145.8,16.8z M153.4,19.8
		c0.5-1,0.7-2,0.7-3.1c0-2.6-0.8-4.2-2.8-4.2c-0.6,0-1.2,0.1-1.7,0.5c-0.6,1-1,2.2-0.9,3.4c0,2.4,1.1,3.9,2.9,3.9
		C152.2,20.4,152.9,20.2,153.4,19.8z"/>
	<path class="st1" d="M164,20.3c0.1-0.8,0.1-1.7,0.1-2.6v-2.6c0.1-0.8,0-1.6-0.2-2.4c-0.3-0.3-0.8-0.5-1.2-0.7l0.2-0.9h2.4
		c0.5,0,2.2-0.1,3-0.1c4.3,0,5.8,2.4,5.8,5.3c0.2,2.8-1.9,5.3-4.7,5.5c-0.2,0-0.4,0-0.6,0c-0.9,0-2.4-0.1-3.4-0.1h-2.5l-0.2-0.9
		L164,20.3z M167.1,20.2c0.8,0.3,1.6,0.4,2.4,0.1c1.3-0.9,2-2.4,1.8-4c0.1-1.2-0.3-2.5-1.2-3.4c-0.6-0.3-1.3-0.5-2-0.5
		c-0.4,0-0.8,0-1.2,0.1c-0.1,0.8-0.1,1.7-0.1,2.6v2.6c0,0.8,0,1.6,0.2,2.4C167,20.2,167,20.2,167.1,20.2z"/>
	<path class="st1" d="M176.5,20.3c0.1-0.8,0.1-1.7,0.1-2.6v-2.6c0-0.8,0-1.6-0.2-2.4c-0.4-0.3-0.8-0.5-1.2-0.7l0.2-0.9h4.2
		c1.9,0,3.4,0,4.7-0.1c0.2,0.2,0.3,0.5,0.5,0.7c-0.1,0.7-0.4,2.1-0.5,2.6c-0.5,0-1.1,0-1.6-0.1l-0.3-1.8c-0.5-0.1-1.1-0.1-1.6-0.1
		h-1.4c0,0.5-0.1,1.5-0.1,2.7V16l3.2-0.2l0.3,0.4c0,0.4-0.1,0.8-0.2,1.2l-3.3-0.1v0.5c0,0.8,0,1.6,0.2,2.4l0.1,0.1
		c0.4,0.2,0.9,0.3,1.4,0.2c0.5,0,1,0,1.5-0.1l0.5-1.8c0.6,0,1.1,0,1.7,0.1c0,1,0,2,0,3.1h-9.3l-0.2-0.9L176.5,20.3z"/>
	<path class="st1" d="M73.3,47.1h-7.4l-0.3-1.5l2.2-0.7c0.2-1.4,0.4-4.4,0.5-7c0.2-1.8,0.2-3.5,0-5.3c-0.6-0.5-1.3-0.9-2-1.1
		l0.3-1.5h8.2c0.7,2.4,2.4,7.2,3.7,10.3c1.3-3.5,3.1-8,3.7-10.3h7.7l0.3,1.5l-2.2,1l0.4,8c-0.1,1.4,0.1,2.7,0.6,4
		c0.6,0.5,1.3,0.9,2,1l-0.3,1.5h-8.4l-0.3-1.5l2.3-0.7c0-1.5-0.3-7.2-0.4-11.4l-4.6,11.7c-1.1,0.1-2.3,0.1-3.4,0
		c-1.1-2.4-3.2-8.2-4.8-11.7l-0.1,5.2c-0.2,1.9-0.2,3.8,0,5.8c0.2,0.6,1.5,0.8,2.5,1.1L73.3,47.1z"/>
	<path class="st1" d="M96.7,44.9c0.2-1.4,0.2-2.8,0.2-4.2v-4.3c0.1-1.3-0.1-2.6-0.4-3.9c-0.6-0.5-1.3-0.9-2-1.1l0.3-1.5h6.8
		c3.1,0,5.6,0,7.6-0.2c0.3,0.3,0.6,0.9,0.8,1.2c-0.2,1.2-0.7,3.4-0.9,4.2c-0.9,0-1.7,0-2.6-0.1l-0.6-2.8c-0.9-0.1-1.7-0.2-2.6-0.2
		c-0.8,0-1.5,0-2.1,0c0,0.8-0.2,2.5-0.2,4.4v1.3l5.2-0.3l0.5,0.6c-0.1,0.7-0.2,1.4-0.4,2l-5.3-0.2v0.8c-0.1,1.3,0.1,2.6,0.4,3.9
		c0.1,0.1,0.1,0.1,0.2,0.2c0.7,0.3,1.5,0.4,2.3,0.4c0.8,0,1.6-0.1,2.4-0.2l0.9-3c0.9,0,1.9,0,2.8,0.1c0,1.6,0,3.3,0,5H94.9l-0.3-1.5
		L96.7,44.9z M105.7,22.9c0.7,0.9,1.3,1.9,1.6,3l-0.4,0.9l-7,1.8l-0.4-0.2L99,27C101,25.7,103.5,24.1,105.7,22.9z"/>
	<path class="st1" d="M115,44.8c1.9-2,3.5-4.1,5-6.5c-1.5-2.1-3-4-4.7-5.9c-0.7-0.4-1.3-0.7-2-0.9l0.3-1.5c1.9,0,4.3,0,5.9-0.1
		c1.2,2.3,2.6,4.5,4.1,6.6c0.8-1.5,1.6-2.8,2.2-4c-0.8-0.4-1.6-0.7-2.4-1l0.3-1.5h7.7l0.3,1.5c-0.5,0.2-1.3,0.6-1.8,0.9
		c-1.8,1.9-3.5,3.9-4.9,6.2c1.9,2.7,3.8,5.1,4.8,6.1c0.6,0.3,1.3,0.6,2,0.9l-0.3,1.5c-1.9,0-4.3,0-5.8,0.1c-1.3-2.4-2.7-4.6-4.3-6.8
		c-0.8,1.5-1.7,3-2.3,4.2c0.7,0.3,1.8,0.7,2.8,0.9l-0.3,1.5h-8.1l-0.3-1.5C113.7,45.4,114.5,45.1,115,44.8z"/>
	<path class="st1" d="M137.3,44.9c0.2-1.4,0.2-2.8,0.2-4.2v-4.3c0.1-1.3-0.1-2.6-0.4-3.9c-0.6-0.5-1.3-0.9-2-1.1l0.3-1.5h8.3
		l0.3,1.5l-2.1,0.8c-0.2,1.4-0.2,2.8-0.2,4.2v4.3c-0.1,1.3,0.1,2.6,0.4,3.9c0.6,0.5,1.3,0.9,2,1l-0.3,1.5h-8.4l-0.3-1.5L137.3,44.9z
		"/>
	<path class="st1" d="M159.5,44.3c0.4-1,0.7-2,1-3c1,0,2,0,3,0.1c0,1.1,0.1,2.7,0.1,3.7l-0.4,0.8c-2,1.2-4.2,1.7-6.5,1.7
		c-5.7,0-9.2-3.3-9.2-8.7c0.1-5.2,4.3-9.3,9.5-9.3c0.1,0,0.2,0,0.3,0c2.2,0,4.4,0.5,6.3,1.5l0.4,0.7c-0.2,1.3-0.7,3.2-1,4.4
		c-0.9,0-1.8,0-2.7-0.1c-0.1-1.1-0.4-2.1-0.8-3.2c-1.7-0.9-3.7-1-5.5-0.2c-1.2,1.7-1.9,3.7-1.8,5.8c0,3.7,1.9,6.2,5,6.2
		C158,44.9,158.8,44.7,159.5,44.3z"/>
	<path class="st1" d="M167.1,39.1c-0.1-5.2,4.1-9.4,9.2-9.5c0.1,0,0.2,0,0.3,0c5.1,0,8.6,3.2,8.6,8.5c0.2,5.1-3.8,9.3-8.9,9.5
		c-0.1,0-0.3,0-0.4,0C170.8,47.6,167.1,44.4,167.1,39.1z M179.6,44.1c0.7-1.6,1.1-3.3,1.1-5c0-4.3-1.3-6.8-4.5-6.8
		c-1,0-1.9,0.2-2.7,0.8c-1,1.7-1.6,3.6-1.5,5.6c0,4,1.8,6.4,4.7,6.4C177.7,45.1,178.7,44.7,179.6,44.1z"/>
</g>
</svg>
